<svg width="130" height="130" viewBox="0 0 130 130" fill="none" xmlns="http://www.w3.org/2000/svg">
<path d="M87.5531 83.8247L89.8356 81.5299C90.2329 81.1312 90.2312 80.4876 89.8328 80.0912C89.4314 79.6916 88.7869 79.6976 88.3934 80.0952L86.111 82.39C85.7137 82.7887 85.7153 83.4323 86.1138 83.8287C86.3805 84.0947 86.7576 84.1809 87.0955 84.0904C87.2644 84.0451 87.4218 83.9566 87.5531 83.8247Z" fill="#3D3E40"/>
<path d="M73.2228 44.1402C72.8223 43.7434 72.1758 43.75 71.7837 44.1452L67.5001 48.4557C67.1028 48.8544 67.1047 49.499 67.5031 49.8954C67.8982 50.2883 68.5424 50.292 68.9422 49.8904L73.2258 45.5799C73.6232 45.1812 73.6213 44.5366 73.2228 44.1402Z" fill="#3D3E40"/>
<path d="M52.7692 65.1631C52.3695 64.7619 51.7199 64.7642 51.3292 65.1569L43.2875 73.1208C42.8891 73.5156 42.885 74.1608 43.2801 74.5601C43.6816 74.9635 44.328 74.957 44.7202 74.5662L52.7619 66.6024C53.1602 66.2076 53.1643 65.5624 52.7692 65.1631Z" fill="#3D3E40"/>
<path d="M74.7974 50.0812C74.3963 49.6825 73.7499 49.689 73.3581 50.0852L69.0723 54.3953C68.6749 54.794 68.6769 55.4386 69.0753 55.8349C69.4704 56.2279 70.1146 56.2316 70.5144 55.83L74.8002 51.5199C75.1975 51.1212 75.1956 50.4766 74.7974 50.0812Z" fill="#3D3E40"/>
<path d="M54.3418 71.1026C53.9418 70.7005 53.2919 70.7018 52.9018 71.0965L44.86 79.0603C44.4617 79.4551 44.4576 80.1003 44.8527 80.4996C45.2541 80.9031 45.9006 80.8965 46.2927 80.5058L54.3344 72.542C54.7328 72.1471 54.7369 71.502 54.3418 71.1026Z" fill="#3D3E40"/>
<path d="M74.9304 56.0252L70.6445 60.3353C70.2472 60.734 70.2491 61.3786 70.6473 61.774C71.0406 62.1661 71.6849 62.1735 72.0866 61.77L76.3725 57.4599C76.7698 57.0612 76.7679 56.4166 76.3695 56.0202C75.9686 55.6225 75.3222 55.629 74.9304 56.0252Z" fill="#3D3E40"/>
<path d="M54.4778 77.0373L46.4363 85.002C46.0379 85.3969 46.0339 86.042 46.4289 86.4414C46.8304 86.8448 47.4768 86.8383 47.869 86.4475L55.9104 78.4827C56.3088 78.0879 56.3129 77.4427 55.9178 77.0434C55.5181 76.6422 54.8701 76.643 54.4778 77.0373Z" fill="#3D3E40"/>
<path d="M83.8655 57.4626L83.3273 58.0038L76.5863 32.8459L85.3038 24.079C89.437 19.9087 83.9358 11.5368 78.5228 8.21777C75.5468 6.38525 71.8567 5.01684 68.7111 6.53477C67.2446 7.33527 69.2432 5.75635 32.3581 42.727C30.8595 44.2301 30.0053 46.966 31.0388 50.5666L42.9949 95.6329C43.9067 99.3889 46.5836 103.32 50.3592 106.429C54.1611 109.454 59.939 111.497 63.0967 108.398C63.1136 108.383 63.1365 108.382 63.1527 108.366L85.1538 86.2388C85.5511 85.8402 85.5492 85.1956 85.1508 84.7992C84.7499 84.4014 84.1035 84.408 83.7117 84.8041L64.6719 103.952C64.6666 103.84 64.659 103.727 64.6508 103.612C64.2638 98.9511 59.4799 93.0679 54.2893 91.6754C53.8811 91.5665 53.4894 91.4999 53.1051 91.4533C53.0588 91.4477 53.0092 91.4316 52.9633 91.4268L85.3079 58.8983C87.0559 57.1361 91.235 59.2539 93.3452 61.209C96.2619 63.8998 99.1974 69.229 96.6616 71.7811L90.8439 77.6314C90.4465 78.03 90.4482 78.6737 90.8466 79.07C91.2458 79.4693 91.8896 79.4604 92.286 79.0661L98.1037 73.2158C101.602 69.7026 98.6528 63.3372 94.7267 59.7143C91.7466 56.9575 86.5839 54.7243 83.8655 57.4626ZM69.6405 8.34453C72.023 7.19594 75.1942 8.55895 77.4584 9.95162C81.5153 12.4402 86.8587 19.6153 83.86 22.6458L51.7307 54.9561C51.7239 54.8636 51.6925 54.7626 51.6824 54.6688C51.4298 52.301 50.2102 50.0253 48.7817 48.1449C45.2729 43.5188 40.2021 41.113 36.9162 41.0303C71.2318 6.60721 68.6731 8.87986 69.6405 8.34453ZM50.8058 102.006C53.3207 104.553 57.8295 106.392 59.2232 103.078C59.6672 102.016 59.4699 100.688 58.6875 99.4348C58.2266 98.6929 57.313 98.0854 56.4374 98.2331C55.8983 98.3333 55.449 98.8529 55.542 99.4072C55.635 99.9616 56.0991 100.334 56.6522 100.24C56.7142 100.257 56.8678 100.362 56.9595 100.512C57.3839 101.19 57.5277 101.857 57.3458 102.291C56.7239 103.783 53.4724 101.811 52.2539 100.575C50.9892 99.2958 50.1203 97.7733 49.8688 96.4198C49.4403 93.7925 51.2145 92.959 53.7626 93.6418C58.0107 94.7797 62.2984 99.855 62.6213 103.779C62.7131 104.897 62.4981 106.139 61.7103 106.93C61.7043 106.936 61.703 106.945 61.6972 106.951C59.3506 109.237 54.4795 107.105 51.6392 104.847C48.2117 102.024 45.7813 98.4904 44.9681 95.133L33.0009 50.0254C31.4255 44.5426 34.6942 41.2415 40.8175 44.1939C43.8463 45.6561 46.3288 48.0039 47.8674 50.3741C49.1412 52.3371 50.6564 55.8871 48.9547 57.7213C47.3945 59.403 44.1781 58.093 42.2818 56.7852C40.2407 55.3803 38.6576 53.435 37.9466 51.4649C37.516 50.2036 37.5722 49.1308 38.0917 48.5966C39.3623 47.3027 42.2829 49.1205 43.5425 50.7844C44.2612 51.739 44.4381 52.4911 44.3724 52.8451C44.2675 53.398 44.6303 53.9304 45.1829 54.0344C45.7336 54.139 46.2663 53.7771 46.371 53.2233C46.5732 52.1577 46.1463 50.8563 45.1667 49.558C43.0969 46.8228 38.9433 44.819 36.6346 47.1751C35.5519 48.2873 35.3271 50.0904 36.0262 52.1389C36.8856 54.5168 38.744 56.8215 41.1259 58.4613C43.9377 60.3959 47.9678 61.6213 50.3545 59.2274L74.9264 34.5151L81.6675 59.6731L48.9175 92.6086C48.9159 92.6101 48.9142 92.6115 48.9145 92.6125C48.7709 92.8724 47.3916 93.8861 47.8656 96.7693C48.1903 98.5343 49.2615 100.443 50.8058 102.006Z" fill="#3D3E40"/>
<path fill-rule="evenodd" clip-rule="evenodd" d="M60.3356 70.961C60.9803 70.4542 61.8175 69.6216 63.1093 68.3299C64.4011 67.0381 65.2363 66.1982 65.8228 65.4739C66.3746 64.7923 66.5078 64.4497 66.5699 64.2259C66.632 64.0021 66.6937 63.6423 66.5653 62.7978C66.4289 61.9004 66.1349 60.7899 65.6764 59.0788C65.2179 57.3676 64.9183 56.2627 64.6178 55.5294C64.3349 54.8393 64.1472 54.729 64.0168 54.6977C63.8864 54.6665 63.6646 54.6787 63.058 55.1556C62.4133 55.6625 61.5761 56.4951 60.2843 57.7868C58.9925 59.0786 58.1573 59.9185 57.5708 60.6428C57.019 61.3243 56.8858 61.667 56.8237 61.8908C56.7616 62.1146 56.6999 62.4744 56.8283 63.3189C56.9647 64.2163 57.2587 65.3268 57.7172 67.038C58.1757 68.7491 58.4753 69.854 58.7758 70.5873C59.0587 71.2774 59.2464 71.3877 59.3768 71.419C59.5072 71.4502 59.729 71.438 60.3356 70.961ZM55.5518 61.586C55.0538 63.3805 55.4991 65.0422 56.3896 68.3656C57.2801 71.689 57.7253 73.3507 58.7712 73.6013C59.8171 73.8519 61.0716 72.5974 63.5805 70.0885C66.0895 67.5795 67.3439 66.3251 67.8419 64.5307C68.3398 62.7362 67.8945 61.0745 67.004 57.7511C66.1135 54.4277 65.6683 52.766 64.6224 52.5154C63.5765 52.2648 62.322 53.5193 59.8131 56.0282C57.3042 58.5371 56.0497 59.7916 55.5518 61.586ZM61.1477 67.4252C60.3697 67.7842 59.7707 67.743 59.3221 67.601L59.9797 65.4331C60.274 65.5263 60.6512 65.5529 61.1562 65.3198C61.6538 65.0901 62.3098 64.4939 62.7669 63.824C63.2169 63.1646 63.5493 62.3318 63.69 61.7415L64.9979 61.9066C64.754 62.9308 64.241 64.1896 63.5486 65.2044C62.8633 66.2088 61.933 67.0628 61.1477 67.4252Z" fill="#3D3E40"/>
<ellipse cx="66" cy="119.5" rx="30" ry="2.5" fill="#EBE7E1"/>
</svg>
