<svg width="58" height="45" viewBox="0 0 58 45" fill="none" xmlns="http://www.w3.org/2000/svg">
<path d="M4.664 13V7.04H6.768C7.16267 7.04 7.50933 7.11467 7.808 7.264C8.10667 7.41333 8.33867 7.62667 8.504 7.904C8.67467 8.18133 8.76 8.50667 8.76 8.88C8.76 9.25333 8.67467 9.57867 8.504 9.856C8.33867 10.128 8.10667 10.3413 7.808 10.496C7.51467 10.6453 7.168 10.72 6.768 10.72H5.448V13H4.664ZM5.448 10H6.792C7.032 10 7.24 9.95467 7.416 9.864C7.592 9.77333 7.728 9.64267 7.824 9.472C7.92 9.30133 7.968 9.104 7.968 8.88C7.968 8.65067 7.92 8.45333 7.824 8.288C7.728 8.11733 7.592 7.98667 7.416 7.896C7.24 7.80533 7.032 7.76 6.792 7.76H5.448V10ZM11.624 13.096C11.208 13.096 10.832 13 10.496 12.808C10.16 12.6107 9.89333 12.3413 9.696 12C9.49867 11.6587 9.4 11.272 9.4 10.84C9.4 10.408 9.496 10.024 9.688 9.688C9.88533 9.352 10.152 9.08533 10.488 8.888C10.824 8.69067 11.2027 8.592 11.624 8.592C12.04 8.592 12.416 8.69067 12.752 8.888C13.088 9.08 13.352 9.344 13.544 9.68C13.7413 10.016 13.84 10.4027 13.84 10.84C13.84 11.2773 13.7387 11.6667 13.536 12.008C13.3333 12.344 13.064 12.6107 12.728 12.808C12.3973 13 12.0293 13.096 11.624 13.096ZM11.624 12.376C11.8907 12.376 12.1307 12.3093 12.344 12.176C12.5627 12.0427 12.7333 11.8587 12.856 11.624C12.984 11.3893 13.048 11.128 13.048 10.84C13.048 10.5467 12.984 10.288 12.856 10.064C12.7333 9.83467 12.5627 9.65333 12.344 9.52C12.1307 9.38133 11.8907 9.312 11.624 9.312C11.352 9.312 11.1067 9.38133 10.888 9.52C10.6747 9.65333 10.504 9.83467 10.376 10.064C10.248 10.288 10.184 10.5467 10.184 10.84C10.184 11.128 10.248 11.3893 10.376 11.624C10.504 11.8587 10.6747 12.0427 10.888 12.176C11.1067 12.3093 11.352 12.376 11.624 12.376ZM15.7243 13L14.2443 8.688H15.0683L16.2443 12.296L15.9563 12.288L17.1083 8.688H17.8123L18.9643 12.288L18.6762 12.296L19.8603 8.688H20.6763L19.1963 13H18.4843L17.3483 9.4H17.5723L16.4363 13H15.7243ZM23.2475 13.096C22.8315 13.096 22.4608 12.9973 22.1355 12.8C21.8102 12.6027 21.5542 12.3333 21.3675 11.992C21.1808 11.6453 21.0875 11.2587 21.0875 10.832C21.0875 10.4 21.1782 10.016 21.3595 9.68C21.5462 9.344 21.7968 9.08 22.1115 8.888C22.4315 8.69067 22.7888 8.592 23.1835 8.592C23.5035 8.592 23.7862 8.65067 24.0315 8.768C24.2822 8.88 24.4928 9.03467 24.6635 9.232C24.8395 9.424 24.9728 9.64533 25.0635 9.896C25.1595 10.1413 25.2075 10.3973 25.2075 10.664C25.2075 10.7227 25.2022 10.7893 25.1915 10.864C25.1862 10.9333 25.1782 11 25.1675 11.064H21.6315V10.424H24.7355L24.3835 10.712C24.4315 10.4347 24.4048 10.1867 24.3035 9.968C24.2022 9.74933 24.0528 9.576 23.8555 9.448C23.6582 9.32 23.4342 9.256 23.1835 9.256C22.9328 9.256 22.7035 9.32 22.4955 9.448C22.2875 9.576 22.1248 9.76 22.0075 10C21.8955 10.2347 21.8502 10.5147 21.8715 10.84C21.8502 11.1547 21.8982 11.432 22.0155 11.672C22.1382 11.9067 22.3088 12.0907 22.5275 12.224C22.7515 12.352 22.9942 12.416 23.2555 12.416C23.5435 12.416 23.7862 12.3493 23.9835 12.216C24.1808 12.0827 24.3408 11.912 24.4635 11.704L25.0875 12.024C25.0022 12.2213 24.8688 12.4027 24.6875 12.568C24.5115 12.728 24.3008 12.856 24.0555 12.952C23.8155 13.048 23.5462 13.096 23.2475 13.096ZM26.1776 13V8.688H26.9056V9.48L26.8256 9.368C26.9269 9.12267 27.0816 8.94133 27.2896 8.824C27.4976 8.70133 27.7509 8.64 28.0496 8.64H28.3136V9.344H27.9376C27.6336 9.344 27.3882 9.44 27.2016 9.632C27.0149 9.81867 26.9216 10.0853 26.9216 10.432V13H26.1776ZM30.9584 13.096C30.5424 13.096 30.1718 12.9973 29.8464 12.8C29.5211 12.6027 29.2651 12.3333 29.0784 11.992C28.8918 11.6453 28.7984 11.2587 28.7984 10.832C28.7984 10.4 28.8891 10.016 29.0704 9.68C29.2571 9.344 29.5078 9.08 29.8224 8.888C30.1424 8.69067 30.4998 8.592 30.8944 8.592C31.2144 8.592 31.4971 8.65067 31.7424 8.768C31.9931 8.88 32.2038 9.03467 32.3744 9.232C32.5504 9.424 32.6838 9.64533 32.7744 9.896C32.8704 10.1413 32.9184 10.3973 32.9184 10.664C32.9184 10.7227 32.9131 10.7893 32.9024 10.864C32.8971 10.9333 32.8891 11 32.8784 11.064H29.3424V10.424H32.4464L32.0944 10.712C32.1424 10.4347 32.1158 10.1867 32.0144 9.968C31.9131 9.74933 31.7638 9.576 31.5664 9.448C31.3691 9.32 31.1451 9.256 30.8944 9.256C30.6438 9.256 30.4144 9.32 30.2064 9.448C29.9984 9.576 29.8358 9.76 29.7184 10C29.6064 10.2347 29.5611 10.5147 29.5824 10.84C29.5611 11.1547 29.6091 11.432 29.7264 11.672C29.8491 11.9067 30.0198 12.0907 30.2384 12.224C30.4624 12.352 30.7051 12.416 30.9664 12.416C31.2544 12.416 31.4971 12.3493 31.6944 12.216C31.8918 12.0827 32.0518 11.912 32.1744 11.704L32.7984 12.024C32.7131 12.2213 32.5798 12.4027 32.3984 12.568C32.2224 12.728 32.0118 12.856 31.7664 12.952C31.5264 13.048 31.2571 13.096 30.9584 13.096ZM35.8485 13.096C35.4432 13.096 35.0778 12.9973 34.7525 12.8C34.4325 12.6027 34.1792 12.3333 33.9925 11.992C33.8058 11.6507 33.7125 11.2693 33.7125 10.848C33.7125 10.416 33.8058 10.032 33.9925 9.696C34.1792 9.35467 34.4325 9.08533 34.7525 8.888C35.0778 8.69067 35.4432 8.592 35.8485 8.592C36.2058 8.592 36.5232 8.66933 36.8005 8.824C37.0778 8.97333 37.2965 9.176 37.4565 9.432L37.3365 9.616V6.944H38.0885V13H37.3605V12.08L37.4565 12.208C37.3072 12.4907 37.0885 12.7093 36.8005 12.864C36.5178 13.0187 36.2005 13.096 35.8485 13.096ZM35.9125 12.376C36.1845 12.376 36.4272 12.3093 36.6405 12.176C36.8538 12.0427 37.0218 11.8613 37.1445 11.632C37.2725 11.3973 37.3365 11.136 37.3365 10.848C37.3365 10.5547 37.2725 10.2933 37.1445 10.064C37.0218 9.82933 36.8538 9.64533 36.6405 9.512C36.4272 9.37867 36.1845 9.312 35.9125 9.312C35.6458 9.312 35.4032 9.38133 35.1845 9.52C34.9712 9.65333 34.8032 9.83467 34.6805 10.064C34.5578 10.288 34.4965 10.5493 34.4965 10.848C34.4965 11.136 34.5578 11.3973 34.6805 11.632C34.8032 11.8613 34.9712 12.0427 35.1845 12.176C35.3978 12.3093 35.6405 12.376 35.9125 12.376ZM42.8549 13.096C42.5082 13.096 42.1909 13.0187 41.9029 12.864C41.6202 12.7093 41.4015 12.4907 41.2469 12.208L41.3509 12.08V13H40.6229V6.944H41.3669V9.616L41.2549 9.432C41.4149 9.176 41.6335 8.97333 41.9109 8.824C42.1882 8.66933 42.5055 8.592 42.8629 8.592C43.2682 8.592 43.6309 8.69067 43.9509 8.888C44.2762 9.08533 44.5322 9.35467 44.7189 9.696C44.9055 10.032 44.9989 10.416 44.9989 10.848C44.9989 11.2693 44.9055 11.6507 44.7189 11.992C44.5322 12.3333 44.2762 12.6027 43.9509 12.8C43.6309 12.9973 43.2655 13.096 42.8549 13.096ZM42.7989 12.376C43.0709 12.376 43.3135 12.3093 43.5269 12.176C43.7402 12.0427 43.9055 11.8613 44.0229 11.632C44.1455 11.3973 44.2069 11.136 44.2069 10.848C44.2069 10.5493 44.1455 10.288 44.0229 10.064C43.9055 9.83467 43.7402 9.65333 43.5269 9.52C43.3135 9.38133 43.0709 9.312 42.7989 9.312C42.5269 9.312 42.2815 9.37867 42.0629 9.512C41.8495 9.64533 41.6789 9.82933 41.5509 10.064C41.4282 10.2933 41.3669 10.5547 41.3669 10.848C41.3669 11.136 41.4282 11.3973 41.5509 11.632C41.6789 11.8613 41.8495 12.0427 42.0629 12.176C42.2815 12.3093 42.5269 12.376 42.7989 12.376ZM46.1283 14.76C46.0323 14.76 45.9363 14.752 45.8403 14.736C45.7443 14.72 45.6536 14.6933 45.5683 14.656V13.992C45.627 14.0027 45.699 14.0133 45.7843 14.024C45.875 14.04 45.963 14.048 46.0483 14.048C46.299 14.048 46.4883 13.992 46.6163 13.88C46.7496 13.7733 46.875 13.5867 46.9923 13.32L47.2643 12.672L47.2483 13.32L45.4083 8.688H46.2163L47.6483 12.368H47.4083L48.8323 8.688H49.6563L47.7123 13.512C47.6216 13.7413 47.5043 13.9493 47.3603 14.136C47.2216 14.328 47.051 14.48 46.8483 14.592C46.6456 14.704 46.4056 14.76 46.1283 14.76Z" fill="#757575"/>
<path d="M13.3769 25.0082C13.3769 25.1854 13.371 25.3592 13.3605 25.5259C13.3501 25.6926 13.3139 25.9118 13.2545 26.1846C13.1938 26.4563 13.1145 26.7069 13.0166 26.9354C12.9187 27.1628 12.7729 27.403 12.5817 27.6525C12.3905 27.9031 12.1632 28.1118 11.8997 28.2785C11.6374 28.4453 11.3028 28.584 10.8982 28.6959C10.4925 28.8067 10.0389 28.8626 9.53529 28.8626H5.53631C5.24134 28.8626 5.00117 28.619 5.00117 28.3193V26.7885H5.0035C5.62142 26.7885 6.39906 26.7885 7.21401 26.7874H9.64371C9.955 26.7874 10.1893 26.6311 10.3059 26.349C10.4214 26.0715 10.3666 25.7975 10.1509 25.5772C9.38722 24.7984 8.6154 24.0172 7.89605 23.2874C7.7305 23.1195 7.52414 23.0507 7.29912 23.088C7.02514 23.1347 6.8351 23.2967 6.74766 23.5579C6.65789 23.8295 6.71735 24.0814 6.91904 24.2877C7.21401 24.5885 7.51131 24.8893 7.82144 25.2018L7.99049 25.3743H5.00117L5 21.5456C5.00117 21.2459 5.24017 21.0034 5.53397 21.0034H9.53296C10.6172 21.0034 11.5289 21.3625 12.267 22.0795C13.0073 22.7977 13.3769 23.7736 13.3769 25.0082Z" fill="#3C67B1"/>
<path d="M13.3769 33.1423C13.3769 33.3195 13.371 33.4932 13.3605 33.66C13.3501 33.8267 13.3139 34.0459 13.2545 34.3187C13.1938 34.5903 13.1145 34.841 13.0166 35.0695C12.9187 35.2969 12.7729 35.537 12.5817 35.7865C12.3905 36.0372 12.1632 36.2459 11.8997 36.4126C11.6374 36.5793 11.3028 36.7181 10.8982 36.83C10.4925 36.9408 10.0389 36.9967 9.53529 36.9967H5.53631C5.24134 36.9967 5.00117 36.7531 5.00117 36.4534V35.6769L5 29.6808C5.00117 29.3812 5.24017 29.1387 5.53397 29.1387H9.53296C10.6172 29.1387 11.5289 29.4978 12.267 30.2148C12.5841 30.5237 12.8347 30.8793 13.0154 31.2827C12.4523 31.2827 11.7551 31.2827 11.0183 31.2839H8.36008C8.04879 31.2839 7.81444 31.439 7.69669 31.7223C7.58243 31.9998 7.63723 32.2749 7.85175 32.4941C8.60958 33.2671 9.38256 34.0517 10.1054 34.7839C10.2418 34.9226 10.405 34.9937 10.5834 34.9937C10.6231 34.9937 10.6615 34.9902 10.7023 34.9832C10.9763 34.9366 11.1664 34.7746 11.2538 34.5122C11.3436 34.2417 11.2841 33.9899 11.0824 33.7836C10.7874 33.4816 10.4901 33.182 10.1789 32.8683L10.011 32.6969H13.3594C13.371 32.8404 13.3769 32.9896 13.3769 33.1423Z" fill="#3C67B1"/>
<path d="M15.3242 21.0005H18.1946C19.8199 21.0005 20.6255 21.8294 20.6255 22.9498C20.6255 23.8639 20.0472 24.3781 19.315 24.5494V24.6229C20.1137 24.6637 20.9181 25.3317 20.9181 26.4685C20.9181 27.639 20.0764 28.5169 18.359 28.5169H15.3242V21.0005ZM18.0256 24.1962C18.7321 24.1962 19.2672 23.7846 19.2672 23.1247C19.2672 22.5453 18.8533 22.1232 18.0559 22.1232H16.6825V24.1973H18.0256V24.1962ZM18.1433 27.379C19.1285 27.379 19.5377 26.9605 19.5377 26.3624C19.5377 25.6908 19.0177 25.1767 18.1795 25.1767H16.6825V27.379H18.1433Z" fill="#F26727"/>
<path d="M22.9526 28.5158H21.627V21.0005H22.9234V23.8371H22.9887C23.2487 23.1982 23.7978 22.8053 24.6617 22.8053C25.83 22.8053 26.5983 23.5654 26.5983 24.926V28.5158H25.2727V25.1324C25.2727 24.3722 24.8623 23.928 24.1674 23.928C23.4574 23.928 22.9514 24.3979 22.9514 25.2128V28.5158H22.9526Z" fill="#F26727"/>
<path d="M27.2695 26.935C27.2695 25.6654 28.313 25.3389 29.4043 25.2212C30.3964 25.1151 30.7952 25.0964 30.7952 24.7152V24.693C30.7952 24.1392 30.4582 23.8233 29.8438 23.8233C29.1956 23.8233 28.8225 24.1532 28.6907 24.5391L27.4537 24.3631C27.7464 23.336 28.6546 22.8066 29.8368 22.8066C30.9094 22.8066 32.1219 23.2543 32.1219 24.7443V28.5171H30.8476V27.743H30.8033C30.562 28.2163 30.035 28.6314 29.1524 28.6314C28.0787 28.6302 27.2695 28.0426 27.2695 26.935ZM30.7987 26.4943V25.8298C30.6261 25.9697 29.9312 26.0571 29.5838 26.1049C28.9904 26.1889 28.5473 26.4022 28.5473 26.9129C28.5473 27.4014 28.9426 27.6544 29.4952 27.6544C30.2938 27.6544 30.7987 27.1216 30.7987 26.4943Z" fill="#F26727"/>
<path d="M33.0453 22.8788H34.3301V23.8185H34.3884C34.5936 23.1656 35.1322 22.7983 35.7758 22.7983C35.9227 22.7983 36.1314 22.8135 36.2515 22.8345V24.0575C36.1384 24.0214 35.8597 23.9805 35.6359 23.9805C34.9072 23.9805 34.3686 24.4865 34.3686 25.2024V28.517H33.043V22.8788H33.0453Z" fill="#F26727"/>
<path d="M36.3516 26.935C36.3516 25.6654 37.395 25.3389 38.4863 25.2212C39.4785 25.1151 39.8772 25.0964 39.8772 24.7152V24.693C39.8772 24.1392 39.5403 23.8233 38.9258 23.8233C38.2776 23.8233 37.9045 24.1532 37.7728 24.5391L36.5358 24.3631C36.8284 23.336 37.7366 22.8066 38.9188 22.8066C39.9915 22.8066 41.204 23.2543 41.204 24.7443V28.5171H39.9285V27.743H39.8842C39.6429 28.2163 39.1159 28.6314 38.2333 28.6314C37.1607 28.6302 36.3516 28.0426 36.3516 26.935ZM39.8807 26.4943V25.8298C39.7081 25.9697 39.0133 26.0571 38.6658 26.1049C38.0724 26.1889 37.6294 26.4022 37.6294 26.9129C37.6294 27.4014 38.0246 27.6544 38.5772 27.6544C39.3759 27.6544 39.8807 27.1216 39.8807 26.4943Z" fill="#F26727"/>
<path d="M44.9369 23.9072H43.8282V26.8208C43.8282 27.3571 44.0951 27.4736 44.4286 27.4736C44.593 27.4736 44.7434 27.441 44.8168 27.4223L45.0407 28.4612C44.8984 28.509 44.6384 28.5824 44.2607 28.5929C43.265 28.622 42.4955 28.1009 42.5037 27.0399V23.9072H41.7051V22.8801H42.5037V21.5288H43.8293V22.8789H44.9381V23.9072H44.9369Z" fill="#F26727"/>
<path d="M20.3755 32.0431C20.2251 31.1861 19.5454 30.6941 18.678 30.6941C17.5098 30.6941 16.6867 31.593 16.6867 33.2078C16.6867 34.8505 17.5168 35.7214 18.6745 35.7214C19.5291 35.7214 20.2123 35.2492 20.3755 34.411L21.6802 34.418C21.4808 35.7844 20.3557 36.8861 18.657 36.8861C16.7741 36.8861 15.3867 35.5197 15.3867 33.2089C15.3867 30.8947 16.7916 29.5317 18.657 29.5317C20.2403 29.5317 21.461 30.4551 21.6802 32.0454H20.3755V32.0431Z" fill="#F26727"/>
<path d="M22.1934 34.1222C22.1934 32.4584 23.1902 31.3462 24.7595 31.3462C26.3287 31.3462 27.3256 32.4584 27.3256 34.1222C27.3256 35.7824 26.3287 36.8911 24.7595 36.8911C23.1902 36.8911 22.1934 35.7824 22.1934 34.1222ZM26.0454 34.1187C26.0454 33.1358 25.6199 32.35 24.7653 32.35C23.8967 32.35 23.4712 33.137 23.4712 34.1187C23.4712 35.1003 23.8967 35.8768 24.7653 35.8768C25.6199 35.8768 26.0454 35.1003 26.0454 34.1187Z" fill="#F26727"/>
<path d="M29.2568 36.785H27.9941V31.4161H29.2008V32.329H29.2638C29.5075 31.7309 30.0589 31.3462 30.861 31.3462C31.9663 31.3462 32.6985 32.0807 32.695 33.3667V36.785H31.4323V33.5625C31.4323 32.8455 31.0418 32.4165 30.39 32.4165C29.7243 32.4165 29.2568 32.8642 29.2568 33.6395V36.785Z" fill="#F26727"/>
<path d="M34.8545 36.785H33.5918V31.4161H34.7985V32.329H34.8614C35.1051 31.7309 35.6566 31.3462 36.4587 31.3462C37.564 31.3462 38.2961 32.0807 38.2926 33.3667V36.785H37.03V33.5625C37.03 32.8455 36.6394 32.4165 35.9877 32.4165C35.322 32.4165 34.8545 32.8642 34.8545 33.6395V36.785Z" fill="#F26727"/>
<path d="M38.9551 34.1327C38.9551 32.4759 39.9554 31.3462 41.4897 31.3462C42.8083 31.3462 43.9381 32.1751 43.9381 34.0592V34.4474H40.2072C40.2177 35.3673 40.7587 35.9048 41.5737 35.9048C42.1181 35.9048 42.5355 35.667 42.7069 35.2123L43.8856 35.3452C43.6629 36.279 42.8048 36.89 41.5562 36.89C39.9426 36.89 38.9551 35.8174 38.9551 34.1327ZM42.7279 33.594C42.7209 32.863 42.2324 32.3325 41.5072 32.3325C40.754 32.3325 40.248 32.9096 40.2107 33.594H42.7279Z" fill="#F26727"/>
<path d="M44.3809 34.1222C44.3809 32.4829 45.3707 31.3462 46.94 31.3462C48.2469 31.3462 49.154 32.1122 49.2414 33.2757H48.0347C47.9368 32.7581 47.5637 32.3663 46.9575 32.3663C46.1798 32.3663 45.6598 33.0169 45.6598 34.1C45.6598 35.1983 46.1693 35.8582 46.9575 35.8582C47.5113 35.8582 47.9263 35.5259 48.0347 34.9488H49.2414C49.1505 36.0878 48.2936 36.8888 46.947 36.8888C45.3462 36.89 44.3809 35.7474 44.3809 34.1222Z" fill="#F26727"/>
<path d="M52.5635 32.395H51.5072V35.171C51.5072 35.6816 51.7613 35.7936 52.0796 35.7936C52.237 35.7936 52.3793 35.7621 52.4492 35.7446L52.6614 36.7344C52.525 36.7799 52.2778 36.8498 51.9187 36.8603C50.9709 36.8883 50.2375 36.3917 50.2445 35.382V32.3962H49.4844V31.4168H50.2445V30.1309H51.5072V31.4168H52.5635V32.395Z" fill="#F26727"/>
</svg>
