<svg width="20" height="20" viewBox="0 0 20 20" fill="none" xmlns="http://www.w3.org/2000/svg">
<g clip-path="url(#clip0_1148_133)">
<path d="M19.0909 10C19.0909 4.97929 15.0207 0.909119 10 0.909119C4.97926 0.909119 0.909088 4.97929 0.909088 10C0.909088 14.5375 4.23352 18.2985 8.57954 18.9805V12.6279H6.2713V10H8.57954V7.99719C8.57954 5.71878 9.93679 4.46025 12.0133 4.46025C13.008 4.46025 14.0483 4.63781 14.0483 4.63781V6.87503H12.902C11.7727 6.87503 11.4205 7.57581 11.4205 8.29477V10H13.9418L13.5387 12.6279H11.4205V18.9805C15.7665 18.2985 19.0909 14.5376 19.0909 10Z" fill="#1877F2"/>
<path d="M13.5387 12.6278L13.9418 9.99998H11.4205V8.29472C11.4205 7.57569 11.7727 6.87498 12.902 6.87498H14.0483V4.63776C14.0483 4.63776 13.008 4.46021 12.0133 4.46021C9.93679 4.46021 8.57955 5.71873 8.57955 7.99714V9.99998H6.27131V12.6278H8.57955V18.9804C9.04945 19.0541 9.52437 19.091 10 19.0909C10.4756 19.091 10.9506 19.0541 11.4205 18.9804V12.6278H13.5387Z" fill="white"/>
</g>
<defs>
<clipPath id="clip0_1148_133">
<rect width="20" height="20" fill="white"/>
</clipPath>
</defs>
</svg>
