<svg width="21" height="20" viewBox="0 0 21 20" fill="none" xmlns="http://www.w3.org/2000/svg">
<path d="M19.3923 10.1701C19.3923 9.42522 19.3318 8.88164 19.201 8.31793H10.695V11.68H15.6878C15.5872 12.5156 15.0436 13.7739 13.8356 14.6194L13.8187 14.7319L16.5081 16.8154L16.6945 16.834C18.4057 15.2536 19.3923 12.9283 19.3923 10.1701Z" fill="#4285F4"/>
<path d="M10.6953 19.0285C13.1413 19.0285 15.1948 18.2231 16.6948 16.834L13.8359 14.6194C13.0709 15.1529 12.0441 15.5254 10.6953 15.5254C8.29949 15.5254 6.26611 13.945 5.54127 11.7606L5.43502 11.7696L2.63849 13.9339L2.60192 14.0356C4.09172 16.995 7.15189 19.0285 10.6953 19.0285Z" fill="#34A853"/>
<path d="M5.5417 11.7606C5.35044 11.1969 5.23976 10.5929 5.23976 9.96881C5.23976 9.34466 5.35044 8.7407 5.53164 8.17699L5.52657 8.05694L2.695 5.85791L2.60235 5.90198C1.98833 7.13008 1.63601 8.50919 1.63601 9.96881C1.63601 11.4284 1.98833 12.8075 2.60235 14.0356L5.5417 11.7606Z" fill="#FBBC05"/>
<path d="M10.6953 4.41217C12.3964 4.41217 13.544 5.14701 14.1983 5.7611L16.7551 3.26464C15.1848 1.80502 13.1413 0.909119 10.6953 0.909119C7.15189 0.909119 4.09172 2.9425 2.60192 5.90197L5.53121 8.17699C6.26611 5.9926 8.29949 4.41217 10.6953 4.41217Z" fill="#EB4335"/>
</svg>
