<svg width="40" height="40" viewBox="0 0 40 40" fill="none" xmlns="http://www.w3.org/2000/svg">
<path d="M15.0009 5L13.3342 13.3333M26.6676 5L25.0009 13.3333M36.6676 13.3333H3.33423M11.3342 35H28.6676C31.4678 35 32.868 35 33.9375 34.455C34.8783 33.9757 35.6432 33.2108 36.1226 32.27C36.6676 31.2004 36.6676 29.8003 36.6676 27V13C36.6676 10.1997 36.6676 8.79961 36.1226 7.73005C35.6432 6.78924 34.8783 6.02433 33.9375 5.54497C32.868 5 31.4678 5 28.6676 5H11.3342C8.53397 5 7.13383 5 6.06428 5.54497C5.12347 6.02433 4.35856 6.78924 3.8792 7.73005C3.33423 8.79961 3.33423 10.1997 3.33423 13V27C3.33423 29.8003 3.33423 31.2004 3.8792 32.27C4.35856 33.2108 5.12347 33.9757 6.06428 34.455C7.13383 35 8.53397 35 11.3342 35Z" stroke="#3D3E40" stroke-width="1.5" stroke-linecap="round" stroke-linejoin="round"/>
<path d="M25.7747 24.3647C26.1615 24.1326 26.1615 23.5719 25.7747 23.3398L17.5735 18.4191C17.1752 18.1801 16.6685 18.467 16.6685 18.9315V28.7729C16.6685 29.2374 17.1752 29.5243 17.5735 29.2853L25.7747 24.3647Z" fill="#3D3E40"/>
</svg>
