<svg width="34" height="32" viewBox="0 0 34 32" fill="none" xmlns="http://www.w3.org/2000/svg">
<path fill-rule="evenodd" clip-rule="evenodd" d="M8.18699 27.7417C10.1528 27.9892 12.8233 27.9976 16.9486 27.9976C21.0738 27.9976 23.7444 27.9892 25.7102 27.7417C27.5599 27.5089 28.1266 27.1329 28.4341 26.8427C28.7415 26.5525 29.1398 26.0175 29.3864 24.2713C29.6485 22.4155 29.6574 19.8944 29.6574 16.0001C29.6574 12.1056 29.6485 9.58454 29.3864 7.72877C29.1398 5.98256 28.7415 5.44757 28.4341 5.15734C28.1266 4.86712 27.5599 4.49109 25.7102 4.25827C23.7444 4.01084 21.0738 4.00248 16.9486 4.00248C12.8233 4.00248 10.1528 4.01084 8.18699 4.25827C6.33723 4.49109 5.77051 4.86712 5.46307 5.15734C5.15568 5.44757 4.75733 5.98256 4.51072 7.72877C4.24863 9.58454 4.23977 12.1056 4.23977 16.0001C4.23977 19.8944 4.24863 22.4155 4.51072 24.2713C4.75733 26.0175 5.15568 26.5525 5.46307 26.8427C5.77051 27.1329 6.33723 27.5089 8.18699 27.7417ZM2.46511 2.32714C0 4.65431 0 8.43622 0 16.0001C0 23.5639 0 27.3457 2.46511 29.6729C4.93023 32 8.93636 32 16.9486 32C24.9609 32 28.9669 32 31.4321 29.6729C33.8971 27.3457 33.8971 23.5639 33.8971 16.0001C33.8971 8.43622 33.8971 4.65431 31.4321 2.32714C28.9669 0 24.9609 0 16.9486 0C8.93636 0 4.93023 0 2.46511 2.32714ZM12.6185 22.8527C10.4168 22.1008 8.93596 20.9516 7.90208 19.8914L11.0212 17.1805C11.6995 17.876 12.6317 18.6009 14.0609 19.089C15.4691 19.5698 17.5238 19.6771 19.1269 19.2951C20.7053 18.9191 22.1047 18.0212 22.8573 17.2139L26.0401 19.858C24.7346 21.2586 22.5932 22.5973 20.1643 23.176C17.7604 23.7487 14.8411 23.6118 12.6185 22.8527Z" fill="white"/>
</svg>
