<svg width="24" height="24" viewBox="0 0 24 24" fill="none" xmlns="http://www.w3.org/2000/svg">
<path d="M21.708 12.1214C21.1401 9.81857 19.9309 7.72338 18.2221 6.0786C16.5775 4.37237 14.4856 3.16404 12.1854 2.59266C9.97701 2.11251 8.06911 2.53866 6.81532 3.79259L4.07877 6.53498C1.56406 9.04969 2.58433 14.1674 6.35887 17.9359C8.75865 20.3357 11.6395 21.5964 14.0993 21.5964C15.4579 21.6504 16.781 21.1526 17.7659 20.2159L20.5024 17.4794C21.7623 16.2313 22.1884 14.3235 21.7083 12.1209L21.708 12.1214ZM11.9095 3.84666C13.9693 4.36308 15.8418 5.45079 17.3101 6.9848C18.8442 8.45476 19.9336 10.3256 20.4543 12.3853C20.8323 14.1498 20.5319 15.6375 19.5902 16.5859C17.5743 18.6018 13.2715 17.5757 9.98911 14.2999C6.70666 11.0233 5.69914 6.72061 7.72088 4.7047C8.69888 3.6845 10.4574 3.49887 11.9097 3.84651L11.9095 3.84666ZM7.709 17.4737L9.54518 15.6375C10.5198 16.5362 11.6193 17.2881 12.809 17.8703L11.0092 19.6702C9.80417 19.1226 8.69708 18.3808 7.73255 17.4737H7.709ZM4.62487 13.2732L6.42476 11.4733C7.00363 12.6639 7.75549 13.7627 8.65755 14.7322L6.82727 16.5684C5.92352 15.5912 5.18771 14.4723 4.64848 13.2555L4.62487 13.2732ZM4.96072 7.45832L5.44087 6.97817V6.97902C5.38349 8.07431 5.54466 9.16969 5.9151 10.2016L4.18103 11.9112C3.71862 10.1172 3.94645 8.47931 4.98521 7.44154L4.96072 7.45832ZM16.8596 19.3159C15.8217 20.3539 14.1829 20.5817 12.389 20.1201L14.0995 18.3979C14.9746 18.7025 15.8918 18.8645 16.8183 18.878H17.3162L16.8596 19.3159Z" fill="#3D3E40"/>
<path d="M10.942 7.9207C11.8002 7.06251 13.768 7.58485 15.2447 9.05481C15.4987 9.27844 15.8827 9.26577 16.1215 9.02697C16.3611 8.78731 16.3738 8.40338 16.1502 8.14938C14.098 6.12081 11.434 5.62301 10.0357 7.02116C9.91503 7.1393 9.84668 7.30132 9.84668 7.47092C9.84668 7.64052 9.91503 7.80256 10.0357 7.92068C10.1555 8.04219 10.3184 8.11054 10.4888 8.11054C10.6593 8.11054 10.8222 8.04221 10.942 7.9207Z" fill="#3D3E40"/>
<path d="M12.0742 12.2229C11.8219 11.9765 11.4202 11.9765 11.1679 12.2229C11.0464 12.3427 10.978 12.5056 10.978 12.676C10.978 12.8465 11.0464 13.0093 11.1679 13.1292C12.2185 14.2709 13.6698 14.9611 15.2183 15.0557C15.9853 15.0801 16.7288 14.7941 17.2823 14.2633C17.5287 14.011 17.5287 13.6093 17.2823 13.357C17.1633 13.2355 16.9996 13.1672 16.8292 13.1672C16.6595 13.1672 16.4958 13.2355 16.3769 13.357C15.5187 14.2152 13.5442 13.6987 12.0742 12.2229Z" fill="#3D3E40"/>
</svg>
