<svg width="40" height="40" viewBox="0 0 40 40" fill="none" xmlns="http://www.w3.org/2000/svg">
<path d="M26.664 14.9997V9.99967C26.664 6.31778 23.6793 3.33301 19.9974 3.33301C16.3155 3.33301 13.3307 6.31778 13.3307 9.99968V14.9997M5.98403 17.253L4.98403 27.9196C4.6997 30.9524 4.55754 32.4689 5.06078 33.6401C5.50286 34.6691 6.27756 35.5198 7.26073 36.056C8.3799 36.6663 9.90297 36.6663 12.9491 36.6663H27.0456C30.0917 36.6663 31.6148 36.6663 32.734 36.056C33.7172 35.5198 34.4919 34.6691 34.9339 33.6401C35.4372 32.4689 35.295 30.9524 35.0107 27.9196L34.0107 17.253C33.7706 14.6919 33.6505 13.4114 33.0746 12.4433C32.5673 11.5906 31.8179 10.9082 30.9217 10.4827C29.904 9.99968 28.6179 9.99968 26.0456 9.99968L13.9491 9.99968C11.3768 9.99968 10.0907 9.99967 9.07306 10.4827C8.1768 10.9082 7.42737 11.5906 6.92013 12.4433C6.34418 13.4114 6.22413 14.6919 5.98403 17.253Z" stroke="#3D3E40" stroke-width="1.5" stroke-linecap="round" stroke-linejoin="round"/>
<path d="M13.5408 23.333C14.2808 26.2084 16.891 28.333 19.9974 28.333C23.1038 28.333 25.714 26.2084 26.454 23.333" stroke="#3D3E40" stroke-width="1.5" stroke-linecap="round" stroke-linejoin="round"/>
</svg>
