<svg width="24" height="24" viewBox="0 0 24 24" fill="none" xmlns="http://www.w3.org/2000/svg">
<path fill-rule="evenodd" clip-rule="evenodd" d="M1.26053 12.0121C1.35991 12.383 1.74159 12.6033 2.1125 12.5039C3.2252 12.2058 4.37024 12.8669 4.66839 13.9796C4.96653 15.0923 4.30544 16.2373 3.19274 16.5355C2.82184 16.6348 2.60148 17.0165 2.70086 17.3874L3.42102 20.0751C3.56434 20.61 3.91404 21.0658 4.39351 21.342C4.87249 21.6191 5.44206 21.6941 5.97691 21.5508C9.44 20.6228 18.64 18.1577 22.1031 17.2298C22.6379 17.0865 23.0937 16.7368 23.3699 16.2573C23.6471 15.7783 23.722 15.2087 23.5787 14.6739L22.8585 11.9862C22.7591 11.6153 22.3775 11.3949 22.0066 11.4943C20.8939 11.7925 19.7488 11.1314 19.4507 10.0187C19.1525 8.90597 19.8136 7.76093 20.9263 7.46278C21.2972 7.3634 21.5176 6.98172 21.4182 6.61082L20.698 3.92313C20.5547 3.38828 20.205 2.9325 19.7256 2.65624C19.2466 2.37913 18.677 2.30417 18.1421 2.44749C14.6791 3.37542 5.4791 5.84054 2.01601 6.76847C1.48116 6.91178 1.02538 7.26148 0.74912 7.74096C0.472011 8.21994 0.397055 8.78951 0.540367 9.32436L1.26053 12.0121ZM2.44234 11.0472L1.88421 8.96428C1.8365 8.78622 1.86114 8.59598 1.9538 8.43648C2.0456 8.27649 2.19803 8.16003 2.37609 8.11232L18.5022 3.79133C18.6803 3.74362 18.8705 3.76826 19.03 3.86091C19.19 3.95272 19.3065 4.10515 19.3542 4.28321L19.9123 6.36617C18.4632 7.08862 17.6717 8.75472 18.1068 10.3788C18.542 12.0028 20.0605 13.0499 21.6767 12.951L22.2349 15.034C22.2826 15.212 22.2579 15.4023 22.1653 15.5618C22.0735 15.7218 21.921 15.8382 21.743 15.8859L5.61683 20.2069C5.43877 20.2546 5.24853 20.23 5.08903 20.1373C4.92904 20.0455 4.81258 19.8931 4.76487 19.715L4.20674 17.6321C5.65586 16.9096 6.44739 15.2435 6.01223 13.6195C5.57707 11.9955 4.05853 10.9483 2.44234 11.0472Z" fill="#3D3E40"/>
<path fill-rule="evenodd" clip-rule="evenodd" d="M14.9301 11.9501C13.8174 12.2483 13.1563 13.3933 13.4544 14.506C13.7526 15.6187 14.8976 16.2798 16.0103 15.9816C17.123 15.6835 17.7841 14.5385 17.486 13.4258C17.1878 12.3131 16.0428 11.652 14.9301 11.9501ZM15.2902 13.294C15.6611 13.1946 16.0427 13.4149 16.1421 13.7858C16.2415 14.1567 16.0211 14.5384 15.6502 14.6378C15.2793 14.7372 14.8977 14.5168 14.7983 14.1459C14.6989 13.775 14.9193 13.3933 15.2902 13.294Z" fill="#3D3E40"/>
<path fill-rule="evenodd" clip-rule="evenodd" d="M8.11562 8.01652C7.00292 8.31467 6.34183 9.4597 6.63998 10.5724C6.93812 11.6851 8.08316 12.3462 9.19587 12.0481C10.3086 11.7499 10.9697 10.6049 10.6715 9.49216C10.3734 8.37946 9.22832 7.71837 8.11562 8.01652ZM8.4757 9.36036C8.8466 9.26098 9.22828 9.48134 9.32767 9.85224C9.42705 10.2231 9.20669 10.6048 8.83579 10.7042C8.46488 10.8036 8.0832 10.5832 7.98382 10.2123C7.88444 9.84142 8.1048 9.45974 8.4757 9.36036Z" fill="#3D3E40"/>
<path fill-rule="evenodd" clip-rule="evenodd" d="M9.71434 17.4584L15.5692 7.31746C15.761 6.98519 15.6469 6.5592 15.3146 6.36736C14.9824 6.17553 14.5564 6.28967 14.3645 6.62194L8.50966 16.7629C8.31783 17.0951 8.43197 17.5211 8.76424 17.713C9.0965 17.9048 9.5225 17.7906 9.71434 17.4584Z" fill="#3D3E40"/>
</svg>
