<svg width="16" height="16" viewBox="0 0 16 16" fill="none" xmlns="http://www.w3.org/2000/svg">
<path d="M4 3.99992L2 4V13.3333C2 13.687 2.14048 14.0261 2.39052 14.2761C2.64057 14.5262 2.97971 14.6667 3.33333 14.6667H12.6667C13.0203 14.6667 13.3594 14.5262 13.6095 14.2761C13.8595 14.0261 14 13.687 14 13.3333V4L12 4L4 3.99992Z" stroke="black" stroke-linecap="round" stroke-linejoin="round"/>
<path d="M2 4H14" stroke="black" stroke-linecap="round" stroke-linejoin="round"/>
<path d="M5.50022 5.21887C5.50022 4.51163 5.61483 2.5001 6.11493 2C6.61503 1.4999 7.29331 1.21895 8.00055 1.21895C8.70779 1.21895 9.38607 1.4999 9.88617 2C10.3863 2.5001 10.5 4.51163 10.5 5.21887" stroke="black" stroke-linecap="round" stroke-linejoin="round"/>
</svg>
