<svg width="16" height="16" viewBox="0 0 16 16" fill="none" xmlns="http://www.w3.org/2000/svg">
<g clip-path="url(#clip0_107_378)">
<path d="M6.00065 14.6666C6.36884 14.6666 6.66732 14.3681 6.66732 13.9999C6.66732 13.6317 6.36884 13.3333 6.00065 13.3333C5.63246 13.3333 5.33398 13.6317 5.33398 13.9999C5.33398 14.3681 5.63246 14.6666 6.00065 14.6666Z" stroke="black" stroke-linecap="round" stroke-linejoin="round"/>
<path d="M13.3337 14.6666C13.7018 14.6666 14.0003 14.3681 14.0003 13.9999C14.0003 13.6317 13.7018 13.3333 13.3337 13.3333C12.9655 13.3333 12.667 13.6317 12.667 13.9999C12.667 14.3681 12.9655 14.6666 13.3337 14.6666Z" stroke="black" stroke-linecap="round" stroke-linejoin="round"/>
<path d="M0.666992 0.666748H3.33366L5.12033 9.59342C5.18129 9.90035 5.34826 10.1761 5.59202 10.3723C5.83578 10.5685 6.14079 10.6727 6.45366 10.6667H12.9337C13.2465 10.6727 13.5515 10.5685 13.7953 10.3723C14.0391 10.1761 14.206 9.90035 14.267 9.59342L15.3337 4.00008H4.00033" stroke="black" stroke-linecap="round" stroke-linejoin="round"/>
</g>
<defs>
<clipPath id="clip0_107_378">
<rect width="16" height="16" fill="white"/>
</clipPath>
</defs>
</svg>
