<svg width="32" height="32" viewBox="0 0 32 32" fill="none" xmlns="http://www.w3.org/2000/svg">
<path d="M5.93781 28.3178L5.93757 28.3177C5.33514 27.9706 4.8957 27.3979 4.71559 26.7257L3.75537 23.1422C3.64573 22.733 3.88889 22.3118 4.29807 22.2022C5.86703 21.7818 6.79914 20.1673 6.37874 18.5983C5.95834 17.0294 4.34388 16.0973 2.77492 16.5177C2.36574 16.6273 1.94457 16.3842 1.83493 15.975L0.874712 12.3914C0.694605 11.7192 0.788827 11.0035 1.13699 10.4017L1.13714 10.4015C1.48423 9.79905 2.05693 9.35961 2.7291 9.1795L2.75624 9.17223L2.78356 9.16491L2.81105 9.15754L2.83872 9.15013L2.86655 9.14267L2.89456 9.13517L2.92274 9.12762L2.95109 9.12002L2.97961 9.11238L3.00829 9.10469L3.03715 9.09696L3.06617 9.08918L3.09536 9.08136L3.12472 9.0735L3.15424 9.06558L3.18393 9.05763L3.21378 9.04963L3.24379 9.04159L3.27397 9.0335L3.30431 9.02537L3.33481 9.0172L3.36547 9.00899L3.39629 9.00073L3.42728 8.99243L3.45841 8.98408L3.48971 8.9757L3.52117 8.96727L3.55278 8.9588L3.58455 8.95029L3.61647 8.94173L3.64854 8.93314L3.68078 8.9245L3.71316 8.91582L3.7457 8.9071L3.77838 8.89835L3.81122 8.88955L3.84421 8.88071L3.87735 8.87183L3.91064 8.86291L3.94408 8.85395L3.97767 8.84495L4.0114 8.83591L4.04528 8.82683L4.0793 8.81772L4.11347 8.80856L4.14778 8.79937L4.18224 8.79013L4.21684 8.78086L4.25158 8.77155L4.28647 8.76221L4.32149 8.75282L4.35665 8.7434L4.39196 8.73394L4.4274 8.72444L4.46298 8.71491L4.4987 8.70534L4.53456 8.69573L4.57055 8.68609L4.60668 8.67641L4.64294 8.66669L4.67933 8.65694L4.71586 8.64715L4.75253 8.63733L4.78932 8.62747L4.82624 8.61757L4.8633 8.60764L4.90049 8.59768L4.9378 8.58768L4.97524 8.57765L5.01282 8.56758L5.05051 8.55748L5.08834 8.54734L5.12629 8.53718L5.16437 8.52697L5.20257 8.51674L5.24089 8.50647L5.27934 8.49617L5.31791 8.48583L5.3566 8.47546L5.39541 8.46506L5.43435 8.45463L5.4734 8.44417L5.51257 8.43367L5.55186 8.42314L5.59127 8.41259L5.63079 8.40199L5.67043 8.39137L5.71019 8.38072L5.75006 8.37004L5.79005 8.35932L5.83015 8.34858L5.87036 8.3378L5.91068 8.327L5.95112 8.31616L5.99166 8.3053L6.03232 8.29441L6.07309 8.28348L6.11396 8.27253L6.15494 8.26155L6.19603 8.25054L6.23723 8.2395L6.27853 8.22843L6.31994 8.21734L6.36145 8.20622L6.40307 8.19506L6.44479 8.18389L6.48661 8.17268L6.52854 8.16145L6.57056 8.15018L6.61269 8.1389L6.65491 8.12758L6.69724 8.11624L6.73966 8.10487L6.78218 8.09348L6.8248 8.08206L6.86752 8.07062L6.91033 8.05914L6.95323 8.04765L6.99623 8.03613L7.03933 8.02458L7.08252 8.01301L7.12579 8.00141L7.16917 7.98979L7.21263 7.97814L7.25618 7.96647L7.29982 7.95478L7.34355 7.94306L7.38737 7.93132L7.43128 7.91956L7.47527 7.90777L7.51935 7.89596L7.56351 7.88412L7.60776 7.87227L7.6521 7.86039L7.69651 7.84849L7.74101 7.83656L7.7856 7.82462L7.83026 7.81265L7.875 7.80066L7.91983 7.78865L7.96473 7.77662L8.00971 7.76457L8.05477 7.75249L8.09991 7.7404L8.14512 7.72828L8.19041 7.71615L8.23578 7.70399L8.28122 7.69182L8.32673 7.67962L8.37232 7.66741L8.41798 7.65517L8.46371 7.64292L8.50951 7.63065L8.55538 7.61835L8.60132 7.60604L8.64734 7.59371L8.69342 7.58137L8.73956 7.569L8.78578 7.55662L8.83206 7.54422L8.8784 7.5318L8.92482 7.51936L8.97129 7.50691L9.01783 7.49444L9.06443 7.48195L9.1111 7.46945L9.15782 7.45693L9.20461 7.44439L9.25146 7.43184L9.29836 7.41927L9.34533 7.40669L9.39235 7.39409L9.43943 7.38147L9.48657 7.36884L9.53376 7.3562L9.58101 7.34354L9.62832 7.33086L9.67567 7.31817L9.72309 7.30547L9.77055 7.29275L9.81807 7.28002L9.86563 7.26727L9.91325 7.25451L9.96092 7.24174L10.0086 7.22896L10.0564 7.21616L10.1042 7.20335L10.1521 7.19052L10.2 7.17768L10.2479 7.16484L10.2959 7.15197L10.344 7.1391L10.3921 7.12622L10.4402 7.11332L10.4884 7.10041L10.5366 7.08749L10.5848 7.07456L10.6331 7.06162L10.6815 7.04867L10.7298 7.03571L10.7782 7.02274L10.8267 7.00976L10.8752 6.99677L10.9237 6.98376L10.9723 6.97075L11.0209 6.95773L11.0695 6.9447L11.1181 6.93166L11.1668 6.91862L11.2156 6.90556L11.2643 6.8925L11.3131 6.87942L11.3619 6.86634L11.4108 6.85325L11.4596 6.84016L11.5086 6.82705L11.5575 6.81394L11.6064 6.80083L11.6554 6.7877L11.7044 6.77457L11.7535 6.76143L11.8025 6.74828L11.8516 6.73513L11.9007 6.72198L11.9498 6.70881L11.999 6.69564L12.0482 6.68247L12.0973 6.66929L12.1465 6.6561L12.1958 6.64291L12.245 6.62972L12.2943 6.61652L12.3435 6.60332L12.3928 6.59011L12.4421 6.5769L12.4915 6.56368L12.5408 6.55046L12.5902 6.53724L12.6395 6.52401L12.6889 6.51079L12.7383 6.49755L12.7877 6.48432L12.8371 6.47108L12.8865 6.45784L12.9359 6.4446L12.9853 6.43135L13.0348 6.41811L13.0842 6.40486L13.1336 6.39161L13.1831 6.37836L13.2325 6.36511L13.282 6.35186L13.3315 6.33861L13.3809 6.32535L13.4304 6.3121L13.4799 6.29884L13.5293 6.28559L13.5788 6.27234L13.6282 6.25908L13.6777 6.24583L13.7272 6.23258L13.7766 6.21933L13.8261 6.20608L13.8755 6.19283L13.925 6.17958L13.9744 6.16633L14.0238 6.15309L14.0732 6.13985L14.1227 6.12661L14.1721 6.11337L14.2214 6.10014L14.2708 6.0869L14.3202 6.07367L14.3696 6.06045L14.4189 6.04723L14.4682 6.03401L14.5176 6.02079L14.5669 6.00758L14.6162 5.99437L14.6654 5.98117L14.7147 5.96797L14.7639 5.95477L14.8132 5.94158L14.8624 5.9284L14.9116 5.91522L14.9607 5.90205L15.0099 5.88888L15.059 5.87571L15.1081 5.86256L15.1572 5.8494L15.2062 5.83626L15.2553 5.82312L15.3043 5.80999L15.3533 5.79686L15.4022 5.78375L15.4512 5.77063L15.5001 5.75753L15.5489 5.74443L15.5978 5.73135L15.6466 5.71826L15.6954 5.70519L15.7442 5.69213L15.7929 5.67907L15.8416 5.66602L15.8902 5.65299L15.9389 5.63996L15.9875 5.62694L16.036 5.61392L16.0845 5.60092L16.133 5.58793L16.1815 5.57495L16.2299 5.56198L16.2783 5.54902L16.3266 5.53606L16.3749 5.52312L16.4231 5.51019L16.4714 5.49728L16.5195 5.48437L16.5677 5.47147L16.6157 5.45859L16.6638 5.44571L16.7118 5.43285L16.7597 5.42L16.8076 5.40717L16.8555 5.39434L16.9033 5.38153L16.9511 5.36873L16.9988 5.35595L17.0465 5.34317L17.0941 5.33042L17.1416 5.31767L17.1892 5.30494L17.2366 5.29222L17.284 5.27952L17.3314 5.26683L17.3787 5.25415L17.426 5.24149L17.4731 5.22885L17.5203 5.21622L17.5674 5.2036L17.6144 5.191L17.6614 5.17842L17.7083 5.16585L17.7551 5.1533L17.8019 5.14076L17.8486 5.12824L17.8953 5.11573L17.9419 5.10325L17.9884 5.09078L18.0349 5.07832L18.0813 5.06589L18.1277 5.05347L18.1739 5.04107L18.2202 5.02869L18.2663 5.01632L18.3124 5.00397L18.3584 4.99165L18.4043 4.97934L18.4502 4.96704L18.496 4.95477L18.5417 4.94252L18.5874 4.93028L18.633 4.91807L18.6785 4.90587L18.7239 4.8937L18.7693 4.88154L18.8146 4.86941L18.8598 4.85729L18.9049 4.8452L18.95 4.83312L18.995 4.82107L19.0399 4.80904L19.0847 4.79703L19.1295 4.78504L19.1741 4.77307L19.2187 4.76113L19.2632 4.7492L19.3076 4.7373L19.352 4.72542L19.3962 4.71356L19.4404 4.70173L19.4844 4.68992L19.5284 4.67813L19.5723 4.66637L19.6162 4.65463L19.6599 4.64291L19.7035 4.63121L19.7471 4.61955L19.7906 4.6079L19.8339 4.59628L19.8772 4.58468L19.9204 4.57311L19.9635 4.56156L20.0065 4.55004L20.0494 4.53854L20.0922 4.52707L20.1349 4.51563L20.1775 4.50421L20.2201 4.49281L20.2625 4.48145L20.3048 4.47011L20.347 4.45879L20.3892 4.4475L20.4312 4.43624L20.4731 4.42501L20.5149 4.4138L20.5566 4.40262L20.5983 4.39147L20.6398 4.38035L20.6812 4.36926L20.7225 4.35819L20.7637 4.34715L20.8048 4.33614L20.8458 4.32516L20.8866 4.31421L20.9274 4.30328L20.9681 4.29239L21.0086 4.28152L21.049 4.27069L21.0894 4.25989L21.1296 4.24911L21.1697 4.23837L21.2097 4.22765L21.2495 4.21697L21.2893 4.20632L21.3289 4.19569L21.3684 4.1851L21.4079 4.17454L21.4471 4.16402L21.4863 4.15352L21.5254 4.14306L21.5643 4.13262L21.6031 4.12222L21.6418 4.11186L21.6804 4.10152L21.7188 4.09122L21.7571 4.08095L21.7953 4.07072L21.8334 4.06051L21.8714 4.05034L21.9092 4.04021L21.9469 4.03011L21.9845 4.02004L22.0219 4.01001L22.0592 4.00001L22.0964 3.99004L22.1335 3.98012L22.1704 3.97022L22.2072 3.96036L22.2439 3.95054L22.2804 3.94075L22.3168 3.931L22.353 3.92128L22.3892 3.9116L22.4252 3.90196L22.461 3.89235L22.4967 3.88278L22.5323 3.87325L22.5678 3.86375L22.6031 3.85429L22.6382 3.84487L22.6733 3.83548L22.7081 3.82614L22.7429 3.81683L22.7775 3.80756L22.8119 3.79832L22.8462 3.78913L22.8804 3.77997L22.9144 3.77086L22.9483 3.76178L22.982 3.75274L23.0156 3.74374L23.0491 3.73478L23.0824 3.72586L23.1155 3.71698L23.1485 3.70814L23.1813 3.69934L23.214 3.69058L23.2466 3.68187L23.2789 3.67319L23.3112 3.66455L23.3432 3.65596L23.3752 3.6474L23.4069 3.63889L23.4385 3.63042L23.47 3.62199L23.5013 3.61361L23.5324 3.60526L23.5634 3.59696L23.5942 3.5887L23.6249 3.58049L23.6554 3.57232L23.6857 3.56419L23.7159 3.5561L23.7459 3.54806L23.7758 3.54006L23.8055 3.5321L23.835 3.52419L23.8644 3.51633L23.8935 3.50851L23.9226 3.50073L23.9514 3.493L23.9801 3.48531L24.0086 3.47767L24.037 3.47007L24.0652 3.46252L24.0932 3.45502L24.121 3.44756L24.1487 3.44015L24.1762 3.43278L24.2035 3.42546L24.2306 3.41819C24.9028 3.23808 25.6185 3.3323 26.2203 3.68047L26.2205 3.68061C26.823 4.02771 27.2624 4.60041 27.4425 5.27258L28.4027 8.85616C28.5124 9.26534 28.2692 9.68651 27.86 9.79615C26.2911 10.2166 25.359 11.831 25.7794 13.4C26.1998 14.9689 27.8142 15.901 29.3832 15.4806C29.7924 15.371 30.2135 15.6142 30.3232 16.0233L31.2834 19.6069C31.4635 20.2791 31.3693 20.9948 31.0211 21.5966L31.021 21.5968C30.6739 22.1993 30.1012 22.6387 29.429 22.8188L29.4019 22.8261L29.3745 22.8334L29.347 22.8408L29.3194 22.8482L29.2915 22.8556L29.2635 22.8632L29.2354 22.8707L29.207 22.8783L29.1785 22.8859L29.1498 22.8936L29.1209 22.9014L29.0919 22.9091L29.0627 22.917L29.0334 22.9248L29.0039 22.9327L28.9742 22.9407L28.9443 22.9487L28.9143 22.9567L28.8841 22.9648L28.8538 22.9729L28.8233 22.9811L28.7926 22.9893L28.7618 22.9976L28.7308 23.0059L28.6997 23.0142L28.6684 23.0226L28.6369 23.031L28.6053 23.0395L28.5736 23.048L28.5416 23.0566L28.5096 23.0652L28.4773 23.0738L28.4449 23.0825L28.4124 23.0912L28.3797 23.1L28.3469 23.1088L28.3139 23.1176L28.2807 23.1265L28.2475 23.1354L28.214 23.1444L28.1804 23.1534L28.1467 23.1624L28.1128 23.1715L28.0788 23.1806L28.0446 23.1898L28.0103 23.199L27.9759 23.2082L27.9413 23.2175L27.9065 23.2268L27.8716 23.2361L27.8366 23.2455L27.8014 23.2549L27.7661 23.2644L27.7307 23.2739L27.6951 23.2834L27.6594 23.293L27.6235 23.3026L27.5875 23.3122L27.5514 23.3219L27.5152 23.3316L27.4788 23.3414L27.4422 23.3512L27.4056 23.361L27.3688 23.3708L27.3319 23.3807L27.2948 23.3907L27.2576 23.4006L27.2203 23.4106L27.1829 23.4207L27.1453 23.4307L27.1076 23.4408L27.0698 23.451L27.0318 23.4611L26.9937 23.4713L26.9555 23.4816L26.9172 23.4918L26.8788 23.5022L26.8402 23.5125L26.8015 23.5229L26.7627 23.5333L26.7238 23.5437L26.6847 23.5541L26.6455 23.5646L26.6062 23.5752L26.5668 23.5857L26.5273 23.5963L26.4877 23.6069L26.4479 23.6176L26.408 23.6283L26.3681 23.639L26.328 23.6497L26.2877 23.6605L26.2474 23.6713L26.207 23.6822L26.1664 23.693L26.1258 23.7039L26.085 23.7148L26.0441 23.7258L26.0032 23.7368L25.9621 23.7478L25.9209 23.7588L25.8796 23.7699L25.8382 23.781L25.7966 23.7921L25.755 23.8033L25.7133 23.8144L25.6715 23.8256L25.6296 23.8369L25.5875 23.8481L25.5454 23.8594L25.5032 23.8707L25.4609 23.8821L25.4184 23.8934L25.3759 23.9048L25.3333 23.9163L25.2906 23.9277L25.2478 23.9392L25.2049 23.9507L25.1619 23.9622L25.1188 23.9737L25.0756 23.9853L25.0323 23.9969L24.9889 24.0085L24.9455 24.0202L24.9019 24.0318L24.8583 24.0435L24.8145 24.0553L24.7707 24.067L24.7268 24.0788L24.6828 24.0905L24.6387 24.1024L24.5946 24.1142L24.5503 24.126L24.506 24.1379L24.4616 24.1498L24.4171 24.1618L24.3725 24.1737L24.3278 24.1857L24.2831 24.1977L24.2383 24.2097L24.1934 24.2217L24.1484 24.2338L24.1033 24.2458L24.0582 24.2579L24.013 24.27L23.9677 24.2822L23.9223 24.2943L23.8769 24.3065L23.8314 24.3187L23.7858 24.3309L23.7401 24.3431L23.6944 24.3554L23.6486 24.3677L23.6027 24.38L23.5568 24.3923L23.5108 24.4046L23.4647 24.4169L23.4185 24.4293L23.3723 24.4417L23.326 24.4541L23.2797 24.4665L23.2333 24.479L23.1868 24.4914L23.1403 24.5039L23.0937 24.5164L23.047 24.5289L23.0003 24.5414L22.9535 24.5539L22.9066 24.5665L22.8597 24.579L22.8128 24.5916L22.7657 24.6042L22.7187 24.6168L22.6715 24.6295L22.6243 24.6421L22.5771 24.6548L22.5298 24.6675L22.4824 24.6801L22.435 24.6928L22.3875 24.7056L22.34 24.7183L22.2925 24.731L22.2448 24.7438L22.1972 24.7566L22.1495 24.7694L22.1017 24.7822L22.0539 24.795L22.006 24.8078L21.9581 24.8206L21.9102 24.8335L21.8622 24.8463L21.8141 24.8592L21.766 24.8721L21.7179 24.885L21.6697 24.8979L21.6215 24.9108L21.5733 24.9238L21.525 24.9367L21.4766 24.9496L21.4283 24.9626L21.3799 24.9756L21.3314 24.9886L21.2829 25.0016L21.2344 25.0146L21.1858 25.0276L21.1372 25.0406L21.0886 25.0536L21.04 25.0667L20.9913 25.0797L20.9425 25.0928L20.8938 25.1058L20.845 25.1189L20.7962 25.132L20.7473 25.1451L20.6985 25.1582L20.6495 25.1713L20.6006 25.1844L20.5517 25.1975L20.5027 25.2106L20.4537 25.2237L20.4046 25.2369L20.3556 25.25L20.3065 25.2632L20.2574 25.2763L20.2083 25.2895L20.1591 25.3027L20.1099 25.3158L20.0608 25.329L20.0116 25.3422L19.9623 25.3554L19.9131 25.3686L19.8638 25.3818L19.8145 25.395L19.7653 25.4082L19.716 25.4214L19.6666 25.4346L19.6173 25.4479L19.5679 25.4611L19.5186 25.4743L19.4692 25.4875L19.4198 25.5008L19.3704 25.514L19.321 25.5272L19.2716 25.5405L19.2222 25.5537L19.1728 25.567L19.1233 25.5802L19.0739 25.5935L19.0245 25.6067L18.975 25.62L18.9256 25.6332L18.8761 25.6465L18.8266 25.6597L18.7772 25.673L18.7277 25.6862L18.6782 25.6995L18.6288 25.7127L18.5793 25.726L18.5298 25.7392L18.4804 25.7525L18.4309 25.7657L18.3815 25.779L18.332 25.7922L18.2826 25.8055L18.2331 25.8187L18.1837 25.832L18.1343 25.8452L18.0849 25.8585L18.0354 25.8717L17.986 25.8849L17.9366 25.8982L17.8873 25.9114L17.8379 25.9246L17.7885 25.9379L17.7392 25.9511L17.6899 25.9643L17.6405 25.9775L17.5912 25.9907L17.5419 26.0039L17.4927 26.0171L17.4434 26.0303L17.3942 26.0435L17.3449 26.0567L17.2957 26.0699L17.2465 26.0831L17.1974 26.0963L17.1482 26.1094L17.0991 26.1226L17.05 26.1358L17.0009 26.1489L16.9519 26.1621L16.9028 26.1752L16.8538 26.1883L16.8048 26.2015L16.7559 26.2146L16.7069 26.2277L16.658 26.2408L16.6092 26.2539L16.5603 26.267L16.5115 26.2801L16.4627 26.2931L16.4139 26.3062L16.3652 26.3192L16.3165 26.3323L16.2679 26.3453L16.2192 26.3584L16.1706 26.3714L16.1221 26.3844L16.0736 26.3974L16.0251 26.4104L15.9766 26.4234L15.9282 26.4363L15.8798 26.4493L15.8315 26.4623L15.7832 26.4752L15.735 26.4881L15.6867 26.501L15.6386 26.5139L15.5904 26.5268L15.5424 26.5397L15.4943 26.5526L15.4463 26.5655L15.3984 26.5783L15.3505 26.5911L15.3026 26.604L15.2548 26.6168L15.207 26.6296L15.1593 26.6424L15.1116 26.6551L15.064 26.6679L15.0164 26.6806L14.9689 26.6934L14.9215 26.7061L14.8741 26.7188L14.8267 26.7315L14.7794 26.7442L14.7321 26.7568L14.685 26.7695L14.6378 26.7821L14.5907 26.7947L14.5437 26.8073L14.4967 26.8199L14.4498 26.8325L14.403 26.845L14.3562 26.8576L14.3095 26.8701L14.2628 26.8826L14.2162 26.8951L14.1697 26.9075L14.1232 26.92L14.0768 26.9324L14.0304 26.9448L13.9842 26.9572L13.9379 26.9696L13.8918 26.982L13.8457 26.9943L13.7997 27.0067L13.7538 27.019L13.7079 27.0313L13.6621 27.0435L13.6164 27.0558L13.5707 27.068L13.5251 27.0802L13.4796 27.0924L13.4342 27.1046L13.3888 27.1168L13.3435 27.1289L13.2983 27.141L13.2532 27.1531L13.2081 27.1652L13.1631 27.1772L13.1182 27.1893L13.0734 27.2013L13.0286 27.2133L12.984 27.2252L12.9394 27.2372L12.8949 27.2491L12.8505 27.261L12.8061 27.2729L12.7619 27.2848L12.7177 27.2966L12.6737 27.3084L12.6297 27.3202L12.5858 27.3319L12.5419 27.3437L12.4982 27.3554L12.4546 27.3671L12.411 27.3788L12.3675 27.3904L12.3242 27.402L12.2809 27.4136L12.2377 27.4252L12.1946 27.4368L12.1516 27.4483L12.1087 27.4598L12.0659 27.4712L12.0232 27.4827L11.9806 27.4941L11.938 27.5055L11.8956 27.5169L11.8533 27.5282L11.8111 27.5395L11.7689 27.5508L11.7269 27.5621L11.685 27.5733L11.6432 27.5845L11.6015 27.5957L11.5598 27.6068L11.5183 27.618L11.4769 27.6291L11.4356 27.6401L11.3944 27.6512L11.3533 27.6622L11.3123 27.6732L11.2715 27.6841L11.2307 27.695L11.19 27.7059L11.1495 27.7168L11.1091 27.7276L11.0687 27.7384L11.0285 27.7492L10.9884 27.76L10.9484 27.7707L10.9086 27.7813L10.8688 27.792L10.8292 27.8026L10.7897 27.8132L10.7502 27.8238L10.711 27.8343L10.6718 27.8448L10.6327 27.8553L10.5938 27.8657L10.555 27.8761L10.5163 27.8865L10.4777 27.8968L10.4393 27.9071L10.4009 27.9174L10.3627 27.9276L10.3247 27.9378L10.2867 27.948L10.2489 27.9581L10.2112 27.9682L10.1736 27.9783L10.1362 27.9883L10.0989 27.9983L10.0617 28.0083L10.0246 28.0182L9.9877 28.0281L9.95091 28.038L9.91425 28.0478L9.87772 28.0576L9.84132 28.0673L9.80506 28.077L9.76893 28.0867L9.73294 28.0964L9.69709 28.106L9.66137 28.1155L9.62579 28.1251L9.59034 28.1346L9.55504 28.144L9.51987 28.1534L9.48485 28.1628L9.44996 28.1722L9.41522 28.1815L9.38062 28.1908L9.34617 28.2L9.31185 28.2092L9.27768 28.2183L9.24366 28.2275L9.20978 28.2365L9.17605 28.2456L9.14246 28.2546L9.10903 28.2635L9.07574 28.2725L9.0426 28.2813L9.00961 28.2902L8.97677 28.299L8.94408 28.3077L8.91154 28.3165L8.87916 28.3251L8.84693 28.3338L8.81485 28.3424L8.78293 28.3509L8.75116 28.3594L8.71955 28.3679L8.68809 28.3763L8.6568 28.3847L8.62566 28.3931L8.59468 28.4014L8.56386 28.4096L8.53319 28.4178L8.50269 28.426L8.47235 28.4341L8.44218 28.4422L8.41216 28.4503L8.38231 28.4583L8.35262 28.4662L8.3231 28.4741L8.29375 28.482L8.26456 28.4898L8.23553 28.4976L8.20668 28.5053L8.17799 28.513L8.14947 28.5206L8.12112 28.5282L8.09294 28.5358L8.06493 28.5433L8.0371 28.5508L8.00943 28.5582L7.98194 28.5655L7.95463 28.5729L7.92748 28.5801C7.25531 28.7602 6.53962 28.666 5.93781 28.3178ZM3.10158 14.7714L3.13541 14.8977L3.2659 14.8897C5.34646 14.7624 7.30131 16.1107 7.86143 18.2011C8.42155 20.2915 7.40275 22.4366 5.53728 23.3666L5.42028 23.4249L5.45412 23.5512L6.19829 26.3285C6.27274 26.6063 6.45446 26.8446 6.70468 26.9885C6.95451 27.1336 7.25204 27.172 7.5302 27.0974L29.0317 21.3361C29.3097 21.2616 29.5481 21.0798 29.6919 20.8294C29.8369 20.5796 29.8752 20.2822 29.8007 20.0042L29.0565 17.2269L29.0227 17.1007L28.8922 17.1086C26.8116 17.236 24.8568 15.8877 24.2967 13.7973C23.7365 11.7069 24.7553 9.56177 26.6208 8.63175L26.7378 8.57342L26.704 8.44714L25.9598 5.66986C25.8854 5.39199 25.7036 5.1537 25.4534 5.00986C25.2036 4.86473 24.9061 4.82635 24.6279 4.90088L3.12639 10.6622C2.84837 10.7367 2.60999 10.9185 2.46617 11.169C2.32122 11.4187 2.28292 11.7161 2.35741 11.9941L3.10158 14.7714Z" fill="#3D3E40" stroke="#FDFBF8" stroke-width="0.32"/>
<path d="M18.0935 19.3002C17.7188 17.902 18.5496 16.463 19.9479 16.0883C21.3461 15.7137 22.7851 16.5445 23.1597 17.9427C23.5344 19.341 22.7036 20.7799 21.3054 21.1546C19.9071 21.5293 18.4681 20.6985 18.0935 19.3002ZM21.677 18.34C21.5217 17.7601 20.925 17.4156 20.3451 17.571C19.7652 17.7264 19.4208 18.323 19.5762 18.9029C19.7315 19.4828 20.3282 19.8273 20.9081 19.6719C21.488 19.5165 21.8324 18.9199 21.677 18.34Z" fill="#3D3E40" stroke="#FDFBF8" stroke-width="0.32"/>
<path d="M9.00752 14.0555C8.63286 12.6572 9.46366 11.2182 10.8619 10.8436C12.2602 10.4689 13.6991 11.2997 14.0738 12.698C14.4485 14.0962 13.6177 15.5352 12.2194 15.9098C10.8212 16.2845 9.38218 15.4537 9.00752 14.0555ZM12.5911 13.0952C12.4357 12.5153 11.8391 12.1709 11.2592 12.3263C10.6793 12.4816 10.3348 13.0783 10.4902 13.6582C10.6456 14.2381 11.2422 14.5825 11.8221 14.4272C12.402 14.2718 12.7465 13.6751 12.5911 13.0952Z" fill="#3D3E40" stroke="#FDFBF8" stroke-width="0.32"/>
<path d="M20.62 9.67694L12.8136 23.1982C12.602 23.5647 12.1318 23.6906 11.7653 23.479C11.3988 23.2674 11.2729 22.7973 11.4845 22.4308L19.2909 8.90958C19.5025 8.54309 19.9727 8.41711 20.3392 8.62871C20.7057 8.8403 20.8316 9.31044 20.62 9.67694Z" fill="#3D3E40" stroke="#FDFBF8" stroke-width="0.32"/>
</svg>
