<svg width="18" height="18" viewBox="0 0 18 18" fill="none" xmlns="http://www.w3.org/2000/svg">
<path d="M8.70166 1C6.53066 1 6.25766 1.01 5.40466 1.048C4.55166 1.088 3.97066 1.222 3.46166 1.42C2.92775 1.62082 2.44415 1.93583 2.04466 2.343C1.63774 2.7427 1.32277 3.22624 1.12166 3.76C0.92366 4.268 0.78866 4.85 0.74966 5.7C0.71166 6.555 0.70166 6.827 0.70166 9.001C0.70166 11.173 0.71166 11.445 0.74966 12.298C0.78966 13.15 0.92366 13.731 1.12166 14.24C1.32666 14.766 1.59966 15.212 2.04466 15.657C2.48866 16.102 2.93466 16.376 3.46066 16.58C3.97066 16.778 4.55066 16.913 5.40266 16.952C6.25666 16.99 6.52866 17 8.70166 17C10.8747 17 11.1457 16.99 11.9997 16.952C12.8507 16.912 13.4337 16.778 13.9427 16.58C14.4762 16.3791 14.9595 16.0641 15.3587 15.657C15.8037 15.212 16.0767 14.766 16.2817 14.24C16.4787 13.731 16.6137 13.15 16.6537 12.298C16.6917 11.445 16.7017 11.173 16.7017 9C16.7017 6.827 16.6917 6.555 16.6537 5.701C16.6137 4.85 16.4787 4.268 16.2817 3.76C16.0806 3.22623 15.7656 2.74268 15.3587 2.343C14.9593 1.93568 14.4757 1.62065 13.9417 1.42C13.4317 1.222 12.8497 1.087 11.9987 1.048C11.1447 1.01 10.8737 1 8.69966 1H8.70266H8.70166ZM7.98466 2.442H8.70266C10.8387 2.442 11.0917 2.449 11.9347 2.488C12.7147 2.523 13.1387 2.654 13.4207 2.763C13.7937 2.908 14.0607 3.082 14.3407 3.362C14.6207 3.642 14.7937 3.908 14.9387 4.282C15.0487 4.563 15.1787 4.987 15.2137 5.767C15.2527 6.61 15.2607 6.863 15.2607 8.998C15.2607 11.133 15.2527 11.387 15.2137 12.23C15.1787 13.01 15.0477 13.433 14.9387 13.715C14.8104 14.0624 14.6057 14.3764 14.3397 14.634C14.0597 14.914 13.7937 15.087 13.4197 15.232C13.1397 15.342 12.7157 15.472 11.9347 15.508C11.0917 15.546 10.8387 15.555 8.70266 15.555C6.56666 15.555 6.31266 15.546 5.46966 15.508C4.68966 15.472 4.26666 15.342 3.98466 15.232C3.63716 15.1039 3.32279 14.8996 3.06466 14.634C2.79841 14.376 2.59338 14.0617 2.46466 13.714C2.35566 13.433 2.22466 13.009 2.18966 12.229C2.15166 11.386 2.14366 11.133 2.14366 8.996C2.14366 6.86 2.15166 6.608 2.18966 5.765C2.22566 4.985 2.35566 4.561 2.46566 4.279C2.61066 3.906 2.78466 3.639 3.06466 3.359C3.34466 3.079 3.61066 2.906 3.98466 2.761C4.26666 2.651 4.68966 2.521 5.46966 2.485C6.20766 2.451 6.49366 2.441 7.98466 2.44V2.442ZM12.9727 3.77C12.8466 3.77 12.7218 3.79483 12.6053 3.84308C12.4888 3.89132 12.383 3.96203 12.2938 4.05118C12.2047 4.14032 12.134 4.24615 12.0857 4.36262C12.0375 4.4791 12.0127 4.60393 12.0127 4.73C12.0127 4.85607 12.0375 4.9809 12.0857 5.09738C12.134 5.21385 12.2047 5.31968 12.2938 5.40882C12.383 5.49797 12.4888 5.56868 12.6053 5.61692C12.7218 5.66517 12.8466 5.69 12.9727 5.69C13.2273 5.69 13.4714 5.58886 13.6515 5.40882C13.8315 5.22879 13.9327 4.98461 13.9327 4.73C13.9327 4.47539 13.8315 4.23121 13.6515 4.05118C13.4714 3.87114 13.2273 3.77 12.9727 3.77ZM8.70266 4.892C8.15773 4.8835 7.61655 4.98349 7.11064 5.18614C6.60472 5.3888 6.14418 5.69007 5.75581 6.07242C5.36745 6.45478 5.05902 6.91057 4.8485 7.41326C4.63798 7.91595 4.52956 8.4555 4.52956 9.0005C4.52956 9.5455 4.63798 10.085 4.8485 10.5877C5.05902 11.0904 5.36745 11.5462 5.75581 11.9286C6.14418 12.3109 6.60472 12.6122 7.11064 12.8149C7.61655 13.0175 8.15773 13.1175 8.70266 13.109C9.7812 13.0922 10.8099 12.6519 11.5666 11.8833C12.3234 11.1146 12.7476 10.0792 12.7476 9.0005C12.7476 7.92183 12.3234 6.88641 11.5666 6.11775C10.8099 5.34909 9.7812 4.90883 8.70266 4.892ZM8.70266 6.333C9.40999 6.333 10.0884 6.61399 10.5885 7.11415C11.0887 7.61431 11.3697 8.29267 11.3697 9C11.3697 9.70733 11.0887 10.3857 10.5885 10.8859C10.0884 11.386 9.40999 11.667 8.70266 11.667C7.99533 11.667 7.31697 11.386 6.81681 10.8859C6.31665 10.3857 6.03566 9.70733 6.03566 9C6.03566 8.29267 6.31665 7.61431 6.81681 7.11415C7.31697 6.61399 7.99533 6.333 8.70266 6.333Z" fill="#282827"/>
</svg>
