<svg width="32" height="32" viewBox="0 0 32 32" fill="none" xmlns="http://www.w3.org/2000/svg">
<path fill-rule="evenodd" clip-rule="evenodd" d="M8.16599 26.4371C9.91336 26.6571 12.2872 26.6645 15.9541 26.6645C19.6209 26.6645 21.9948 26.6571 23.7422 26.4371C25.3864 26.2302 25.8901 25.896 26.1634 25.638C26.4367 25.38 26.7907 24.9045 27.0099 23.3523C27.2429 21.7027 27.2508 19.4617 27.2508 16.0001C27.2508 12.5384 27.2429 10.2974 27.0099 8.64785C26.7907 7.09566 26.4367 6.62011 26.1634 6.36214C25.8901 6.10416 25.3864 5.76991 23.7422 5.56296C21.9948 5.34303 19.6209 5.33559 15.9541 5.33559C12.2872 5.33559 9.91336 5.34303 8.16599 5.56296C6.52176 5.76991 6.01801 6.10416 5.74474 6.36214C5.47149 6.62011 5.11741 7.09566 4.8982 8.64785C4.66523 10.2974 4.65735 12.5384 4.65735 16.0001C4.65735 19.4617 4.66523 21.7027 4.8982 23.3523C5.11741 24.9045 5.47149 25.38 5.74474 25.638C6.01801 25.896 6.52176 26.2302 8.16599 26.4371ZM3.07988 3.84641C0.888672 5.915 0.888672 9.27669 0.888672 16.0001C0.888672 22.7235 0.888672 26.0851 3.07988 28.1538C5.2711 30.2223 8.8321 30.2223 15.9541 30.2223C23.0761 30.2223 26.637 30.2223 28.8283 28.1538C31.0195 26.0851 31.0195 22.7235 31.0195 16.0001C31.0195 9.27669 31.0195 5.915 28.8283 3.84641C26.637 1.77783 23.0761 1.77783 15.9541 1.77783C8.8321 1.77783 5.2711 1.77783 3.07988 3.84641ZM12.1051 22.0913C10.1481 21.423 8.83175 20.4015 7.91274 19.4591L10.6853 17.0494C11.2882 17.6676 12.1169 18.3119 13.3873 18.7458C14.639 19.1732 16.4654 19.2686 17.8904 18.9291C19.2934 18.5948 20.5373 17.7967 21.2063 17.0791L24.0355 19.4294C22.875 20.6744 20.9715 21.8644 18.8125 22.3787C16.6757 22.8878 14.0808 22.7661 12.1051 22.0913Z" fill="#FDFBF8"/>
</svg>
