<svg width="32" height="32" viewBox="0 0 32 32" fill="none" xmlns="http://www.w3.org/2000/svg">
<path d="M5.99984 29.3333V22.6666M5.99984 9.33329V2.66663M2.6665 5.99996H9.33317M2.6665 26H9.33317M17.3332 3.99996L15.0209 10.0118C14.6449 10.9894 14.4569 11.4782 14.1645 11.8894C13.9054 12.2538 13.587 12.5722 13.2226 12.8313C12.8114 13.1237 12.3226 13.3117 11.345 13.6877L5.33317 16L11.345 18.3122C12.3226 18.6882 12.8114 18.8762 13.2226 19.1686C13.587 19.4277 13.9054 19.7461 14.1645 20.1105C14.4569 20.5217 14.6449 21.0105 15.0209 21.9881L17.3332 28L19.6454 21.9881C20.0214 21.0105 20.2094 20.5217 20.5018 20.1105C20.7609 19.7461 21.0793 19.4277 21.4437 19.1686C21.8549 18.8762 22.3437 18.6882 23.3214 18.3122L29.3332 16L23.3214 13.6877C22.3437 13.3117 21.8549 13.1237 21.4437 12.8313C21.0793 12.5722 20.7609 12.2538 20.5018 11.8894C20.2094 11.4782 20.0214 10.9894 19.6454 10.0118L17.3332 3.99996Z" stroke="#3D3E40" stroke-width="1.2" stroke-linecap="round" stroke-linejoin="round"/>
</svg>
