<svg width="32" height="32" viewBox="0 0 32 32" fill="none" xmlns="http://www.w3.org/2000/svg">
<path d="M21.3312 12.0001V8.00008C21.3312 5.05456 18.9434 2.66675 15.9979 2.66675C13.0524 2.66675 10.6646 5.05456 10.6646 8.00008V12.0001M4.78723 13.8027L3.98723 22.336C3.75976 24.7623 3.64603 25.9754 4.04862 26.9124C4.40229 27.7356 5.02205 28.4162 5.80858 28.8451C6.70392 29.3334 7.92238 29.3334 10.3593 29.3334H21.6365C24.0734 29.3334 25.2919 29.3334 26.1872 28.8451C26.9737 28.4162 27.5935 27.7356 27.9472 26.9124C28.3497 25.9754 28.236 24.7623 28.0086 22.336L27.2086 13.8027C27.0165 11.7539 26.9204 10.7295 26.4597 9.95497C26.0539 9.27286 25.4543 8.7269 24.7373 8.38654C23.9232 8.00008 22.8943 8.00008 20.8365 8.00008L11.1593 8.00008C9.10148 8.00008 8.07257 8.00008 7.25845 8.38654C6.54144 8.72689 5.9419 9.27286 5.5361 9.95496C5.07534 10.7295 4.9793 11.7539 4.78723 13.8027Z" stroke="#3D3E40" stroke-width="1.2" stroke-linecap="round" stroke-linejoin="round"/>
<path d="M10.8325 18.6667C11.4246 20.9671 13.5127 22.6667 15.9978 22.6667C18.4829 22.6667 20.5711 20.9671 21.1631 18.6667" stroke="#3D3E40" stroke-width="1.2" stroke-linecap="round" stroke-linejoin="round"/>
</svg>
