<svg width="20" height="20" viewBox="0 0 20 20" fill="none" xmlns="http://www.w3.org/2000/svg">
<path d="M2.0532 7.80698C2.27448 7.40898 2.61167 7.13176 3.01067 7.01564C3.39204 6.89323 3.80503 6.96091 4.17912 7.19354C4.53557 7.41988 4.78888 7.76843 4.92263 8.17371L5.36564 9.66272L8.09187 2.01127C8.10443 1.97601 8.11071 1.95838 8.13462 1.94704C8.45884 1.14862 9.37376 0.699746 10.1319 0.969856C10.4845 1.09549 10.7868 1.36216 10.957 1.72084C11.3078 1.07095 12.1259 0.72665 12.8311 0.977915C13.3776 1.17265 13.7456 1.70113 13.8342 2.289C14.2419 2.0369 14.7228 1.96982 15.1459 2.12058C15.9216 2.39697 16.3516 3.36479 16.0564 4.1934L15.9056 4.61652C16.258 4.46393 16.6432 4.44224 16.9959 4.56787C17.7716 4.84426 18.2016 5.81208 17.9064 6.64069L15.0294 14.7153L15.0231 14.7329L15.0168 14.7505C13.8861 17.9239 10.395 19.5808 7.22159 18.4501C5.44096 17.8157 4.0891 16.4797 3.55409 14.8585C3.30929 14.0958 3.23856 13.7924 3.21201 13.6439L1.87023 8.93388C1.85888 8.90997 1.85381 8.86842 1.8601 8.85079C1.81328 8.53609 1.86839 8.15836 2.0532 7.80698ZM13.1147 11.6688C12.9561 11.6122 12.888 11.4688 12.9445 11.3101L15.5451 4.01123C15.7398 3.4647 15.4687 2.83165 14.9751 2.65576C14.4814 2.47988 13.8648 2.81648 13.6763 3.34538C13.67 3.36301 13.6638 3.38064 13.6336 3.40962L11.2842 10.0033C11.2277 10.1619 11.0842 10.23 10.9256 10.1735C10.7669 10.117 10.6988 9.97349 10.7553 9.81482L13.2303 2.86857C13.425 2.32204 13.1539 1.68898 12.6602 1.5131C12.1666 1.33721 11.55 1.67381 11.3615 2.20272C11.3552 2.22035 11.349 2.23798 11.3188 2.26695L8.69932 9.61869C8.64278 9.77736 8.49931 9.84546 8.34064 9.78892C8.18197 9.73239 8.11388 9.58892 8.17042 9.43025L10.5009 2.88949C10.6956 2.34296 10.4245 1.7099 9.93084 1.53402C9.4372 1.35813 8.82056 1.69473 8.63212 2.22364C8.62583 2.24127 8.61955 2.2589 8.58936 2.28787L5.70609 10.3801C6.28281 10.5458 6.84455 10.8652 7.29179 11.2828C7.6987 11.6464 8.02132 12.0792 8.25457 12.5398C8.32266 12.6833 8.26612 12.8419 8.12265 12.91C7.97918 12.9781 7.80288 12.9153 7.75242 12.7781C7.5595 12.3716 7.27093 12.0105 6.92825 11.6897C6.44575 11.2595 5.87774 10.9578 5.28217 10.8449C5.28217 10.8449 5.26454 10.8387 5.24691 10.8324L5.21165 10.8198C5.14113 10.7947 5.07182 10.7104 5.06169 10.6273L4.39272 8.32266C4.22107 7.74493 3.68953 7.39659 3.18354 7.5342C2.93935 7.60614 2.71037 7.80271 2.56326 8.04832C2.41614 8.29392 2.38615 8.60113 2.4581 8.84531L3.78346 13.4899C3.78346 13.4899 3.78346 13.4899 3.77718 13.5075C3.77718 13.5075 3.86939 13.9179 4.1142 14.6806C4.58739 16.1406 5.82334 17.3559 7.42767 17.9275C10.3014 18.9514 13.4816 17.4421 14.5055 14.5684L14.5118 14.5507L14.5181 14.5331L17.3888 6.47616C17.5835 5.92962 17.3124 5.29657 16.8188 5.12068C16.3251 4.9448 15.7085 5.2814 15.52 5.8103C15.5137 5.82793 15.5075 5.84556 15.4773 5.87454L13.4734 11.4985C13.4169 11.6572 13.2558 11.719 13.1147 11.6688Z" fill="#3D3E40"/>
<path d="M2.05271 7.80698C2.27399 7.40898 2.61118 7.13176 3.01018 7.01564C3.39156 6.89323 3.80454 6.96091 4.17863 7.19354C4.53508 7.41988 4.78839 7.76843 4.92214 8.17371L5.36515 9.66272L8.09138 2.01127C8.10394 1.97601 8.11022 1.95838 8.13413 1.94704C8.45835 1.14862 9.37328 0.699746 10.1314 0.969856C10.484 1.09549 10.7863 1.36216 10.9565 1.72084C11.3073 1.07095 12.1254 0.72665 12.8306 0.977915C13.3771 1.17265 13.7451 1.70113 13.8337 2.289C14.2414 2.0369 14.7223 1.96982 15.1454 2.12058C15.9211 2.39697 16.3511 3.36479 16.0559 4.1934L15.9051 4.61652C16.2575 4.46393 16.6428 4.44224 16.9954 4.56787C17.7711 4.84426 18.2011 5.81208 17.9059 6.64069L15.0289 14.7153L15.0226 14.7329L15.0163 14.7505C13.8856 17.9239 10.3945 19.5808 7.22111 18.4501C5.44047 17.8157 4.08861 16.4797 3.55361 14.8585C3.3088 14.0958 3.23807 13.7924 3.21152 13.6439L1.86974 8.93388C1.85839 8.90997 1.85333 8.86842 1.85961 8.85079C1.81279 8.53609 1.86791 8.15836 2.05271 7.80698ZM13.1143 11.6688C12.9556 11.6122 12.8875 11.4688 12.944 11.3101L15.5446 4.01123C15.7394 3.4647 15.4682 2.83165 14.9746 2.65576C14.4809 2.47988 13.8643 2.81648 13.6758 3.34538C13.6696 3.36301 13.6633 3.38064 13.6331 3.40962L11.2838 10.0033C11.2272 10.1619 11.0837 10.23 10.9251 10.1735C10.7664 10.117 10.6983 9.97349 10.7549 9.81482L13.2298 2.86857C13.4245 2.32204 13.1534 1.68898 12.6598 1.5131C12.1661 1.33721 11.5495 1.67381 11.361 2.20272C11.3547 2.22035 11.3485 2.23798 11.3183 2.26695L8.69883 9.61869C8.6423 9.77736 8.49883 9.84546 8.34015 9.78892C8.18148 9.73239 8.11339 9.58892 8.16993 9.43025L10.5004 2.88949C10.6951 2.34296 10.424 1.7099 9.93036 1.53402C9.43671 1.35813 8.82008 1.69473 8.63163 2.22364C8.62535 2.24127 8.61906 2.2589 8.58887 2.28787L5.7056 10.3801C6.28233 10.5458 6.84406 10.8652 7.2913 11.2828C7.69821 11.6464 8.02083 12.0792 8.25408 12.5398C8.32217 12.6833 8.26564 12.8419 8.12216 12.91C7.97869 12.9781 7.80239 12.9153 7.75193 12.7781C7.55901 12.3716 7.27044 12.0105 6.92776 11.6897C6.44526 11.2595 5.87725 10.9578 5.28168 10.8449C5.28168 10.8449 5.26405 10.8387 5.24642 10.8324L5.21116 10.8198C5.14064 10.7947 5.07133 10.7104 5.0612 10.6273L4.39223 8.32266C4.22059 7.74493 3.68905 7.39659 3.18305 7.5342C2.93886 7.60614 2.70988 7.80271 2.56277 8.04832C2.41565 8.29392 2.38567 8.60113 2.45761 8.84531L3.78298 13.4899C3.78298 13.4899 3.78298 13.4899 3.77669 13.5075C3.77669 13.5075 3.8689 13.9179 4.11371 14.6806C4.58691 16.1406 5.82285 17.3559 7.42719 17.9275C10.3009 18.9514 13.4811 17.4421 14.505 14.5684L14.5113 14.5507L14.5176 14.5331L17.3883 6.47616C17.5831 5.92962 17.3119 5.29657 16.8183 5.12068C16.3246 4.9448 15.708 5.2814 15.5195 5.8103C15.5133 5.82793 15.507 5.84556 15.4768 5.87454L13.4729 11.4985C13.4164 11.6572 13.2553 11.719 13.1143 11.6688Z" stroke="#3D3E40" stroke-width="0.4"/>
<path d="M0.604492 7.34438C0.754675 6.74365 1.50559 5.09156 3.75834 5.54218" stroke="#3D3E40" stroke-width="0.833333" stroke-linecap="round"/>
<path d="M19.0771 8.24536L17.2749 12.7509" stroke="#3D3E40" stroke-width="0.833333" stroke-linecap="round"/>
</svg>
