<svg width="28" height="28" viewBox="0 0 28 28" fill="none" xmlns="http://www.w3.org/2000/svg">
<path d="M13.9987 25.6666C20.442 25.6666 25.6654 20.4433 25.6654 14C25.6654 7.55666 20.442 2.33331 13.9987 2.33331C7.55538 2.33331 2.33203 7.55666 2.33203 14C2.33203 20.4433 7.55538 25.6666 13.9987 25.6666Z" stroke="#3D3E40" stroke-width="1.5" stroke-linecap="round" stroke-linejoin="round"/>
<path d="M13.9987 15.75C16.576 15.75 18.6654 13.6607 18.6654 11.0834C18.6654 8.50602 16.576 6.41669 13.9987 6.41669C11.4214 6.41669 9.33203 8.50602 9.33203 11.0834C9.33203 13.6607 11.4214 15.75 13.9987 15.75Z" fill="#3D3E40"/>
<path d="M6.99805 22.0804C7.65992 20.0739 8.66122 18.6666 10.462 18.6666H16.9901C18.7909 18.6666 20.3362 20.0739 20.998 22.0804L13.726 25.6666L6.99805 22.0804Z" fill="#3D3E40" stroke="#3D3E40" stroke-width="1.5" stroke-linecap="round" stroke-linejoin="round"/>
</svg>
