<svg width="28" height="28" viewBox="0 0 28 28" fill="none" xmlns="http://www.w3.org/2000/svg">
<path d="M6.20104 22.6781C6.91076 21.006 8.56777 19.8333 10.4987 19.8333H17.4987C19.4296 19.8333 21.0866 21.0061 21.7963 22.6781M18.6654 11.0833C18.6654 13.6606 16.576 15.75 13.9987 15.75C11.4214 15.75 9.33203 13.6606 9.33203 11.0833C9.33203 8.50598 11.4214 6.41665 13.9987 6.41665C16.576 6.41665 18.6654 8.50598 18.6654 11.0833ZM25.6654 14C25.6654 20.4433 20.442 25.6666 13.9987 25.6666C7.55538 25.6666 2.33203 20.4433 2.33203 14C2.33203 7.55666 7.55538 2.33331 13.9987 2.33331C20.442 2.33331 25.6654 7.55666 25.6654 14Z" stroke="#3D3E40" stroke-width="1.5" stroke-linecap="round" stroke-linejoin="round"/>
</svg>
