<svg width="28" height="28" viewBox="0 0 28 28" fill="none" xmlns="http://www.w3.org/2000/svg">
<path d="M18.9319 25.6666C21.0642 25.6666 22.1304 25.6666 22.9138 25.2394C23.602 24.8641 24.1443 24.2685 24.4538 23.5483C24.806 22.7284 24.7065 21.6669 24.5075 19.5439L23.8075 12.0773C23.6394 10.2846 23.5554 9.38819 23.1522 8.7105C22.7971 8.11366 22.2725 7.63594 21.6452 7.33813C20.9328 6.99998 20.0325 6.99998 18.2319 6.99998L9.76437 6.99998C7.96379 6.99998 7.0635 6.99998 6.35114 7.33813C5.72376 7.63594 5.19916 8.11366 4.84409 8.7105C4.44092 9.38819 4.35689 10.2845 4.18882 12.0773L3.48882 19.5439C3.28979 21.6669 3.19028 22.7284 3.54254 23.5483C3.852 24.2685 4.39429 24.8641 5.08251 25.2394C5.86593 25.6666 6.93208 25.6666 9.06437 25.6666H18.9319Z" fill="#3D3E40"/>
<path d="M18.6648 10.5V6.99998C18.6648 4.42265 16.5755 2.33331 13.9982 2.33331C11.4208 2.33331 9.33149 4.42265 9.33149 6.99998V10.5M4.18882 12.0773L3.48882 19.5439C3.28979 21.6669 3.19028 22.7284 3.54254 23.5483C3.852 24.2685 4.39429 24.8641 5.08251 25.2394C5.86593 25.6666 6.93208 25.6666 9.06437 25.6666H18.9319C21.0642 25.6666 22.1304 25.6666 22.9138 25.2394C23.602 24.8641 24.1443 24.2685 24.4538 23.5483C24.806 22.7284 24.7065 21.6669 24.5075 19.5439L23.8075 12.0773C23.6394 10.2846 23.5554 9.38819 23.1522 8.7105C22.7971 8.11366 22.2725 7.63594 21.6452 7.33813C20.9328 6.99998 20.0325 6.99998 18.2319 6.99998L9.76437 6.99998C7.96379 6.99998 7.0635 6.99998 6.35114 7.33813C5.72376 7.63594 5.19916 8.11366 4.84409 8.7105C4.44092 9.38819 4.35689 10.2845 4.18882 12.0773Z" stroke="#3D3E40" stroke-width="1.5" stroke-linecap="round" stroke-linejoin="round"/>
<path d="M9.47852 16.3334C9.99657 18.3461 11.8237 19.8334 13.9982 19.8334C16.1726 19.8334 17.9998 18.3461 18.5178 16.3334" stroke="#FDFBF8" stroke-width="1.5" stroke-linecap="round" stroke-linejoin="round"/>
</svg>
