<svg width="20" height="20" viewBox="0 0 20 20" fill="none" xmlns="http://www.w3.org/2000/svg">
<path d="M4.99664 17.1912H7.16979C7.45313 17.1912 7.73474 17.2249 8.00942 17.2923L10.3056 17.8503C10.8038 17.9717 11.3229 17.9835 11.8263 17.8857L14.3651 17.3918C15.0358 17.2611 15.6527 16.94 16.1362 16.4697L17.9324 14.7224C18.4454 14.2242 18.4454 13.4159 17.9324 12.9169C17.4706 12.4676 16.7393 12.4171 16.2168 12.798L14.1234 14.3254C13.8236 14.5445 13.4588 14.6625 13.0836 14.6625H11.0621L12.3488 14.6625C13.074 14.6625 13.6615 14.091 13.6615 13.3855V13.1301C13.6615 12.5443 13.2517 12.0335 12.6677 11.8919L10.6817 11.4089C10.3585 11.3305 10.0275 11.2909 9.69474 11.2909C8.8915 11.2909 7.43753 11.9559 7.43753 11.9559L4.99664 12.9767M1.6665 12.6229L1.6665 17.4516C1.6665 17.9179 1.6665 18.151 1.75724 18.3291C1.83706 18.4858 1.96442 18.6131 2.12107 18.6929C2.29916 18.7837 2.53229 18.7837 2.99856 18.7837H3.66458C4.13084 18.7837 4.36398 18.7837 4.54206 18.693C4.69872 18.6131 4.82608 18.4858 4.90589 18.3291C4.99664 18.151 4.99664 17.9179 4.99664 17.4516V12.6229C4.99664 12.1567 4.99664 11.9236 4.90589 11.7455C4.82608 11.5888 4.69872 11.4615 4.54206 11.3816C4.36398 11.2909 4.13085 11.2909 3.66458 11.2909H2.99856C2.53229 11.2909 2.29916 11.2909 2.12107 11.3816C1.96442 11.4615 1.83706 11.5888 1.75724 11.7455C1.6665 11.9236 1.6665 12.1567 1.6665 12.6229Z" stroke="#3D3E40" stroke-linecap="round" stroke-linejoin="round"/>
<path fill-rule="evenodd" clip-rule="evenodd" d="M15.1171 2.43871C14.4894 1.12531 13.0423 0.429512 11.635 1.1011C10.2277 1.77269 9.62818 3.36537 10.2174 4.76351C10.5815 5.6276 11.6248 7.3056 12.3687 8.46142C12.6436 8.88848 12.781 9.10201 12.9818 9.22693C13.1539 9.33408 13.3695 9.39183 13.5722 9.38513C13.8085 9.37732 14.0343 9.26111 14.4858 9.02869C15.708 8.39967 17.4505 7.46813 18.1979 6.90188C19.4072 5.98566 19.7068 4.30156 18.8014 3.02132C17.896 1.74108 16.3173 1.6151 15.1171 2.43871Z" stroke="#3D3E40" stroke-linecap="round" stroke-linejoin="round"/>
</svg>
