<svg width="20" height="20" viewBox="0 0 20 20" fill="none" xmlns="http://www.w3.org/2000/svg">
<path fill-rule="evenodd" clip-rule="evenodd" d="M6.40885 1.16671L6.38698 1.16671C5.70545 1.1667 5.16344 1.1667 4.72614 1.20243C4.27834 1.23902 3.89651 1.31555 3.54688 1.49369C2.9824 1.78131 2.52345 2.24025 2.23583 2.80474C2.05769 3.15436 1.98116 3.5362 1.94458 3.984C1.90885 4.42129 1.90885 4.96331 1.90885 5.64483L1.90885 5.66671V14.3334L1.90885 14.3553C1.90885 15.0368 1.90885 15.5788 1.94458 16.0161C1.98116 16.4639 2.05769 16.8457 2.23583 17.1953C2.52345 17.7598 2.9824 18.2188 3.54688 18.5064C3.89651 18.6845 4.27834 18.7611 4.72614 18.7977C5.16343 18.8334 5.70542 18.8334 6.38692 18.8334H6.38696H6.40885H10.3303C10.6064 18.8334 10.8303 18.6095 10.8303 18.3334C10.8303 18.0572 10.6064 17.8334 10.3303 17.8334H6.40885C5.70054 17.8334 5.19937 17.833 4.80757 17.801C4.42162 17.7694 4.18603 17.7097 4.00087 17.6154C3.62455 17.4236 3.31859 17.1177 3.12684 16.7414C3.0325 16.5562 2.97279 16.3206 2.94125 15.9347C2.90924 15.5429 2.90885 15.0417 2.90885 14.3334V5.66671C2.90885 4.95839 2.90924 4.45722 2.94125 4.06543C2.97279 3.67947 3.0325 3.44388 3.12684 3.25873C3.31859 2.8824 3.62455 2.57644 4.00087 2.38469C4.18603 2.29035 4.42162 2.23064 4.80757 2.19911C5.19937 2.1671 5.70054 2.16671 6.40885 2.16671H11.7422C12.4505 2.16671 12.9517 2.1671 13.3435 2.19911C13.7294 2.23064 13.965 2.29035 14.1502 2.38469C14.5265 2.57644 14.8325 2.8824 15.0242 3.25873C15.1185 3.44388 15.1783 3.67947 15.2098 4.06543C15.2418 4.45722 15.2422 4.95839 15.2422 5.66671V9.16671C15.2422 9.44285 15.466 9.66671 15.7422 9.66671C16.0183 9.66671 16.2422 9.44285 16.2422 9.16671V5.66671V5.64482V5.64477C16.2422 4.96327 16.2422 4.42128 16.2065 3.984C16.1699 3.5362 16.0933 3.15436 15.9152 2.80474C15.6276 2.24025 15.1686 1.78131 14.6042 1.49369C14.2545 1.31555 13.8727 1.23902 13.4249 1.20243C12.9876 1.1667 12.4456 1.1667 11.7641 1.16671L11.7422 1.16671H6.40885ZM5.74219 5.33337C5.46605 5.33337 5.24219 5.55723 5.24219 5.83337C5.24219 6.10952 5.46605 6.33337 5.74219 6.33337H12.4089C12.685 6.33337 12.9089 6.10952 12.9089 5.83337C12.9089 5.55723 12.685 5.33337 12.4089 5.33337H5.74219ZM5.74219 8.66671C5.46605 8.66671 5.24219 8.89056 5.24219 9.16671C5.24219 9.44285 5.46605 9.66671 5.74219 9.66671H9.49219C9.76833 9.66671 9.99219 9.44285 9.99219 9.16671C9.99219 8.89056 9.76833 8.66671 9.49219 8.66671H5.74219ZM14.4965 11.3433C12.7174 11.3433 11.2616 12.811 11.2616 14.6385C11.2616 16.4659 12.7174 17.9337 14.4965 17.9337C16.2756 17.9337 17.7314 16.4659 17.7314 14.6385C17.7314 12.811 16.2756 11.3433 14.4965 11.3433ZM10.2616 14.6385C10.2616 12.2739 12.1501 10.3433 14.4965 10.3433C16.8429 10.3433 18.7314 12.2739 18.7314 14.6385C18.7314 17.0031 16.8429 18.9337 14.4965 18.9337C12.1501 18.9337 10.2616 17.0031 10.2616 14.6385ZM13.1574 13.3333C13.8472 13.3333 14.4074 13.8935 14.4074 14.5833C14.4074 15.2732 13.8472 15.8333 13.1574 15.8333C12.4675 15.8333 11.9074 15.2732 11.9074 14.5833C11.9074 13.8935 12.4675 13.3333 13.1574 13.3333ZM17.0636 15.861C17.0636 15.2861 16.5968 14.8193 16.022 14.8193C15.4471 14.8193 14.9803 15.2861 14.9803 15.861C14.9803 16.4359 15.4471 16.9027 16.022 16.9027C16.5968 16.9027 17.0636 16.4359 17.0636 15.861ZM15.6899 12.1686C16.0816 12.1686 16.3996 12.4866 16.3996 12.8782C16.3996 13.2698 16.0816 13.5879 15.6899 13.5879C15.2983 13.5879 14.9803 13.2698 14.9803 12.8782C14.9803 12.4866 15.2983 12.1686 15.6899 12.1686Z" fill="#3D3E40"/>
</svg>
