<svg width="28" height="28" viewBox="0 0 28 28" fill="none" xmlns="http://www.w3.org/2000/svg">
<path d="M10.5007 3.5L9.33398 9.33333M18.6673 3.5L17.5007 9.33333M25.6673 9.33333H2.33398M7.93398 24.5H20.0673C22.0275 24.5 23.0076 24.5 23.7563 24.1185C24.4149 23.783 24.9503 23.2475 25.2858 22.589C25.6673 21.8403 25.6673 20.8602 25.6673 18.9V9.1C25.6673 7.13982 25.6673 6.15972 25.2858 5.41103C24.9503 4.75247 24.4149 4.21703 23.7563 3.88148C23.0076 3.5 22.0275 3.5 20.0673 3.5H7.93398C5.9738 3.5 4.99371 3.5 4.24502 3.88148C3.58645 4.21703 3.05102 4.75247 2.71546 5.41103C2.33398 6.15972 2.33398 7.13982 2.33398 9.1V18.9C2.33398 20.8602 2.33398 21.8403 2.71546 22.589C3.05102 23.2475 3.58645 23.783 4.24502 24.1185C4.99371 24.5 5.9738 24.5 7.93398 24.5Z" stroke="#3D3E40" stroke-width="1.5" stroke-linecap="round" stroke-linejoin="round"/>
<path d="M18.0423 17.0555C18.3131 16.893 18.3131 16.5005 18.0423 16.338L12.3015 12.8936C12.0227 12.7263 11.668 12.9271 11.668 13.2523V20.1412C11.668 20.4664 12.0227 20.6672 12.3015 20.4999L18.0423 17.0555Z" fill="#3D3E40"/>
</svg>
