<svg width="28" height="28" viewBox="0 0 28 28" fill="none" xmlns="http://www.w3.org/2000/svg">
<rect x="3" y="9" width="22" height="15" fill="#3D3E40"/>
<path d="M10.5007 3.5L9.33398 9.33333M18.6673 3.5L17.5007 9.33333M25.6673 9.33333H2.33398M7.93398 24.5H20.0673C22.0275 24.5 23.0076 24.5 23.7563 24.1185C24.4149 23.783 24.9503 23.2475 25.2858 22.589C25.6673 21.8403 25.6673 20.8602 25.6673 18.9V9.1C25.6673 7.13982 25.6673 6.15972 25.2858 5.41103C24.9503 4.75247 24.4149 4.21703 23.7563 3.88148C23.0076 3.5 22.0275 3.5 20.0673 3.5H7.93398C5.9738 3.5 4.99371 3.5 4.24502 3.88148C3.58645 4.21703 3.05102 4.75247 2.71546 5.41103C2.33398 6.15972 2.33398 7.13982 2.33398 9.1V18.9C2.33398 20.8602 2.33398 21.8403 2.71546 22.589C3.05102 23.2475 3.58645 23.783 4.24502 24.1185C4.99371 24.5 5.9738 24.5 7.93398 24.5Z" stroke="#3D3E40" stroke-width="1.5" stroke-linecap="round" stroke-linejoin="round"/>
<path d="M18.753 16.9178C19.0823 16.7286 19.0823 16.2714 18.753 16.0822L11.7706 12.0702C11.4315 11.8753 11 12.1093 11 12.488V20.512C11 20.8907 11.4315 21.1247 11.7706 20.9298L18.753 16.9178Z" fill="#FDFBF8"/>
</svg>
