<svg width="28" height="28" viewBox="0 0 28 28" fill="none" xmlns="http://www.w3.org/2000/svg">
<path d="M3.50195 12.3259C3.50195 11.6558 3.50195 11.3208 3.58832 11.0122C3.66482 10.7389 3.79055 10.4819 3.95932 10.2537C4.14985 9.99607 4.41431 9.79037 4.94324 9.37898L12.8559 3.22467C13.2658 2.90587 13.4707 2.74647 13.697 2.6852C13.8967 2.63114 14.1072 2.63114 14.3069 2.6852C14.5332 2.74647 14.7381 2.90587 15.148 3.22467L23.0607 9.37898C23.5896 9.79037 23.8541 9.99607 24.0446 10.2537C24.2134 10.4819 24.3391 10.7389 24.4156 11.0122C24.502 11.3208 24.502 11.6558 24.502 12.3259V20.7666C24.502 22.0734 24.502 22.7268 24.2476 23.226C24.0239 23.665 23.667 24.022 23.2279 24.2457C22.7288 24.5 22.0754 24.5 20.7686 24.5H7.23529C5.9285 24.5 5.2751 24.5 4.77598 24.2457C4.33693 24.022 3.97998 23.665 3.75627 23.226C3.50195 22.7268 3.50195 22.0734 3.50195 20.7666V12.3259Z" stroke="#3D3E40" stroke-width="1.5" stroke-linecap="round" stroke-linejoin="round"/>
<path d="M14.002 24.5V15.1667" stroke="#3D3E40" stroke-width="1.5" stroke-linecap="round" stroke-linejoin="round"/>
</svg>
