<svg width="18" height="18" viewBox="0 0 18 18" fill="none" xmlns="http://www.w3.org/2000/svg">
<path d="M9 1C6.829 1 6.556 1.01 5.703 1.048C4.85 1.088 4.269 1.222 3.76 1.42C3.22609 1.62082 2.74249 1.93583 2.343 2.343C1.93608 2.7427 1.62111 3.22624 1.42 3.76C1.222 4.268 1.087 4.85 1.048 5.7C1.01 6.555 1 6.827 1 9.001C1 11.173 1.01 11.445 1.048 12.298C1.088 13.15 1.222 13.731 1.42 14.24C1.625 14.766 1.898 15.212 2.343 15.657C2.787 16.102 3.233 16.376 3.759 16.58C4.269 16.778 4.849 16.913 5.701 16.952C6.555 16.99 6.827 17 9 17C11.173 17 11.444 16.99 12.298 16.952C13.149 16.912 13.732 16.778 14.241 16.58C14.7746 16.3791 15.2578 16.0641 15.657 15.657C16.102 15.212 16.375 14.766 16.58 14.24C16.777 13.731 16.912 13.15 16.952 12.298C16.99 11.445 17 11.173 17 9C17 6.827 16.99 6.555 16.952 5.701C16.912 4.85 16.777 4.268 16.58 3.76C16.3789 3.22623 16.0639 2.74268 15.657 2.343C15.2576 1.93568 14.774 1.62065 14.24 1.42C13.73 1.222 13.148 1.087 12.297 1.048C11.443 1.01 11.172 1 8.998 1H9.001H9ZM8.283 2.442H9.001C11.137 2.442 11.39 2.449 12.233 2.488C13.013 2.523 13.437 2.654 13.719 2.763C14.092 2.908 14.359 3.082 14.639 3.362C14.919 3.642 15.092 3.908 15.237 4.282C15.347 4.563 15.477 4.987 15.512 5.767C15.551 6.61 15.559 6.863 15.559 8.998C15.559 11.133 15.551 11.387 15.512 12.23C15.477 13.01 15.346 13.433 15.237 13.715C15.1087 14.0624 14.904 14.3764 14.638 14.634C14.358 14.914 14.092 15.087 13.718 15.232C13.438 15.342 13.014 15.472 12.233 15.508C11.39 15.546 11.137 15.555 9.001 15.555C6.865 15.555 6.611 15.546 5.768 15.508C4.988 15.472 4.565 15.342 4.283 15.232C3.9355 15.1039 3.62113 14.8996 3.363 14.634C3.09675 14.376 2.89172 14.0617 2.763 13.714C2.654 13.433 2.523 13.009 2.488 12.229C2.45 11.386 2.442 11.133 2.442 8.996C2.442 6.86 2.45 6.608 2.488 5.765C2.524 4.985 2.654 4.561 2.764 4.279C2.909 3.906 3.083 3.639 3.363 3.359C3.643 3.079 3.909 2.906 4.283 2.761C4.565 2.651 4.988 2.521 5.768 2.485C6.506 2.451 6.792 2.441 8.283 2.44V2.442ZM13.271 3.77C13.1449 3.77 13.0201 3.79483 12.9036 3.84308C12.7872 3.89132 12.6813 3.96203 12.5922 4.05118C12.503 4.14032 12.4323 4.24615 12.3841 4.36262C12.3358 4.4791 12.311 4.60393 12.311 4.73C12.311 4.85607 12.3358 4.9809 12.3841 5.09738C12.4323 5.21385 12.503 5.31968 12.5922 5.40882C12.6813 5.49797 12.7872 5.56868 12.9036 5.61692C13.0201 5.66517 13.1449 5.69 13.271 5.69C13.5256 5.69 13.7698 5.58886 13.9498 5.40882C14.1299 5.22879 14.231 4.98461 14.231 4.73C14.231 4.47539 14.1299 4.23121 13.9498 4.05118C13.7698 3.87114 13.5256 3.77 13.271 3.77ZM9.001 4.892C8.45607 4.8835 7.91489 4.98349 7.40898 5.18614C6.90306 5.3888 6.44251 5.69007 6.05415 6.07242C5.66579 6.45478 5.35736 6.91057 5.14684 7.41326C4.93632 7.91595 4.8279 8.4555 4.8279 9.0005C4.8279 9.5455 4.93632 10.085 5.14684 10.5877C5.35736 11.0904 5.66579 11.5462 6.05415 11.9286C6.44251 12.3109 6.90306 12.6122 7.40898 12.8149C7.91489 13.0175 8.45607 13.1175 9.001 13.109C10.0795 13.0922 11.1082 12.6519 11.865 11.8833C12.6217 11.1146 13.0459 10.0792 13.0459 9.0005C13.0459 7.92183 12.6217 6.88641 11.865 6.11775C11.1082 5.34909 10.0795 4.90883 9.001 4.892ZM9.001 6.333C9.70833 6.333 10.3867 6.61399 10.8869 7.11415C11.387 7.61431 11.668 8.29267 11.668 9C11.668 9.70733 11.387 10.3857 10.8869 10.8859C10.3867 11.386 9.70833 11.667 9.001 11.667C8.29367 11.667 7.61531 11.386 7.11515 10.8859C6.61499 10.3857 6.334 9.70733 6.334 9C6.334 8.29267 6.61499 7.61431 7.11515 7.11415C7.61531 6.61399 8.29367 6.333 9.001 6.333Z" fill="#282827"/>
</svg>
