<svg width="24" height="24" viewBox="0 0 24 24" fill="none" xmlns="http://www.w3.org/2000/svg">
<path d="M14.0004 9V5C14.0004 4.20435 13.6843 3.44129 13.1217 2.87868C12.5591 2.31607 11.796 2 11.0004 2L7.5 11V22H18.2804C18.7627 22.0055 19.2307 21.8364 19.5983 21.524C19.9658 21.2116 20.208 20.7769 20.2804 20.3L21.6604 11.3C21.7039 11.0134 21.6845 10.7207 21.6037 10.4423C21.5229 10.1638 21.3825 9.90629 21.1922 9.68751C21.002 9.46873 20.7664 9.29393 20.5019 9.17522C20.2374 9.0565 19.9503 8.99672 19.6604 9H14.0004Z" fill="#3D3E40"/>
<path d="M6.5 22V11H4C3.46957 11 2.96086 11.2107 2.58579 11.5858C2.21071 11.9609 2 12.4696 2 13V20C2 20.5304 2.21071 21.0391 2.58579 21.4142C2.96086 21.7893 3.46957 22 4 22H6.5Z" fill="#3D3E40"/>
</svg>
