<svg width="24" height="24" viewBox="0 0 24 24" fill="none" xmlns="http://www.w3.org/2000/svg">
<path d="M7.00037 11L11.0004 2C11.796 2 12.5591 2.31607 13.1217 2.87868C13.6843 3.44129 14.0004 4.20435 14.0004 5V9H19.6604C19.9503 8.99672 20.2374 9.0565 20.5019 9.17522C20.7664 9.29393 21.002 9.46873 21.1922 9.68751C21.3825 9.90629 21.5229 10.1638 21.6037 10.4423C21.6845 10.7207 21.7039 11.0134 21.6604 11.3L20.2804 20.3C20.208 20.7769 19.9658 21.2116 19.5983 21.524C19.2307 21.8364 18.7627 22.0055 18.2804 22H7.00037M7.00037 11V22M7.00037 11H4.00037C3.46993 11 2.96123 11.2107 2.58615 11.5858C2.21108 11.9609 2.00037 12.4696 2.00037 13V20C2.00037 20.5304 2.21108 21.0391 2.58615 21.4142C2.96123 21.7893 3.46993 22 4.00037 22H7.00037" stroke="#3D3E40" stroke-width="1.44" stroke-linecap="round" stroke-linejoin="round"/>
</svg>
