<svg width="20" height="20" viewBox="0 0 20 20" fill="none" xmlns="http://www.w3.org/2000/svg">
<path d="M7.79496 17.5003C8.38257 18.019 9.15444 18.3337 9.99981 18.3337C10.8452 18.3337 11.6171 18.019 12.2047 17.5003M14.9998 6.66699C14.9998 5.34091 14.473 4.06914 13.5353 3.13146C12.5977 2.19378 11.3259 1.66699 9.99981 1.66699C8.67373 1.66699 7.40196 2.19378 6.46428 3.13146C5.5266 4.06914 4.99981 5.34091 4.99981 6.66699C4.99981 9.24215 4.3502 11.0053 3.62453 12.1715C3.01242 13.1552 2.70636 13.6471 2.71758 13.7843C2.73001 13.9362 2.7622 13.9942 2.88463 14.085C2.99519 14.167 3.49364 14.167 4.49052 14.167H15.5091C16.506 14.167 17.0044 14.167 17.115 14.085C17.2374 13.9942 17.2696 13.9362 17.282 13.7843C17.2933 13.6471 16.9872 13.1552 16.3751 12.1715C15.6494 11.0053 14.9998 9.24215 14.9998 6.66699Z" stroke="#3D3E40" stroke-linecap="round" stroke-linejoin="round"/>
</svg>
