<svg width="20" height="20" viewBox="0 0 20 20" fill="none" xmlns="http://www.w3.org/2000/svg">
<path fill-rule="evenodd" clip-rule="evenodd" d="M5.62697 15.8709C6.59352 15.9946 7.90658 15.9988 9.93491 15.9988C11.9632 15.9988 13.2763 15.9946 14.2428 15.8709C15.1523 15.7545 15.431 15.5665 15.5821 15.4213C15.7333 15.2762 15.9291 15.0087 16.0504 14.1356C16.1792 13.2077 16.1836 11.9472 16.1836 10C16.1836 8.05282 16.1792 6.79227 16.0504 5.86439C15.9291 4.99128 15.7333 4.72378 15.5821 4.57867C15.431 4.43356 15.1523 4.24554 14.2428 4.12914C13.2763 4.00542 11.9632 4.00124 9.93491 4.00124C7.90658 4.00124 6.59352 4.00542 5.62697 4.12914C4.71747 4.24554 4.43883 4.43356 4.28767 4.57867C4.13652 4.72378 3.94067 4.99128 3.81941 5.86439C3.69054 6.79227 3.68619 8.05282 3.68619 10C3.68619 11.9472 3.69054 13.2077 3.81941 14.1356C3.94067 15.0087 4.13652 15.2762 4.28767 15.4213C4.43883 15.5665 4.71747 15.7545 5.62697 15.8709ZM2.81362 3.16357C1.60156 4.32715 1.60156 6.21811 1.60156 10C1.60156 13.7819 1.60156 15.6729 2.81362 16.8365C4.02568 18 5.99542 18 9.93491 18C13.8744 18 15.8441 18 17.0562 16.8365C18.2682 15.6729 18.2682 13.7819 18.2682 10C18.2682 6.21811 18.2682 4.32715 17.0562 3.16357C15.8441 2 13.8744 2 9.93491 2C5.99542 2 4.02568 2 2.81362 3.16357ZM7.80585 13.4263C6.72335 13.0504 5.99523 12.4758 5.48688 11.9457L7.02051 10.5903C7.35402 10.938 7.81237 11.3004 8.51508 11.5445C9.20745 11.7849 10.2177 11.8385 11.0059 11.6476C11.782 11.4596 12.4701 11.0106 12.8401 10.6069L14.4051 11.929C13.7632 12.6293 12.7103 13.2987 11.516 13.588C10.3341 13.8744 8.8987 13.8059 7.80585 13.4263Z" fill="white"/>
</svg>
