<svg width="217" height="36" viewBox="0 0 217 36" fill="none" xmlns="http://www.w3.org/2000/svg">
<path fill-rule="evenodd" clip-rule="evenodd" d="M11.2839 29.2567C13.1069 29.4925 15.5835 29.5004 19.4093 29.5004C23.2349 29.5004 25.7115 29.4925 27.5346 29.2567C29.25 29.0349 29.7756 28.6768 30.0607 28.4003C30.3458 28.1238 30.7151 27.6142 30.9439 25.9508C31.1869 24.183 31.1952 21.7814 31.1952 18.0717C31.1952 14.3619 31.1869 11.9603 30.9439 10.1925C30.7151 8.52904 30.3458 8.0194 30.0607 7.74295C29.7756 7.46649 29.25 7.10826 27.5346 6.88649C25.7115 6.6508 23.2349 6.64283 19.4093 6.64283C15.5835 6.64283 13.1069 6.6508 11.2839 6.88649C9.56844 7.10826 9.0429 7.46649 8.75777 7.74295C8.47268 8.0194 8.1033 8.52904 7.87457 10.1925C7.63152 11.9603 7.6233 14.3619 7.6233 18.0717C7.6233 21.7814 7.63152 24.183 7.87457 25.9508C8.1033 27.6142 8.47268 28.1238 8.75777 28.4003C9.0429 28.6768 9.56844 29.0349 11.2839 29.2567ZM5.97751 5.04691C3.69141 7.26373 3.69141 10.8664 3.69141 18.0717C3.69141 25.2769 3.69141 28.8795 5.97751 31.0964C8.2636 33.3132 11.9788 33.3132 19.4093 33.3132C26.8397 33.3132 30.5548 33.3132 32.841 31.0964C35.127 28.8795 35.1271 25.2769 35.1271 18.0717C35.1271 10.8664 35.127 7.26373 32.841 5.04691C30.5548 2.83008 26.8397 2.83008 19.4093 2.83008C11.9788 2.83008 8.2636 2.83008 5.97751 5.04691ZM15.3936 24.5994C13.3518 23.8832 11.9784 22.7884 11.0196 21.7785L13.9123 19.1961C14.5414 19.8587 15.4059 20.5492 16.7313 21.0142C18.0372 21.4722 19.9427 21.5744 21.4294 21.2105C22.8932 20.8523 24.1909 19.997 24.8889 19.228L27.8406 21.7467C26.6298 23.081 24.6439 24.3562 22.3914 24.9074C20.1621 25.453 17.4548 25.3226 15.3936 24.5994ZM58.9017 2.83165C61.0973 2.83165 63.0645 3.30164 64.8037 4.24164C66.5426 5.18164 67.8969 6.49485 68.8664 8.18132C69.8642 9.86779 70.3633 11.8169 70.3633 14.0287C70.3633 16.2404 69.8642 18.2033 68.8664 19.9174C67.8969 21.604 66.5426 22.9171 64.8037 23.8571C63.0645 24.7971 61.0973 25.2672 58.9017 25.2672C57.2768 25.2672 55.7799 24.963 54.4113 24.3548C53.0712 23.7466 51.9309 22.8619 50.99 21.7007V33.3148H46.8844V2.83165H50.8188V6.52251C51.7315 5.30605 52.8861 4.3937 54.283 3.78547C55.6802 3.14959 57.2197 2.83165 58.9017 2.83165ZM58.5597 21.7837C60.0138 21.7837 61.311 21.4657 62.4513 20.8298C63.6202 20.1663 64.5328 19.2539 65.1886 18.0928C65.8729 16.9039 66.2149 15.5492 66.2149 14.0287C66.2149 12.5081 65.8729 11.1672 65.1886 10.006C64.5328 8.81721 63.6202 7.90487 62.4513 7.26897C61.311 6.63311 60.0138 6.31515 58.5597 6.31515C57.1343 6.31515 55.8371 6.64693 54.6682 7.31045C53.5275 7.94634 52.6152 8.84484 51.9309 10.006C51.2752 11.1672 50.9474 12.5081 50.9474 14.0287C50.9474 15.5492 51.2752 16.9039 51.9309 18.0928C52.5866 19.2539 53.499 20.1663 54.6682 20.8298C55.8371 21.4657 57.1343 21.7837 58.5597 21.7837ZM95.8101 2.83165V25.0183H91.8757V21.5348C90.9634 22.7512 89.8084 23.6774 88.4116 24.3133C87.0147 24.9492 85.4749 25.2672 83.7928 25.2672C81.5976 25.2672 79.6304 24.7971 77.8912 23.8571C76.1519 22.9171 74.7833 21.604 73.7856 19.9174C72.8161 18.2033 72.3315 16.2404 72.3315 14.0287C72.3315 11.8169 72.8161 9.86779 73.7856 8.18132C74.7833 6.49485 76.1519 5.18164 77.8912 4.24164C79.6304 3.30164 81.5976 2.83165 83.7928 2.83165C85.418 2.83165 86.9146 3.13576 88.2833 3.744C89.6519 4.32458 90.7922 5.19546 91.7045 6.35662V2.83165H95.8101ZM84.1351 21.7837C85.5603 21.7837 86.8578 21.4657 88.0267 20.8298C89.1956 20.1663 90.1079 19.2539 90.7636 18.0928C91.4194 16.9039 91.7474 15.5492 91.7474 14.0287C91.7474 12.5081 91.4194 11.1672 90.7636 10.006C90.1079 8.81721 89.1956 7.90487 88.0267 7.26897C86.8578 6.63311 85.5603 6.31515 84.1351 6.31515C82.6807 6.31515 81.3693 6.63311 80.2004 7.26897C79.0601 7.90487 78.1477 8.81721 77.4634 10.006C76.8077 11.1672 76.4796 12.5081 76.4796 14.0287C76.4796 15.5492 76.8077 16.9039 77.4634 18.0928C78.1477 19.2539 79.0601 20.1663 80.2004 20.8298C81.3693 21.4657 82.6807 21.7837 84.1351 21.7837ZM121.067 22.0325V2.83165H116.962V13.2408C116.962 15.5631 116.335 17.3601 115.08 18.6319C113.825 19.9036 112.115 20.5395 109.948 20.5395C107.981 20.5395 106.47 20.0004 105.415 18.9222C104.36 17.8163 103.833 16.2128 103.833 14.1116V2.83165H99.7268V14.5678C99.7268 17.7195 100.597 20.0972 102.336 21.7007C104.075 23.3042 106.455 24.106 109.478 24.106C111.018 24.106 112.443 23.8295 113.755 23.2766C115.066 22.696 116.135 21.8804 116.962 20.8298V22.4472C116.962 24.9353 116.377 26.7739 115.209 27.9627C114.039 29.1792 112.215 29.7874 109.734 29.7874C108.167 29.7874 106.669 29.5386 105.244 29.041C103.847 28.5433 102.649 27.8521 101.651 26.9674L99.6413 30.0362C100.81 31.0868 102.307 31.8886 104.132 32.4415C105.985 33.0222 107.924 33.3124 109.948 33.3124C113.655 33.3124 116.434 32.3862 118.288 30.5339C120.141 28.7092 121.067 25.8754 121.067 22.0325ZM137.005 2.83165C139.201 2.83165 141.168 3.30164 142.907 4.24164C144.647 5.18164 146.001 6.49485 146.97 8.18132C147.968 9.86779 148.466 11.8169 148.466 14.0287C148.466 16.2404 147.968 18.2034 146.97 19.9175C146.001 21.6039 144.647 22.9171 142.907 23.8571C141.168 24.7972 139.201 25.2672 137.005 25.2672C135.38 25.2672 133.884 24.963 132.515 24.3548C131.175 23.7466 130.035 22.8619 129.094 21.7007V33.3147H124.988V2.83165H128.923V6.52251C129.835 5.30605 130.989 4.3937 132.387 3.78547C133.784 3.14959 135.324 2.83165 137.005 2.83165ZM136.663 21.7837C138.117 21.7837 139.415 21.4657 140.555 20.8298C141.724 20.1663 142.636 19.2539 143.292 18.0927C143.977 16.904 144.319 15.5493 144.319 14.0287C144.319 12.5081 143.977 11.1672 143.292 10.006C142.636 8.81721 141.724 7.90487 140.555 7.26897C139.415 6.63311 138.117 6.31515 136.663 6.31515C135.238 6.31515 133.94 6.64693 132.772 7.31045C131.631 7.94634 130.719 8.84484 130.035 10.006C129.379 11.1672 129.051 12.5081 129.051 14.0287C129.051 15.5493 129.379 16.904 130.035 18.0927C130.691 19.2539 131.603 20.1663 132.772 20.8298C133.94 21.4657 135.238 21.7837 136.663 21.7837ZM169.338 4.24164C167.6 3.30164 165.633 2.83165 163.437 2.83165C161.755 2.83165 160.215 3.14959 158.818 3.78547C157.421 4.3937 156.266 5.30605 155.354 6.52251V2.83165H151.419V33.3147H155.526V21.7007C156.466 22.8619 157.607 23.7466 158.947 24.3548C160.315 24.963 161.812 25.2672 163.437 25.2672C165.633 25.2672 167.6 24.7972 169.338 23.8571C171.078 22.9171 172.432 21.6039 173.401 19.9175C174.399 18.2034 174.898 16.2404 174.898 14.0287C174.898 11.8169 174.399 9.86779 173.401 8.18132C172.432 6.49485 171.078 5.18164 169.338 4.24164ZM166.986 20.8298C165.846 21.4657 164.549 21.7837 163.095 21.7837C161.67 21.7837 160.372 21.4657 159.203 20.8298C158.034 20.1663 157.122 19.2539 156.466 18.0927C155.81 16.904 155.482 15.5493 155.482 14.0287C155.482 12.5081 155.81 11.1672 156.466 10.006C157.15 8.84484 158.063 7.94634 159.203 7.31045C160.372 6.64693 161.67 6.31515 163.095 6.31515C164.549 6.31515 165.846 6.63311 166.986 7.26897C168.156 7.90487 169.068 8.81721 169.724 10.006C170.408 11.1672 170.75 12.5081 170.75 14.0287C170.75 15.5493 170.408 16.904 169.724 18.0927C169.068 19.2539 168.156 20.1663 166.986 20.8298ZM199.181 2.83165V22.0325C199.181 25.8754 198.254 28.7092 196.401 30.5339C194.548 32.3862 191.768 33.3124 188.061 33.3124C186.037 33.3124 184.099 33.0221 182.245 32.4415C180.42 31.8885 178.924 31.0868 177.755 30.0362L179.764 26.9674C180.762 27.8521 181.96 28.5433 183.357 29.041C184.783 29.5386 186.28 29.7874 187.848 29.7874C190.327 29.7874 192.153 29.1792 193.322 27.9627C194.49 26.7739 195.075 24.9354 195.075 22.4471V20.8298C194.248 21.8804 193.179 22.6959 191.868 23.2766C190.557 23.8295 189.131 24.106 187.591 24.106C184.569 24.106 182.188 23.3043 180.449 21.7007C178.71 20.0971 177.84 17.7195 177.84 14.5677V2.83165H181.946V14.1116C181.946 16.2128 182.473 17.8163 183.529 18.9222C184.583 20.0004 186.094 20.5395 188.061 20.5395C190.229 20.5395 191.939 19.9036 193.194 18.6319C194.448 17.3601 195.075 15.5631 195.075 13.2407V2.83165H199.181ZM208.114 2.85783H209.191L211.062 7.42718H211.131L213.002 2.85783H214.079V8.73599H213.235V4.48236H213.18L211.447 8.72738H210.746L209.013 4.47949H208.958V8.73599H208.114V2.85783ZM202.56 2.85785V3.62132H204.391V8.73599H205.275V3.62132H207.109V2.85785H202.56Z" fill="white"/>
</svg>
