<svg width="21" height="20" viewBox="0 0 21 20" fill="none" xmlns="http://www.w3.org/2000/svg">
<path d="M18.5903 10.1008C18.117 8.18182 17.1093 6.43583 15.6853 5.06517C14.3148 3.64332 12.5716 2.63637 10.6547 2.16023C8.81442 1.7601 7.2245 2.11522 6.17968 3.16017L3.89922 5.44549C1.80363 7.54108 2.65385 11.8059 5.7993 14.9463C7.79912 16.9461 10.1998 17.9967 12.2497 17.9967C13.3818 18.0417 14.4844 17.6268 15.3051 16.8463L17.5856 14.5658C18.6355 13.5258 18.9906 11.9359 18.5905 10.1005L18.5903 10.1008ZM10.4249 3.20523C12.1414 3.63558 13.7017 4.542 14.9253 5.82034C16.2037 7.04531 17.1116 8.60432 17.5455 10.3208C17.8605 11.7912 17.6101 13.031 16.8254 13.8212C15.1455 15.5012 11.5599 14.6461 8.8245 11.9163C6.08913 9.18577 5.24953 5.60018 6.93431 3.92026C7.74931 3.07009 9.21478 2.9154 10.425 3.2051L10.4249 3.20523ZM6.92441 14.5611L8.45456 13.031C9.26675 13.7799 10.183 14.4064 11.1744 14.8916L9.67454 16.3915C8.67039 15.9351 7.74781 15.317 6.94404 14.5611H6.92441ZM4.3543 11.0607L5.85421 9.56075C6.3366 10.553 6.96315 11.4686 7.71487 12.2765L6.18964 13.8066C5.43651 12.9924 4.82334 12.0599 4.37398 11.0459L4.3543 11.0607ZM4.63417 6.21494L5.0343 5.81482V5.81552C4.98648 6.72826 5.12079 7.64108 5.42949 8.50102L3.98444 9.9257C3.59909 8.43071 3.78896 7.06576 4.65459 6.20096L4.63417 6.21494ZM14.5499 16.0963C13.685 16.9612 12.3193 17.1511 10.8244 16.7664L12.2498 15.3312C12.979 15.5851 13.7434 15.7201 14.5155 15.7313H14.9304L14.5499 16.0963Z" fill="#3D3E40"/>
<path d="M9.61787 6.60058C10.333 5.88543 11.9729 6.32071 13.2035 7.54568C13.4151 7.73203 13.7351 7.72148 13.9341 7.52247C14.1338 7.32276 14.1443 7.00281 13.958 6.79115C12.2478 5.10068 10.0278 4.68584 8.86259 5.85097C8.76204 5.94942 8.70508 6.08444 8.70508 6.22577C8.70508 6.3671 8.76204 6.50213 8.86259 6.60056C8.96245 6.70182 9.09817 6.75878 9.24022 6.75878C9.38227 6.75878 9.51802 6.70184 9.61787 6.60058Z" fill="#3D3E40"/>
<path d="M10.5619 10.1852C10.3516 9.97992 10.0169 9.97992 9.80666 10.1852C9.7054 10.2851 9.64844 10.4208 9.64844 10.5629C9.64844 10.7049 9.7054 10.8406 9.80666 10.9405C10.6821 11.8919 11.8916 12.4671 13.182 12.5459C13.8212 12.5663 14.4407 12.3279 14.902 11.8856C15.1073 11.6753 15.1073 11.3406 14.902 11.1304C14.8029 11.0291 14.6664 10.9721 14.5244 10.9721C14.383 10.9721 14.2466 11.0291 14.1475 11.1304C13.4323 11.8455 11.7869 11.4151 10.5619 10.1852Z" fill="#3D3E40"/>
</svg>
