<svg width="20" height="20" viewBox="0 0 20 20" fill="none" xmlns="http://www.w3.org/2000/svg">
<path d="M11.6668 1.8916V5.33372C11.6668 5.80043 11.6668 6.03378 11.7577 6.21204C11.8376 6.36885 11.965 6.49633 12.1218 6.57622C12.3001 6.66705 12.5335 6.66705 13.0002 6.66705H16.4423M13.3335 10.8337H6.66683M13.3335 14.167H6.66683M8.3335 7.50033H6.66683M11.6668 1.66699H7.3335C5.93336 1.66699 5.2333 1.66699 4.69852 1.93948C4.22811 2.17916 3.84566 2.56161 3.60598 3.03202C3.3335 3.5668 3.3335 4.26686 3.3335 5.66699V14.3337C3.3335 15.7338 3.3335 16.4339 3.60598 16.9686C3.84566 17.439 4.22811 17.8215 4.69852 18.0612C5.2333 18.3337 5.93336 18.3337 7.3335 18.3337H12.6668C14.067 18.3337 14.767 18.3337 15.3018 18.0612C15.7722 17.8215 16.1547 17.439 16.3943 16.9686C16.6668 16.4339 16.6668 15.7338 16.6668 14.3337V6.66699L11.6668 1.66699Z" stroke="#3D3E40" stroke-linecap="round" stroke-linejoin="round"/>
</svg>
