<svg width="20" height="20" viewBox="0 0 20 20" fill="none" xmlns="http://www.w3.org/2000/svg">
<path d="M16.6668 9.16675V5.66675C16.6668 4.26662 16.6668 3.56655 16.3943 3.03177C16.1547 2.56137 15.7722 2.17892 15.3018 1.93923C14.767 1.66675 14.067 1.66675 12.6668 1.66675H7.3335C5.93336 1.66675 5.2333 1.66675 4.69852 1.93923C4.22811 2.17892 3.84566 2.56137 3.60598 3.03177C3.3335 3.56655 3.3335 4.26662 3.3335 5.66675V14.3334C3.3335 15.7335 3.3335 16.4336 3.60598 16.9684C3.84566 17.4388 4.22811 17.8212 4.69852 18.0609C5.2333 18.3334 5.93336 18.3334 7.3335 18.3334H11.2549M10.4168 9.16675H6.66683M13.3335 5.83341H6.66683" stroke="#3D3E40" stroke-linecap="round" stroke-linejoin="round"/>
<path fill-rule="evenodd" clip-rule="evenodd" d="M11.4311 14.1365C11.6506 13.7891 12.0844 13.1814 12.7028 12.6652C13.3201 12.15 14.0912 11.75 15.0002 11.75C15.9091 11.75 16.6802 12.15 17.2975 12.6652C17.9159 13.1814 18.3498 13.7891 18.5692 14.1365L18.5882 14.1667L18.5692 14.1969C18.3498 14.5443 17.9159 15.152 17.2975 15.6682C16.6802 16.1834 15.9091 16.5834 15.0002 16.5834C14.0912 16.5834 13.3201 16.1834 12.7028 15.6682C12.0844 15.152 11.6506 14.5443 11.4311 14.1969L11.4121 14.1667L11.4311 14.1365ZM15.0002 10.75C13.782 10.75 12.7917 11.2886 12.0621 11.8975C11.3336 12.5055 10.8351 13.2075 10.5856 13.6026L10.5752 13.6191C10.5263 13.6959 10.4555 13.8071 10.42 13.9619C10.3912 14.0875 10.3912 14.2459 10.42 14.3715C10.4555 14.5263 10.5263 14.6376 10.5752 14.7143L10.5856 14.7309C10.8351 15.1259 11.3336 15.828 12.0621 16.4359C12.7917 17.0449 13.782 17.5834 15.0002 17.5834C16.2183 17.5834 17.2086 17.0449 17.9383 16.4359C18.6667 15.828 19.1652 15.1259 19.4147 14.7309L19.4252 14.7143C19.474 14.6376 19.5448 14.5263 19.5803 14.3715C19.6091 14.2459 19.6091 14.0875 19.5803 13.9619C19.5448 13.8071 19.474 13.6958 19.4252 13.6191L19.4147 13.6026C19.1652 13.2075 18.6667 12.5055 17.9383 11.8975C17.2086 11.2885 16.2183 10.75 15.0002 10.75ZM16.6667 14.1667C16.6667 15.0872 15.9205 15.8334 15 15.8334C14.0795 15.8334 13.3333 15.0872 13.3333 14.1667C13.3333 13.2462 14.0795 12.5 15 12.5C15.9205 12.5 16.6667 13.2462 16.6667 14.1667Z" fill="#3D3E40"/>
</svg>
