<svg width="20" height="20" viewBox="0 0 20 20" fill="none" xmlns="http://www.w3.org/2000/svg">
<path d="M9.99984 5.83366H6.24984C5.6973 5.83366 5.1674 5.61417 4.7767 5.22346C4.386 4.83276 4.1665 4.30286 4.1665 3.75033C4.1665 3.19779 4.386 2.66789 4.7767 2.27719C5.1674 1.88649 5.6973 1.66699 6.24984 1.66699C9.1665 1.66699 9.99984 5.83366 9.99984 5.83366ZM9.99984 5.83366H13.7498C14.3024 5.83366 14.8323 5.61417 15.223 5.22346C15.6137 4.83276 15.8332 4.30286 15.8332 3.75033C15.8332 3.19779 15.6137 2.66789 15.223 2.27719C14.8323 1.88649 14.3024 1.66699 13.7498 1.66699C10.8332 1.66699 9.99984 5.83366 9.99984 5.83366ZM9.99984 5.83366L9.99984 18.3337M1.6665 11.667H18.3332M1.6665 8.50033L1.6665 15.667C1.6665 16.6004 1.6665 17.0671 1.84816 17.4236C2.00795 17.7372 2.26292 17.9922 2.57652 18.152C2.93304 18.3337 3.39975 18.3337 4.33317 18.3337L15.6665 18.3337C16.5999 18.3337 17.0666 18.3337 17.4232 18.152C17.7368 17.9922 17.9917 17.7372 18.1515 17.4236C18.3332 17.0671 18.3332 16.6004 18.3332 15.667V8.50033C18.3332 7.56691 18.3332 7.1002 18.1515 6.74368C17.9917 6.43007 17.7368 6.17511 17.4232 6.01532C17.0666 5.83366 16.5999 5.83366 15.6665 5.83366L4.33317 5.83366C3.39975 5.83366 2.93304 5.83366 2.57652 6.01531C2.26292 6.1751 2.00795 6.43007 1.84816 6.74367C1.6665 7.10019 1.6665 7.5669 1.6665 8.50033Z" stroke="#3D3E40" stroke-linecap="round" stroke-linejoin="round"/>
</svg>
