<svg width="20" height="20" viewBox="0 0 20 20" fill="none" xmlns="http://www.w3.org/2000/svg">
<path d="M11.3334 2H11.7778C11.7778 1.75454 11.5788 1.55555 11.3334 1.55555V2ZM8.66669 2V1.55555C8.42122 1.55555 8.22224 1.75454 8.22224 2H8.66669ZM11.3334 3.92097H10.8889C10.8889 4.1299 11.0344 4.31063 11.2386 4.35519L11.3334 3.92097ZM13.3552 4.75899L13.1152 5.13308C13.2911 5.24589 13.5218 5.22099 13.6695 5.07326L13.3552 4.75899ZM14.7136 3.40058L15.0279 3.08631C14.9446 3.00296 14.8315 2.95613 14.7136 2.95613C14.5958 2.95613 14.4827 3.00296 14.3994 3.08631L14.7136 3.40058ZM16.5993 5.2862L16.9135 5.60047C17.0871 5.4269 17.0871 5.1455 16.9135 4.97193L16.5993 5.2862ZM15.2409 6.64457L14.9266 6.3303C14.7789 6.47804 14.754 6.70872 14.8668 6.88457L15.2409 6.64457ZM16.0791 8.66669L15.6449 8.76149C15.6894 8.96561 15.8701 9.11113 16.0791 9.11113V8.66669ZM18 8.66669H18.4445C18.4445 8.42122 18.2455 8.22224 18 8.22224V8.66669ZM18 11.3334V11.7778C18.2455 11.7778 18.4445 11.5788 18.4445 11.3334H18ZM16.0791 11.3334V10.8889C15.8701 10.8889 15.6894 11.0344 15.6449 11.2386L16.0791 11.3334ZM15.2411 13.3552L14.867 13.1152C14.7542 13.2911 14.7791 13.5218 14.9268 13.6695L15.2411 13.3552ZM16.5995 14.7136L16.9137 15.0279C17.0873 14.8543 17.0873 14.5729 16.9137 14.3994L16.5995 14.7136ZM14.7138 16.5993L14.3996 16.9135C14.5731 17.0871 14.8545 17.0871 15.0281 16.9135L14.7138 16.5993ZM13.3555 15.2409L13.6697 14.9266C13.522 14.7789 13.2913 14.754 13.1155 14.8668L13.3555 15.2409ZM11.3334 16.0791L11.2386 15.6449C11.0344 15.6894 10.8889 15.8701 10.8889 16.0791H11.3334ZM11.3334 18V18.4445C11.5788 18.4445 11.7778 18.2455 11.7778 18H11.3334ZM8.66669 18H8.22224C8.22224 18.2455 8.42122 18.4445 8.66669 18.4445V18ZM8.66669 16.0791H9.11113C9.11113 15.8701 8.96561 15.6894 8.76149 15.6449L8.66669 16.0791ZM6.64404 15.2406L6.88408 14.8665C6.70823 14.7537 6.47752 14.7785 6.32977 14.9263L6.64404 15.2406ZM5.28473 16.5999L4.97046 16.9141C5.14403 17.0877 5.42543 17.0877 5.599 16.9141L5.28473 16.5999ZM3.39911 14.7142L3.08484 14.4C3.00149 14.4833 2.95466 14.5964 2.95466 14.7142C2.95466 14.8321 3.00149 14.9452 3.08484 15.0285L3.39911 14.7142ZM4.75865 13.3547L5.07292 13.669C5.22064 13.5213 5.24554 13.2906 5.13276 13.1148L4.75865 13.3547ZM3.92097 11.3334L4.35519 11.2386C4.31063 11.0344 4.1299 10.8889 3.92097 10.8889V11.3334ZM2 11.3334H1.55555C1.55555 11.5788 1.75454 11.7778 2 11.7778V11.3334ZM2 8.66669V8.22224C1.75454 8.22224 1.55555 8.42122 1.55555 8.66669H2ZM3.92097 8.66669V9.11113C4.1299 9.11113 4.31063 8.96561 4.35519 8.76149L3.92097 8.66669ZM4.75881 6.6451L5.13291 6.88506C5.2457 6.70922 5.2208 6.47855 5.07308 6.33083L4.75881 6.6451ZM3.39931 5.2856L3.08504 4.97133C3.00169 5.05468 2.95486 5.16772 2.95486 5.2856C2.95486 5.40347 3.00169 5.51652 3.08504 5.59987L3.39931 5.2856ZM5.28493 3.39998L5.5992 3.08571C5.51585 3.00236 5.40281 2.95553 5.28493 2.95553C5.16706 2.95553 5.05401 3.00236 4.97066 3.08571L5.28493 3.39998ZM6.64429 4.75933L6.33002 5.0736C6.47776 5.22134 6.70846 5.24623 6.88431 5.13339L6.64429 4.75933ZM8.66669 3.92097L8.76149 4.35519C8.96561 4.31063 9.11113 4.1299 9.11113 3.92097H8.66669ZM11.3334 1.55555H8.66669V2.44445H11.3334V1.55555ZM11.7778 3.92097V2H10.8889V3.92097H11.7778ZM13.5952 4.38491C12.9422 3.96596 12.2109 3.65765 11.4282 3.48676L11.2386 4.35519C11.9161 4.50311 12.5493 4.76999 13.1152 5.13308L13.5952 4.38491ZM13.6695 5.07326L15.0279 3.71485L14.3994 3.08631L13.041 4.44472L13.6695 5.07326ZM14.3994 3.71485L16.285 5.60047L16.9135 4.97193L15.0279 3.08631L14.3994 3.71485ZM16.285 4.97193L14.9266 6.3303L15.5552 6.95884L16.9135 5.60047L16.285 4.97193ZM16.5133 8.57188C16.3424 7.78903 16.034 7.0577 15.615 6.40457L14.8668 6.88457C15.23 7.45062 15.4969 8.08389 15.6449 8.76149L16.5133 8.57188ZM18 8.22224H16.0791V9.11113H18V8.22224ZM18.4445 11.3334V8.66669H17.5556V11.3334H18.4445ZM16.0791 11.7778H18V10.8889H16.0791V11.7778ZM15.6151 13.5952C16.0341 12.9422 16.3424 12.2109 16.5133 11.4282L15.6449 11.2386C15.4969 11.9161 15.2301 12.5493 14.867 13.1152L15.6151 13.5952ZM16.9137 14.3994L15.5553 13.041L14.9268 13.6695L16.2852 15.0279L16.9137 14.3994ZM15.0281 16.9135L16.9137 15.0279L16.2852 14.3994L14.3996 16.285L15.0281 16.9135ZM13.0412 15.5552L14.3996 16.9135L15.0281 16.285L13.6697 14.9266L13.0412 15.5552ZM11.4282 16.5133C12.211 16.3424 12.9423 16.034 13.5955 15.615L13.1155 14.8668C12.5494 15.23 11.9162 15.4969 11.2386 15.6449L11.4282 16.5133ZM11.7778 18V16.0791H10.8889V18H11.7778ZM8.66669 18.4445H11.3334V17.5556H8.66669V18.4445ZM8.22224 16.0791V18H9.11113V16.0791H8.22224ZM6.40401 15.6146C7.05727 16.0338 7.7888 16.3423 8.57188 16.5133L8.76149 15.6449C8.08369 15.4969 7.45026 15.2298 6.88408 14.8665L6.40401 15.6146ZM5.599 16.9141L6.95831 15.5548L6.32977 14.9263L4.97046 16.2856L5.599 16.9141ZM3.08484 15.0285L4.97046 16.9141L5.599 16.2856L3.71338 14.4L3.08484 15.0285ZM4.44438 13.0404L3.08484 14.4L3.71338 15.0285L5.07292 13.669L4.44438 13.0404ZM3.48676 11.4282C3.6576 12.2107 3.96578 12.9417 4.38454 13.5946L5.13276 13.1148C4.76983 12.5489 4.50307 11.9159 4.35519 11.2386L3.48676 11.4282ZM2 11.7778H3.92097V10.8889H2V11.7778ZM1.55555 8.66669V11.3334H2.44445V8.66669H1.55555ZM3.92097 8.22224H2V9.11113H3.92097V8.22224ZM4.38471 6.40514C3.96587 7.05812 3.65762 7.78925 3.48676 8.57189L4.35519 8.76149C4.50308 8.08408 4.7699 7.45099 5.13291 6.88506L4.38471 6.40514ZM3.08504 5.59987L4.44454 6.95937L5.07308 6.33083L3.71358 4.97133L3.08504 5.59987ZM4.97066 3.08571L3.08504 4.97133L3.71358 5.59987L5.5992 3.71425L4.97066 3.08571ZM6.95856 4.44506L5.5992 3.08571L4.97066 3.71425L6.33002 5.0736L6.95856 4.44506ZM8.57188 3.48676C7.78891 3.6577 7.05747 3.96614 6.40427 4.38527L6.88431 5.13339C7.45043 4.77014 8.08378 4.50315 8.76149 4.35519L8.57188 3.48676ZM8.22224 2V3.92097H9.11113V2H8.22224Z" fill="#3D3E40"/>
<circle cx="10.0002" cy="9.99968" r="2.66667" stroke="#3D3E40" stroke-width="0.888891"/>
</svg>
