<svg width="20" height="20" viewBox="0 0 20 20" fill="none" xmlns="http://www.w3.org/2000/svg">
<path d="M16.6668 9.16663V5.66663C16.6668 4.26649 16.6668 3.56643 16.3943 3.03165C16.1547 2.56124 15.7722 2.17879 15.3018 1.93911C14.767 1.66663 14.067 1.66663 12.6668 1.66663H7.3335C5.93336 1.66663 5.2333 1.66663 4.69852 1.93911C4.22811 2.17879 3.84566 2.56124 3.60598 3.03165C3.3335 3.56643 3.3335 4.26649 3.3335 5.66663V14.3333C3.3335 15.7334 3.3335 16.4335 3.60598 16.9683C3.84566 17.4387 4.22811 17.8211 4.69852 18.0608C5.2333 18.3333 5.93336 18.3333 7.3335 18.3333H11.2549M10.4168 9.16663H6.66683M13.3335 5.83329H6.66683" stroke="#3D3E40" stroke-linecap="round" stroke-linejoin="round"/>
<g clip-path="url(#clip0_2200_13315)">
<path d="M11.9458 13.8888C11.9458 13.8888 12.642 12.9403 13.2075 12.3743C13.7731 11.8083 14.5547 11.4583 15.418 11.4583C17.1439 11.4583 18.543 12.8574 18.543 14.5833C18.543 16.3091 17.1439 17.7083 15.418 17.7083C13.9933 17.7083 13.2075 16.6666 12.9159 15.8333M11.9458 13.8888V11.8055M11.9458 13.8888H14.0291" stroke="#3D3E40" stroke-linecap="round" stroke-linejoin="round"/>
</g>
<defs>
<clipPath id="clip0_2200_13315">
<rect width="8.33333" height="8.33333" fill="white" transform="translate(11.25 10.4166)"/>
</clipPath>
</defs>
</svg>
