<svg width="20" height="20" viewBox="0 0 20 20" fill="none" xmlns="http://www.w3.org/2000/svg">
<path d="M11.6673 1.89062V5.33274C11.6673 5.79945 11.6673 6.03281 11.7581 6.21107C11.838 6.36787 11.9655 6.49535 12.1223 6.57525C12.3006 6.66607 12.5339 6.66607 13.0007 6.66607H16.4428M11.6673 1.66602H7.33398C5.93385 1.66602 5.23379 1.66602 4.69901 1.9385C4.2286 2.17818 3.84615 2.56063 3.60647 3.03104C3.33398 3.56582 3.33398 4.26588 3.33398 5.66602V14.3327C3.33398 15.7328 3.33398 16.4329 3.60647 16.9677C3.84615 17.4381 4.2286 17.8205 4.69901 18.0602C5.23379 18.3327 5.93385 18.3327 7.33398 18.3327H12.6673C14.0674 18.3327 14.7675 18.3327 15.3023 18.0602C15.7727 17.8205 16.1552 17.4381 16.3948 16.9677C16.6673 16.4329 16.6673 15.7328 16.6673 14.3327V6.66602L11.6673 1.66602Z" stroke="#3D3E40" stroke-width="0.833333" stroke-linecap="round" stroke-linejoin="round"/>
<path d="M13.5242 13.7953H7.35879M7.35879 13.7953L8.67994 12.4252M7.35879 13.7953L8.67994 15.1654M6.47803 10.3701H12.6434M12.6434 10.3701L11.3222 9M12.6434 10.3701L11.3222 11.7402" stroke="#3D3E40" stroke-width="0.880766" stroke-linecap="round" stroke-linejoin="round"/>
</svg>
