<svg width="20" height="20" viewBox="0 0 20 20" fill="none" xmlns="http://www.w3.org/2000/svg">
<path d="M15.0837 15.8333C18.1795 12.7376 18.3005 7.79353 15.4467 4.5533M13.3333 13.3333C15.1743 11.4924 15.1743 8.50762 13.3333 6.66667M2.5 17.5L5.9671 14.0329M17.5 2.5L15.4467 4.5533M15.4467 4.5533L10.8333 9.16667M10.8333 9.16667V17.5C8.46161 17.5 6.5854 14.976 5.9671 14.0329M10.8333 9.16667L5.9671 14.0329M10.8333 5.83333V2.5C7.91667 2.5 5.74937 6.2545 5.74937 6.2545C5.74937 6.2545 2.5 5.76569 2.5 7.08783V12.8496C2.5 13.1746 2.69631 13.3902 2.99243 13.5305" stroke="white" stroke-linecap="round" stroke-linejoin="round"/>
</svg>
