<svg width="20" height="20" viewBox="0 0 20 20" fill="none" xmlns="http://www.w3.org/2000/svg">
<path fill-rule="evenodd" clip-rule="evenodd" d="M1.04829 10.0104C1.13111 10.3195 1.44917 10.5031 1.75826 10.4203C2.68551 10.1718 3.63971 10.7227 3.88816 11.65C4.13662 12.5772 3.58571 13.5314 2.65846 13.7799C2.34938 13.8627 2.16574 14.1808 2.24856 14.4899L2.8487 16.7296C2.96812 17.1753 3.25954 17.5551 3.6591 17.7853C4.05826 18.0163 4.5329 18.0787 4.97861 17.9593C7.86451 17.186 15.5311 15.1318 18.4171 14.3585C18.8628 14.239 19.2426 13.9476 19.4728 13.5481C19.7037 13.1489 19.7662 12.6743 19.6468 12.2286L19.0466 9.98882C18.9638 9.67974 18.6457 9.4961 18.3367 9.57892C17.4094 9.82738 16.4552 9.27647 16.2067 8.34922C15.9583 7.42197 16.5092 6.46777 17.4364 6.21931C17.7455 6.13649 17.9292 5.81843 17.8463 5.50934L17.2462 3.2696C17.1268 2.82389 16.8354 2.44407 16.4358 2.21386C16.0367 1.98293 15.562 1.92047 15.1163 2.0399C12.2304 2.81317 4.56376 4.86744 1.67785 5.64072C1.23214 5.76014 0.852324 6.05156 0.62211 6.45112C0.391186 6.85028 0.328722 7.32492 0.44815 7.77063L1.04829 10.0104ZM2.03313 9.20636L1.56802 7.47056C1.52826 7.32217 1.5488 7.16364 1.62601 7.03072C1.70251 6.8974 1.82954 6.80035 1.97792 6.76059L15.4164 3.15977C15.5648 3.12001 15.7233 3.14054 15.8562 3.21775C15.9895 3.29426 16.0866 3.42129 16.1263 3.56967L16.5914 5.30547C15.3838 5.90751 14.7242 7.29592 15.0869 8.64929C15.4495 10.0027 16.715 10.8753 18.0618 10.7928L18.5269 12.5286C18.5666 12.677 18.5461 12.8356 18.4689 12.9685C18.3924 13.1018 18.2654 13.1988 18.117 13.2386L4.67854 16.8394C4.53015 16.8792 4.37162 16.8586 4.2387 16.7814C4.10538 16.7049 4.00833 16.5779 3.96857 16.4295L3.50346 14.6937C4.71106 14.0917 5.37067 12.7033 5.00804 11.3499C4.6454 9.99654 3.37995 9.12394 2.03313 9.20636Z" fill="#3D3E40"/>
<path fill-rule="evenodd" clip-rule="evenodd" d="M8.05992 14.549L12.939 6.09821C13.0988 5.82132 13.0037 5.46632 12.7268 5.30646C12.4499 5.1466 12.0949 5.24172 11.9351 5.51861L7.05602 13.9694C6.89616 14.2463 6.99128 14.6013 7.26817 14.7611C7.54506 14.921 7.90006 14.8259 8.05992 14.549Z" fill="#3D3E40"/>
<path d="M14.5059 11.417C14.5059 12.1073 13.9462 12.667 13.2559 12.667C12.5655 12.667 12.0059 12.1073 12.0059 11.417C12.0059 10.7266 12.5655 10.167 13.2559 10.167C13.9462 10.167 14.5059 10.7266 14.5059 11.417Z" fill="#3D3E40"/>
<circle cx="7.06641" cy="8.26562" r="1.25" fill="#3D3E40"/>
</svg>
