<svg width="72" height="20" viewBox="0 0 72 20" fill="none" xmlns="http://www.w3.org/2000/svg">
<g clip-path="url(#clip0_3613_11627)">
<path d="M11.5549 5.61661L11.4925 7.62004L6.26733 13.2996C8.45 13.2996 9.83383 13.2783 10.632 13.234C10.4008 14.3119 10.2125 15.193 10.0232 16.5141C8.97367 16.4254 7.33739 16.4034 5.70003 16.4034C3.87512 16.4034 2.27996 16.4254 1 16.5141L1.04256 14.4879L6.26733 8.83111C3.98007 8.83111 3.14047 8.85275 2.19665 8.87475C2.40582 7.86203 2.55297 6.73968 2.69976 5.61661C4.35732 5.68261 5.00793 5.70425 7.16933 5.70425C9.16301 5.70425 10.2955 5.68261 11.5549 5.61661ZM17.4937 5.02153C14.0935 5.02153 11.4925 8.05967 11.4925 11.6932C11.4925 14.4227 13.066 16.5141 16.1294 16.5141C19.5498 16.5141 22.131 13.4756 22.131 9.82074C22.131 7.11404 20.5986 5.02153 17.4937 5.02153ZM16.4652 13.5939C15.7096 13.5939 15.2692 12.9104 15.2692 11.5677C15.2692 9.56431 16.0875 7.95761 17.0952 7.95761C17.8291 7.95761 18.2699 8.61868 18.2699 9.98267C18.2695 11.9641 17.4728 13.5939 16.4652 13.5939ZM65.5547 4.87078C62.1108 4.87078 59.4752 7.94895 59.4752 11.6283C59.4752 14.3949 61.0692 16.5141 64.173 16.5141C67.6382 16.5141 70.2533 13.4356 70.2533 9.73346C70.2533 6.99034 68.7021 4.87078 65.5547 4.87078ZM64.4478 13.5823C63.6919 13.5823 63.2519 12.8989 63.2519 11.5562C63.2519 9.55277 64.0706 7.94643 65.0779 7.94643C65.8115 7.94643 66.2529 8.60678 66.2529 9.97113C66.2525 11.9533 65.4551 13.5823 64.4478 13.5823ZM39.7777 8.98475C40.0508 7.11404 39.904 5.41861 37.827 5.41861C36.3158 5.41861 34.6792 6.69568 33.5251 8.83111C33.7772 7.06932 33.6297 5.41861 31.5736 5.41861C30.021 5.41861 28.3422 6.76132 27.1877 8.98475C27.4817 7.53167 27.4189 5.88025 27.3349 5.52825C26.1389 5.72661 25.0902 5.83625 23.6209 5.88025C23.6631 6.89332 23.5999 8.21331 23.411 9.4691L22.9284 12.7709C22.7394 14.0703 22.5295 15.5674 22.3196 16.5141H26.2226C26.2439 15.941 26.391 15.0387 26.4956 14.2463L26.8314 11.9792C27.104 10.5035 28.2787 8.76511 29.181 8.76511C29.7058 8.76511 29.6852 9.2711 29.5381 10.2178L29.1601 12.7709C28.9708 14.0703 28.7616 15.5674 28.5513 16.5141H32.4962C32.5174 15.941 32.6433 15.0387 32.7479 14.2463L33.0833 11.9792C33.3563 10.5035 34.5321 8.76511 35.4337 8.76511C35.9588 8.76511 35.9382 9.24874 35.8535 9.90982L34.9111 16.5141H38.5115L39.7777 8.98475ZM58.6287 13.0576L58.2089 15.6557C57.5583 16.0077 56.3411 16.5145 54.9353 16.5145C52.543 16.5145 52.0609 15.2374 52.4381 12.5296L53.0469 8.17039H51.8697L52.2022 5.34864L53.4876 5.28661L53.9705 3.23919L57.5998 1.87411L57.1385 5.28661H59.6356C59.552 5.63861 59.2573 7.57676 59.1747 8.17039H56.7392L56.1936 12.1992C56.0468 13.234 56.1312 13.6083 56.8438 13.6083C57.3697 13.608 58.1454 13.2996 58.6287 13.0576ZM44.8601 14.4609C46.1811 14.2972 47.0903 13.0237 47.3089 11.7531L47.3457 11.4127C46.778 11.2857 45.9575 11.1891 45.1619 11.2864C44.4042 11.3788 43.7738 11.6936 43.4348 12.1495C43.1791 12.4769 43.0507 12.8686 43.1077 13.3357C43.1939 14.0353 43.9674 14.5698 44.8601 14.4609ZM43.7355 16.4733C41.871 16.7024 40.643 15.9623 40.2744 14.2788C40.0432 13.2195 40.3642 12.0128 40.9257 11.2929C41.6777 10.3513 42.9032 9.7468 44.3988 9.56431C45.6023 9.415 46.6164 9.48858 47.565 9.66818L47.6043 9.50553C47.6313 9.2455 47.6587 8.98583 47.6209 8.67494C47.5224 7.87682 46.8931 7.40148 45.339 7.59263C44.2906 7.72138 43.293 8.10006 42.5183 8.53104L41.7649 6.25424C42.8148 5.65159 44.138 5.19284 45.6524 5.00675C48.5452 4.65186 50.5779 5.57441 50.8382 7.69505C50.9071 8.25911 50.9154 8.85671 50.8444 9.39914C50.4729 12.0214 50.2349 13.9946 50.1306 15.3171C50.1137 15.5219 50.1151 15.8736 50.1335 16.3724L46.5436 16.3691C46.62 16.1625 46.6886 15.8822 46.7495 15.5306C46.7899 15.2994 46.8188 15.0076 46.8368 14.6542C46.0783 15.6954 45.0353 16.3136 43.7355 16.4733Z" fill="white"/>
</g>
<defs>
<clipPath id="clip0_3613_11627">
<rect width="72" height="20" fill="white"/>
</clipPath>
</defs>
</svg>
