<svg width="20" height="20" viewBox="0 0 20 20" fill="none" xmlns="http://www.w3.org/2000/svg">
<path fill-rule="evenodd" clip-rule="evenodd" d="M3.7474 3.76774C3.7474 3.53762 3.93394 3.35107 4.16406 3.35107H12.7703C13.0004 3.35107 13.187 3.53762 13.187 3.76774V14.3021C13.187 14.5322 13.0004 14.7188 12.7703 14.7188H1.67057C1.44045 14.7188 1.25391 14.5322 1.25391 14.3021V11.573C1.25391 11.3429 1.44045 11.1563 1.67057 11.1563C1.90069 11.1563 2.08724 11.3429 2.08724 11.573V13.8855H12.3537V4.18441H4.16406C3.93394 4.18441 3.7474 3.99786 3.7474 3.76774Z" fill="#3D3E40"/>
<path fill-rule="evenodd" clip-rule="evenodd" d="M12.3555 6.75028C12.3555 6.52017 12.542 6.33362 12.7721 6.33362H16.4851C16.6064 6.33362 16.7217 6.38648 16.8009 6.47841L19.8145 9.97837C19.8796 10.054 19.9154 10.1505 19.9154 10.2502V14.3019C19.9154 14.532 19.7289 14.7186 19.4988 14.7186H12.7721C12.542 14.7186 12.3555 14.532 12.3555 14.3019V6.75028ZM13.1888 7.16695V13.8853H19.0821V10.4049L16.294 7.16695H13.1888Z" fill="#3D3E40"/>
<path d="M5.31881 16.3077C6.43765 16.3077 7.34466 15.4007 7.34466 14.2818C7.34466 13.163 6.43765 12.256 5.31881 12.256C4.19997 12.256 3.29297 13.163 3.29297 14.2818C3.29297 15.4007 4.19997 16.3077 5.31881 16.3077Z" fill="#FDFBF8"/>
<path fill-rule="evenodd" clip-rule="evenodd" d="M5.31751 12.6727C4.42879 12.6727 3.70833 13.3931 3.70833 14.2819C3.70833 15.1706 4.42879 15.891 5.31751 15.891C6.20623 15.891 6.92669 15.1706 6.92669 14.2819C6.92669 13.3931 6.20623 12.6727 5.31751 12.6727ZM2.875 14.2819C2.875 12.9329 3.96855 11.8394 5.31751 11.8394C6.66647 11.8394 7.76002 12.9329 7.76002 14.2819C7.76002 15.6308 6.66647 16.7244 5.31751 16.7244C3.96855 16.7244 2.875 15.6308 2.875 14.2819Z" fill="#3D3E40"/>
<path d="M15.854 16.3077C16.9728 16.3077 17.8798 15.4007 17.8798 14.2818C17.8798 13.163 16.9728 12.256 15.854 12.256C14.7351 12.256 13.8281 13.163 13.8281 14.2818C13.8281 15.4007 14.7351 16.3077 15.854 16.3077Z" fill="#FDFBF8"/>
<path fill-rule="evenodd" clip-rule="evenodd" d="M15.8527 12.6727C14.9639 12.6727 14.2435 13.3931 14.2435 14.2819C14.2435 15.1706 14.9639 15.891 15.8527 15.891C16.7414 15.891 17.4618 15.1706 17.4618 14.2819C17.4618 13.3931 16.7414 12.6727 15.8527 12.6727ZM13.4102 14.2819C13.4102 12.9329 14.5037 11.8394 15.8527 11.8394C17.2016 11.8394 18.2952 12.9329 18.2952 14.2819C18.2952 15.6308 17.2016 16.7244 15.8527 16.7244C14.5037 16.7244 13.4102 15.6308 13.4102 14.2819Z" fill="#3D3E40"/>
<path fill-rule="evenodd" clip-rule="evenodd" d="M15.9714 8.12646C16.2015 8.12646 16.388 8.31301 16.388 8.54313V10.3884H19.4709V11.2217H15.9714C15.7412 11.2217 15.5547 11.0352 15.5547 10.8051V8.54313C15.5547 8.31301 15.7412 8.12646 15.9714 8.12646Z" fill="#3D3E40"/>
<path fill-rule="evenodd" clip-rule="evenodd" d="M1.38281 6.40007C1.38281 6.16995 1.56936 5.9834 1.79948 5.9834H6.79279C7.02291 5.9834 7.20946 6.16995 7.20946 6.40007C7.20946 6.63018 7.02291 6.81673 6.79279 6.81673H1.79948C1.56936 6.81673 1.38281 6.63018 1.38281 6.40007Z" fill="#3D3E40"/>
<path fill-rule="evenodd" clip-rule="evenodd" d="M0.105469 9.00004C0.105469 8.76992 0.292017 8.58337 0.522135 8.58337H5.51545C5.74557 8.58337 5.93212 8.76992 5.93212 9.00004C5.93212 9.23016 5.74557 9.41671 5.51545 9.41671H0.522135C0.292017 9.41671 0.105469 9.23016 0.105469 9.00004Z" fill="#3D3E40"/>
</svg>
