<svg width="20" height="20" viewBox="0 0 20 20" fill="none" xmlns="http://www.w3.org/2000/svg">
<path d="M14.9987 8.33338L11.6654 5.00005M2.08203 17.9167L4.90234 17.6033C5.24691 17.5651 5.4192 17.5459 5.58024 17.4938C5.72311 17.4475 5.85907 17.3822 5.98444 17.2995C6.12574 17.2063 6.24832 17.0838 6.49347 16.8386L17.4987 5.83338C18.4192 4.91291 18.4192 3.42052 17.4987 2.50005C16.5782 1.57957 15.0859 1.57957 14.1654 2.50005L3.16014 13.5053C2.91499 13.7504 2.79241 13.873 2.69923 14.0143C2.61656 14.1397 2.55121 14.2756 2.50496 14.4185C2.45283 14.5795 2.43368 14.7518 2.3954 15.0964L2.08203 17.9167Z" stroke="#3D3E40" stroke-width="1.07143" stroke-linecap="round" stroke-linejoin="round"/>
</svg>
