<svg width="20" height="20" viewBox="0 0 20 20" fill="none" xmlns="http://www.w3.org/2000/svg">
<path d="M10.4666 17.3506C10.1872 17.5498 9.81276 17.5498 9.53341 17.3506C5.50948 14.4811 1.23798 8.58092 5.55558 4.31773C6.73432 3.15386 8.33302 2.5 10 2.5C11.667 2.5 13.2657 3.15386 14.4444 4.31773C18.762 8.58092 14.4905 14.4811 10.4666 17.3506Z" stroke="#282827" stroke-linecap="round" stroke-linejoin="round"/>
<path d="M10 10.5C11.3807 10.5 12.5 9.38071 12.5 8C12.5 6.61929 11.3807 5.5 10 5.5C8.61929 5.5 7.5 6.61929 7.5 8C7.5 9.38071 8.61929 10.5 10 10.5Z" stroke="#282827" stroke-linecap="round" stroke-linejoin="round"/>
</svg>
