<svg width="20" height="20" viewBox="0 0 20 20" fill="none" xmlns="http://www.w3.org/2000/svg">
<path d="M6.44444 13.5556L13.5556 6.44444M18 10C18 14.4183 14.4183 18 10 18C5.58172 18 2 14.4183 2 10C2 5.58172 5.58172 2 10 2C14.4183 2 18 5.58172 18 10ZM14.4444 12.6667C14.4444 13.6485 13.6485 14.4444 12.6667 14.4444C11.6848 14.4444 10.8889 13.6485 10.8889 12.6667C10.8889 11.6848 11.6848 10.8889 12.6667 10.8889C13.6485 10.8889 14.4444 11.6848 14.4444 12.6667ZM9.11111 7.33333C9.11111 8.31517 8.31517 9.11111 7.33333 9.11111C6.35149 9.11111 5.55556 8.31517 5.55556 7.33333C5.55556 6.35149 6.35149 5.55556 7.33333 5.55556C8.31517 5.55556 9.11111 6.35149 9.11111 7.33333Z" stroke="#282827" stroke-linecap="round" stroke-linejoin="round"/>
</svg>
