<svg width="390" height="29" viewBox="0 0 390 29" fill="none" xmlns="http://www.w3.org/2000/svg">
<path fill-rule="evenodd" clip-rule="evenodd" d="M450.164 0.913005L444.973 5.8453C444.276 6.50761 443.146 6.50761 442.449 5.8453L437.258 0.912891L432.067 5.84529C431.37 6.5076 430.24 6.5076 429.543 5.8453L424.352 0.912946L419.161 5.84529C418.464 6.5076 417.333 6.5076 416.636 5.8453L411.445 0.912946L406.254 5.84529C405.557 6.5076 404.427 6.5076 403.73 5.8453L398.539 0.912946L393.348 5.84529C392.651 6.5076 391.521 6.5076 390.824 5.8453L385.635 0.914802L380.446 5.84529C379.749 6.5076 378.619 6.5076 377.921 5.8453L372.73 0.912946L367.539 5.84529C366.842 6.5076 365.712 6.5076 365.015 5.8453L359.824 0.912946L354.633 5.84529C353.936 6.5076 352.806 6.5076 352.109 5.8453L346.918 0.912946L341.727 5.84529C341.03 6.5076 339.9 6.5076 339.203 5.8453L334.012 0.913036L328.821 5.8453C328.124 6.50761 326.994 6.50761 326.297 5.8453L321.106 0.912862L315.914 5.84529C315.217 6.5076 314.087 6.5076 313.39 5.8453L308.199 0.913038L303.008 5.84548C302.311 6.50778 301.181 6.50779 300.484 5.84548L295.293 0.913038L290.102 5.84529C289.405 6.5076 288.275 6.5076 287.578 5.8453L282.389 0.914802L277.2 5.84529C276.503 6.5076 275.372 6.5076 274.675 5.8453L269.484 0.912946L264.293 5.84529C263.596 6.5076 262.466 6.5076 261.769 5.8453L256.578 0.912946L251.387 5.84529C250.69 6.5076 249.56 6.5076 248.863 5.8453L243.672 0.912946L238.481 5.84529C237.784 6.5076 236.654 6.5076 235.957 5.8453L230.766 0.912847L225.574 5.8453C224.877 6.50761 223.747 6.50761 223.05 5.8453L217.859 0.91305L212.668 5.84529C211.971 6.5076 210.841 6.5076 210.144 5.8453L204.953 0.912946L199.762 5.84529C199.065 6.5076 197.935 6.5076 197.238 5.8453L192.047 0.912945L186.856 5.84529C186.159 6.5076 185.029 6.5076 184.332 5.8453L179.141 0.912944L173.95 5.84529C173.253 6.5076 172.122 6.5076 171.425 5.8453L166.236 0.9148L161.047 5.84529C160.35 6.5076 159.22 6.5076 158.523 5.8453L153.332 0.912944L148.141 5.84529C147.444 6.5076 146.314 6.5076 145.617 5.8453L140.426 0.913036L135.235 5.84548C134.538 6.50778 133.408 6.50779 132.711 5.84548L127.519 0.913036L122.329 5.84529C121.631 6.5076 120.501 6.5076 119.804 5.8453L114.613 0.912882L109.422 5.8453C108.725 6.50761 107.595 6.50761 106.898 5.8453L101.707 0.913012L96.516 5.84529C95.819 6.5076 94.6888 6.5076 93.9918 5.8453L88.8009 0.913036L83.6098 5.84548C82.9127 6.50778 81.7826 6.50779 81.0856 5.84548L75.8945 0.913127L70.7035 5.84548C70.0065 6.50778 68.8763 6.50779 68.1793 5.84548L62.9883 0.913128L57.7973 5.84548C57.1002 6.50778 55.9701 6.50779 55.273 5.84548L50.084 0.91499L44.8949 5.84548C44.1979 6.50778 43.0677 6.50779 42.3707 5.84548L37.1797 0.913135L31.9887 5.84548C31.2916 6.50778 30.1615 6.50779 29.4645 5.84548L24.2734 0.913135L19.0824 5.84548C18.3854 6.50778 17.2552 6.50779 16.5582 5.84548L11.3672 0.913135L6.17617 5.84548C5.47913 6.50778 4.349 6.50779 3.65195 5.84548L-1.53911 0.913088L-6.73016 5.84546C-7.4272 6.50777 -8.55733 6.50777 -9.25437 5.84547L-14.4453 0.913162L-19.6363 5.84548C-20.3334 6.50778 -21.4635 6.50779 -22.1605 5.84548L-27.3516 0.913131L-32.5426 5.84548C-33.2396 6.50778 -34.3698 6.50779 -35.0668 5.84548L-40.2578 0.913132L-45.4488 5.84548C-46.1459 6.50778 -47.276 6.50779 -47.973 5.84548L-53.1641 0.913132L-58.3551 5.84548C-59.0521 6.50778 -60.1823 6.50779 -60.8793 5.84548L-66.8225 0.198413C-66.8878 0.136391 -66.947 0.0707609 -67 0.00219727V29H457V6.30277C456.426 6.42203 455.802 6.26954 455.355 5.8453L450.164 0.913005Z" fill="url(#paint0_linear_1434_19996)"/>
<defs>
<linearGradient id="paint0_linear_1434_19996" x1="195" y1="0.00219727" x2="195" y2="18.2696" gradientUnits="userSpaceOnUse">
<stop stop-color="#F3EFE8"/>
<stop offset="1" stop-color="#F3F1ED"/>
</linearGradient>
</defs>
</svg>
