<svg width="20" height="20" viewBox="0 0 20 20" fill="none" xmlns="http://www.w3.org/2000/svg">
<path d="M4.43155 16.1988C4.93849 15.0044 6.12207 14.1667 7.5013 14.1667H12.5013C13.8805 14.1667 15.0641 15.0044 15.5711 16.1988M13.3346 7.91675C13.3346 9.7577 11.8423 11.2501 10.0013 11.2501C8.16035 11.2501 6.66797 9.7577 6.66797 7.91675C6.66797 6.0758 8.16035 4.58341 10.0013 4.58341C11.8423 4.58341 13.3346 6.0758 13.3346 7.91675ZM18.3346 10.0001C18.3346 14.6025 14.6037 18.3334 10.0013 18.3334C5.39893 18.3334 1.66797 14.6025 1.66797 10.0001C1.66797 5.39771 5.39893 1.66675 10.0013 1.66675C14.6037 1.66675 18.3346 5.39771 18.3346 10.0001Z" stroke="#3D3E40" stroke-linecap="round" stroke-linejoin="round"/>
</svg>
