<svg width="16" height="16" viewBox="0 0 16 16" fill="none" xmlns="http://www.w3.org/2000/svg">
<path fill-rule="evenodd" clip-rule="evenodd" d="M2.99772 3.01424C2.99772 2.83015 3.14696 2.68091 3.33105 2.68091H10.2161C10.4002 2.68091 10.5494 2.83015 10.5494 3.01424V11.4417C10.5494 11.6258 10.4002 11.7751 10.2161 11.7751H1.33626C1.15217 11.7751 1.00293 11.6258 1.00293 11.4417V9.25845C1.00293 9.07436 1.15217 8.92512 1.33626 8.92512C1.52036 8.92512 1.6696 9.07436 1.6696 9.25845V11.1084H9.88274V3.34757H3.33105C3.14696 3.34757 2.99772 3.19834 2.99772 3.01424Z" fill="#3D3E40"/>
<path fill-rule="evenodd" clip-rule="evenodd" d="M9.88379 5.40023C9.88379 5.21613 10.033 5.06689 10.2171 5.06689H13.1875C13.2846 5.06689 13.3768 5.10919 13.4401 5.18273L15.851 7.9827C15.9031 8.04319 15.9318 8.12037 15.9318 8.2002V11.4415C15.9318 11.6256 15.7825 11.7749 15.5984 11.7749H10.2171C10.033 11.7749 9.88379 11.6256 9.88379 11.4415V5.40023ZM10.5505 5.73356V11.1082H15.2651V8.32393L13.0346 5.73356H10.5505Z" fill="#3D3E40"/>
<path d="M4.25446 13.0462C5.14954 13.0462 5.87514 12.3206 5.87514 11.4255C5.87514 10.5304 5.14954 9.80481 4.25446 9.80481C3.35939 9.80481 2.63379 10.5304 2.63379 11.4255C2.63379 12.3206 3.35939 13.0462 4.25446 13.0462Z" fill="#FDFBF8"/>
<path fill-rule="evenodd" clip-rule="evenodd" d="M4.25381 10.1381C3.54283 10.1381 2.96647 10.7145 2.96647 11.4254C2.96647 12.1364 3.54283 12.7128 4.25381 12.7128C4.96479 12.7128 5.54115 12.1364 5.54115 11.4254C5.54115 10.7145 4.96479 10.1381 4.25381 10.1381ZM2.2998 11.4254C2.2998 10.3463 3.17464 9.47144 4.25381 9.47144C5.33298 9.47144 6.20782 10.3463 6.20782 11.4254C6.20782 12.5046 5.33298 13.3795 4.25381 13.3795C3.17464 13.3795 2.2998 12.5046 2.2998 11.4254Z" fill="#3D3E40"/>
<path d="M12.6832 13.0462C13.5782 13.0462 14.3038 12.3206 14.3038 11.4255C14.3038 10.5304 13.5782 9.80481 12.6832 9.80481C11.7881 9.80481 11.0625 10.5304 11.0625 11.4255C11.0625 12.3206 11.7881 13.0462 12.6832 13.0462Z" fill="#FDFBF8"/>
<path fill-rule="evenodd" clip-rule="evenodd" d="M12.6815 10.1381C11.9706 10.1381 11.3942 10.7145 11.3942 11.4254C11.3942 12.1364 11.9706 12.7128 12.6815 12.7128C13.3925 12.7128 13.9689 12.1364 13.9689 11.4254C13.9689 10.7145 13.3925 10.1381 12.6815 10.1381ZM10.7275 11.4254C10.7275 10.3463 11.6024 9.47144 12.6815 9.47144C13.7607 9.47144 14.6356 10.3463 14.6356 11.4254C14.6356 12.5046 13.7607 13.3795 12.6815 13.3795C11.6024 13.3795 10.7275 12.5046 10.7275 11.4254Z" fill="#3D3E40"/>
<path fill-rule="evenodd" clip-rule="evenodd" d="M12.7767 6.50122C12.9608 6.50122 13.11 6.65046 13.11 6.83455V8.31076H15.5764V8.97743H12.7767C12.5926 8.97743 12.4434 8.82819 12.4434 8.6441V6.83455C12.4434 6.65046 12.5926 6.50122 12.7767 6.50122Z" fill="#3D3E40"/>
<path fill-rule="evenodd" clip-rule="evenodd" d="M1.10547 5.12008C1.10547 4.93598 1.25471 4.78674 1.4388 4.78674H5.43345C5.61755 4.78674 5.76679 4.93598 5.76679 5.12008C5.76679 5.30417 5.61755 5.45341 5.43345 5.45341H1.4388C1.25471 5.45341 1.10547 5.30417 1.10547 5.12008Z" fill="#3D3E40"/>
<path fill-rule="evenodd" clip-rule="evenodd" d="M0.0839844 7.20015C0.0839844 7.01606 0.233223 6.86682 0.417318 6.86682H4.41197C4.59606 6.86682 4.7453 7.01606 4.7453 7.20015C4.7453 7.38425 4.59606 7.53349 4.41197 7.53349H0.417318C0.233223 7.53349 0.0839844 7.38425 0.0839844 7.20015Z" fill="#3D3E40"/>
</svg>
