<svg width="62" height="40" viewBox="0 0 62 40" fill="none" xmlns="http://www.w3.org/2000/svg">
<path d="M43.5173 1.21331C45.7197 0.131628 46.8111 0.273577 46.8357 1.36998C46.8651 2.79426 46.6545 4.68827 46.5028 6.05882C45.6854 13.5073 44.3198 19.5939 44.2171 27.2418C47.8144 17.9289 50.8294 11.4561 54.7154 3.48423C55.9489 0.944046 56.7368 1.41883 57.7499 0.968517C61.6948 -0.788514 61.8417 0.288293 61.3276 2.43686C59.414 10.3951 54.5147 35.4519 53.766 39.3102C53.5506 40.4266 52.3369 39.9533 52.0235 39.5168C50.6189 37.5737 49.0332 37.5434 49.2094 36.2513C50.0903 29.8187 53.2618 13.6791 54.089 9.8762C49.8749 18.5156 45.5043 29.3161 43.2578 35.4398C42.783 36.7402 41.9167 36.6448 41.3784 35.6933C40.6197 34.3568 39.1466 33.6744 38.9018 32.095C38.1334 27.0735 39.7828 17.5021 40.0127 11.4468C37.7174 18.0615 33.8656 30.9038 32.177 36.7059C31.482 39.1066 29.1621 38.715 29.7787 36.3751C32.3433 26.6379 37.8692 9.41622 40.2576 3.22489C40.8206 1.7663 42.2937 1.81525 43.5173 1.21331ZM29.5294 0.0190273C28.7854 -0.162023 26.6271 1.00283 25.3006 1.23282C24.8798 1.30623 24.4784 1.75159 24.3364 2.0698C22.2123 6.94944 20.3084 11.601 18.659 15.8386C16.5495 16.1988 14.0829 16.673 11.3224 17.2931C13.2998 12.221 15.2966 7.21854 17.2446 2.40743C18.2038 0.0385356 15.6785 -0.186494 14.6995 2.21166C13.4269 5.3294 11.0434 11.1708 8.40534 17.9793C6.34696 18.4839 4.29908 19.0303 2.26296 19.6184C0.70161 20.0691 0.638123 20.4851 1.31347 21.4214C1.68541 21.9428 2.45385 21.8903 2.8062 22.2618C3.71659 23.2245 4.26966 24.3761 5.89938 24.5504C4.44584 28.4389 2.99213 32.4489 1.67557 36.31C0.848436 38.7336 3.20261 39.2294 4.10812 36.6647C5.56662 32.5305 7.10342 28.3463 8.68427 24.1744C10.0008 23.8685 13.187 23.1822 16.1285 22.544C13.7939 28.9428 12.257 33.8025 11.6747 36.1679C11.5671 36.6231 11.7481 36.8756 11.846 37.0612C12.634 38.2078 13.3828 38.2548 14.3959 39.6727C14.6701 40.0594 15.5902 40.2678 15.9034 39.3159C18.0667 32.7814 20.2936 26.6504 22.3688 21.154C23.2301 20.9656 24.7816 20.5911 25.7311 19.1742C27.4196 16.6595 27.9042 17.1695 28.3105 16.405C28.8196 15.4452 28.4817 14.5442 26.6807 14.7668C26.6807 14.7668 26.0005 14.8152 24.7425 14.9586C26.7394 9.81716 28.4867 5.45628 29.7445 2.13311C30.1754 1.00771 30.2293 0.185447 29.5294 0.0190273Z" fill="#CC071E"/>
<path d="M26.582 33.366C27.0469 34.541 28.5005 34.1852 27.9475 32.7669C27.3845 31.322 25.9848 26.9724 25.6177 25.5711C25.1185 23.6829 27.2819 24.1993 26.1855 25.4337C25.2458 26.4952 24.6192 26.9206 22.8819 28.939C21.2031 30.8874 21.6583 33.4159 23.4545 33.9744C25.4807 34.6047 27.2671 32.3719 28.3732 30.7338C29.4451 29.1476 28.4074 28.2172 27.3259 29.1549C26.6308 29.7579 25.8282 30.684 25.0157 31.1831C24.3549 31.5849 23.8361 31.1533 24.7171 29.9405C25.74 28.5364 26.8853 27.3598 27.7369 26.0328C29.4744 23.3287 26.0386 21.7699 24.5605 23.5265C23.7675 24.4628 23.9684 25.382 24.1836 26.1709C24.5312 27.4346 25.8233 31.4686 26.582 33.366Z" fill="#CC071E"/>
</svg>
