<svg width="14" height="16" viewBox="0 0 14 16" fill="none" xmlns="http://www.w3.org/2000/svg">
<mask id="path-1-inside-1_1455_2514" fill="white">
<path d="M0 0H6.25V7.25H0V0Z"/>
</mask>
<path d="M0 0H6.25V7.25H0V0Z" fill="#3D3E40"/>
<path d="M0 0V-0.5H-0.5V0H0ZM6.25 0H6.75V-0.5H6.25V0ZM6.25 7.25V7.75H6.75V7.25H6.25ZM0 7.25H-0.5V7.75H0V7.25ZM0 0.5H6.25V-0.5H0V0.5ZM5.75 0V7.25H6.75V0H5.75ZM6.25 6.75H0V7.75H6.25V6.75ZM0.5 7.25V0H-0.5V7.25H0.5Z" fill="#3D3E40" mask="url(#path-1-inside-1_1455_2514)"/>
<mask id="path-3-inside-2_1455_2514" fill="white">
<path d="M7.75 0H14V7.25H7.75V0Z"/>
</mask>
<path d="M7.75 0H14V7.25H7.75V0Z" fill="#3D3E40"/>
<path d="M7.75 0V-0.5H7.25V0H7.75ZM14 0H14.5V-0.5H14V0ZM14 7.25V7.75H14.5V7.25H14ZM7.75 7.25H7.25V7.75H7.75V7.25ZM7.75 0.5H14V-0.5H7.75V0.5ZM13.5 0V7.25H14.5V0H13.5ZM14 6.75H7.75V7.75H14V6.75ZM8.25 7.25V0H7.25V7.25H8.25Z" fill="#3D3E40" mask="url(#path-3-inside-2_1455_2514)"/>
<mask id="path-5-inside-3_1455_2514" fill="white">
<path d="M0 8.75H6.25V16H0V8.75Z"/>
</mask>
<path d="M0 8.75H6.25V16H0V8.75Z" fill="#3D3E40"/>
<path d="M0 8.75V8.25H-0.5V8.75H0ZM6.25 8.75H6.75V8.25H6.25V8.75ZM6.25 16V16.5H6.75V16H6.25ZM0 16H-0.5V16.5H0V16ZM0 9.25H6.25V8.25H0V9.25ZM5.75 8.75V16H6.75V8.75H5.75ZM6.25 15.5H0V16.5H6.25V15.5ZM0.5 16V8.75H-0.5V16H0.5Z" fill="#3D3E40" mask="url(#path-5-inside-3_1455_2514)"/>
<mask id="path-7-inside-4_1455_2514" fill="white">
<path d="M7.75 8.75H14V16H7.75V8.75Z"/>
</mask>
<path d="M7.75 8.75H14V16H7.75V8.75Z" fill="#3D3E40"/>
<path d="M7.75 8.75V8.25H7.25V8.75H7.75ZM14 8.75H14.5V8.25H14V8.75ZM14 16V16.5H14.5V16H14ZM7.75 16H7.25V16.5H7.75V16ZM7.75 9.25H14V8.25H7.75V9.25ZM13.5 8.75V16H14.5V8.75H13.5ZM14 15.5H7.75V16.5H14V15.5ZM8.25 16V8.75H7.25V16H8.25Z" fill="#3D3E40" mask="url(#path-7-inside-4_1455_2514)"/>
</svg>
