<svg width="90" height="80" viewBox="0 0 90 80" fill="none" xmlns="http://www.w3.org/2000/svg">
<path d="M43.7635 28.8355C43.6864 28.8355 43.6092 28.8239 43.532 28.7969L4.02586 15.8646C3.72108 15.7643 3.5166 15.4826 3.5166 15.1624C3.5166 14.8384 3.72108 14.5567 4.02586 14.4564L43.532 1.51617C43.6825 1.46987 43.8445 1.46987 43.995 1.51617L83.5012 14.4564C83.8059 14.5567 84.0104 14.8384 84.0104 15.1624C84.0104 15.4826 83.8059 15.7643 83.5012 15.8646L43.995 28.7969C43.9178 28.8239 43.8407 28.8355 43.7635 28.8355ZM6.63759 15.1624L43.7635 27.3155L80.8894 15.1664L43.7635 3.00638L6.63759 15.1624Z" fill="#3D3E40"/>
<path d="M43.7635 78.4535C43.6864 78.4535 43.6092 78.4419 43.5359 78.4188L4.02972 65.68C3.72494 65.5797 3.5166 65.2942 3.5166 64.974V15.1626C3.5166 14.7498 3.84839 14.4219 4.25734 14.4219C4.66629 14.4219 4.99808 14.7498 4.99808 15.1626V64.4377L43.9907 77.0076C44.3379 77.1194 44.5501 77.4666 44.4961 77.8293C44.4382 78.1881 44.13 78.4535 43.7635 78.4535Z" fill="#3D3E40"/>
<path d="M43.7652 78.4535C43.3562 78.4535 43.0244 78.1217 43.0244 77.7127V28.095C43.0244 27.686 43.3562 27.3542 43.7652 27.3542C44.1741 27.3542 44.5059 27.686 44.5059 28.095V76.6984L82.5306 64.4377V15.1626C82.5306 14.7498 82.8624 14.4219 83.2713 14.4219C83.6803 14.4219 84.0121 14.7498 84.0121 15.1626V64.974C84.0121 65.298 83.8037 65.5835 83.4989 65.68L43.9928 78.4188V78.4226C43.9195 78.4458 43.8423 78.4535 43.7652 78.4535Z" fill="#3D3E40"/>
<path d="M55.5877 37.5121C55.1788 37.5121 54.847 37.1803 54.847 36.7713V24.715L21.0277 10.2706C20.6959 10.1394 20.5069 9.79217 20.5725 9.4411C20.6381 9.09388 20.9429 8.84311 21.2978 8.83924C21.402 8.83924 21.5023 8.86239 21.5949 8.90097L55.8773 23.542C56.1513 23.6577 56.3287 23.9278 56.3287 24.2248V35.7952L68.7751 32.3384L68.7713 20.1547L34.9323 5.70237C34.5696 5.53647 34.4037 5.10823 34.5619 4.73786C34.7201 4.37135 35.1406 4.19388 35.5148 4.34049L69.7854 18.9736V18.9774C70.0709 19.0893 70.2561 19.3632 70.2561 19.668V32.9006C70.2561 33.2363 70.0324 33.5256 69.7121 33.6144L55.7842 37.4801L55.7881 37.484C55.7225 37.4994 55.6531 37.511 55.5875 37.511L55.5877 37.5121Z" fill="#3D3E40"/>
<path fill-rule="evenodd" clip-rule="evenodd" d="M20.3528 50.6117C21.046 50.9569 21.9878 51.3028 23.4425 51.8322C24.8972 52.3617 25.8389 52.7013 26.5321 52.8608C27.1844 53.0108 27.3842 52.9424 27.4926 52.873C27.6011 52.8035 27.7415 52.6539 27.8285 52.0303C27.9209 51.3675 27.924 50.4225 27.924 48.9611C27.924 47.4997 27.9209 46.5525 27.8285 45.8224C27.7415 45.1355 27.6011 44.8836 27.4926 44.7352C27.3842 44.5869 27.1844 44.373 26.5321 44.0482C25.8389 43.7031 24.8972 43.3572 23.4425 42.8277C21.9878 42.2982 21.046 41.9586 20.3528 41.7992C19.7005 41.6491 19.5007 41.7175 19.3923 41.7869C19.2839 41.8564 19.1434 42.006 19.0565 42.6297C18.964 43.2924 18.9609 44.2374 18.9609 45.6988C18.9609 47.1602 18.964 48.1074 19.0565 48.8375C19.1434 49.5244 19.2839 49.7763 19.3923 49.9247C19.5007 50.0731 19.7005 50.2869 20.3528 50.6117ZM18.3351 40.3401C17.4658 40.897 17.4658 42.3162 17.4658 45.1547C17.4658 47.9931 17.4658 49.4123 18.3351 50.602C19.2044 51.7917 20.6171 52.3059 23.4425 53.3342C26.2679 54.3626 27.6805 54.8767 28.5499 54.3199C29.4191 53.7629 29.4191 52.3437 29.4191 49.5053C29.4191 46.6669 29.4191 45.2476 28.5499 44.0579C27.6805 42.8682 26.2679 42.3541 23.4425 41.3257C20.6171 40.2974 19.2044 39.7832 18.3351 40.3401ZM21.9155 49.3458C21.1392 48.781 20.6169 48.1597 20.2524 47.6292L21.3523 47.0122C21.5915 47.3603 21.9202 47.7519 22.4242 48.1185C22.9207 48.4797 23.6453 48.7837 24.2106 48.8461C24.7672 48.9076 25.2607 48.7502 25.5261 48.5439L26.6485 49.9446C26.1881 50.3027 25.4329 50.5302 24.5765 50.4356C23.7287 50.342 22.6993 49.9159 21.9155 49.3458Z" fill="#3D3E40"/>
<rect x="59.7666" y="48.8887" width="29.6296" height="29.6296" rx="14.8148" fill="#3D3E40"/>
<g clip-path="url(#clip0_2590_7366)">
<path d="M72.6616 66.7487L81.488 57.9214L82.8467 59.2791L72.6616 69.4642L66.5508 63.3533L67.9085 61.9956L72.6616 66.7487Z" fill="#00FF95"/>
</g>
<defs>
<clipPath id="clip0_2590_7366">
<rect width="23.0453" height="23.0453" fill="white" transform="translate(63.0586 52.1807)"/>
</clipPath>
</defs>
</svg>
