<svg width="292" height="36" viewBox="0 0 292 36" fill="none" xmlns="http://www.w3.org/2000/svg">
<path fill-rule="evenodd" clip-rule="evenodd" d="M226.071 16.0841C226.77 16.4105 227.547 16.5738 228.402 16.5738C229.257 16.5738 230.01 16.4166 230.66 16.1022C231.323 15.7878 231.834 15.3586 232.196 14.8145C232.569 14.2583 232.756 13.6174 232.756 12.892C232.756 11.9972 232.485 11.2536 231.943 10.6611C231.401 10.0686 230.6 9.61524 229.54 9.30087L227.408 8.66605C226.686 8.44841 226.15 8.12197 225.8 7.68667C225.451 7.23928 225.276 6.73752 225.276 6.1813C225.276 5.72183 225.385 5.32282 225.602 4.98427C225.818 4.64571 226.12 4.38575 226.505 4.20438C226.902 4.02301 227.36 3.93232 227.878 3.93232C228.697 3.93232 229.407 4.13787 230.01 4.54898C230.624 4.96008 231.076 5.56465 231.365 6.36268L232.629 5.85483C232.437 5.26237 232.117 4.7243 231.672 4.24065C231.226 3.757 230.678 3.37008 230.028 3.07989C229.389 2.77761 228.667 2.62646 227.86 2.62646C227.089 2.62646 226.396 2.78365 225.782 3.09802C225.18 3.4124 224.704 3.84768 224.355 4.40388C224.006 4.94799 223.831 5.57674 223.831 6.29012C223.831 7.12442 224.084 7.86802 224.59 8.52097C225.108 9.17391 225.843 9.63941 226.794 9.91751L229.215 10.643C229.889 10.8364 230.407 11.1145 230.768 11.4773C231.13 11.84 231.311 12.3539 231.311 13.0189C231.311 13.4663 231.19 13.8593 230.949 14.1978C230.708 14.5364 230.365 14.8024 229.919 14.9959C229.486 15.1772 228.98 15.2679 228.402 15.2679C227.487 15.2679 226.698 15.0321 226.035 14.5606C225.373 14.0769 224.885 13.3756 224.572 12.4567L223.271 12.9464C223.476 13.6114 223.819 14.222 224.301 14.7782C224.783 15.3223 225.373 15.7576 226.071 16.0841ZM239.322 4.20438V16.3561H240.767V4.20438H244.453V2.84411H235.601V4.20438H239.322ZM250.839 16.0659C251.658 16.4045 252.537 16.5738 253.476 16.5738C254.416 16.5738 255.289 16.4045 256.096 16.0659C256.915 15.7153 257.631 15.2316 258.246 14.615C258.86 13.9862 259.342 13.2487 259.691 12.4023C260.04 11.5438 260.215 10.6067 260.215 9.59104C260.215 8.57536 260.04 7.64434 259.691 6.79795C259.342 5.95158 258.86 5.22005 258.246 4.60339C257.631 3.97464 256.915 3.49099 256.096 3.15244C255.289 2.80179 254.416 2.62646 253.476 2.62646C252.537 2.62646 251.658 2.79574 250.839 3.1343C250.032 3.47286 249.321 3.95651 248.707 4.58525C248.093 5.20191 247.611 5.93948 247.262 6.79795C246.912 7.64434 246.738 8.57536 246.738 9.59104C246.738 10.6067 246.912 11.5438 247.262 12.4023C247.611 13.2487 248.093 13.9862 248.707 14.615C249.321 15.2316 250.032 15.7153 250.839 16.0659ZM255.608 14.7782C254.97 15.0684 254.259 15.2135 253.476 15.2135C252.706 15.2135 251.995 15.0684 251.345 14.7782C250.694 14.488 250.134 14.083 249.665 13.563C249.195 13.0431 248.827 12.4446 248.562 11.7675C248.31 11.0903 248.183 10.3649 248.183 9.59104C248.183 8.82931 248.31 8.10987 248.562 7.43276C248.827 6.75565 249.195 6.15713 249.665 5.63719C250.134 5.11727 250.688 4.71221 251.327 4.42202C251.977 4.13183 252.694 3.98673 253.476 3.98673C254.259 3.98673 254.97 4.13183 255.608 4.42202C256.258 4.71221 256.819 5.11727 257.288 5.63719C257.758 6.15713 258.119 6.75565 258.372 7.43276C258.637 8.10987 258.77 8.82931 258.77 9.59104C258.77 10.3649 258.637 11.0903 258.372 11.7675C258.119 12.4446 257.758 13.0431 257.288 13.563C256.819 14.083 256.258 14.488 255.608 14.7782ZM264.441 2.84411V16.3561H265.886V11.0964H269.167L272.137 16.3561H273.836L270.692 10.8606C271.547 10.5825 272.222 10.1049 272.715 9.42782C273.221 8.75071 273.474 7.93455 273.474 6.97933C273.474 6.15713 273.288 5.43769 272.914 4.82103C272.553 4.19229 272.041 3.70863 271.379 3.37008C270.716 3.01943 269.945 2.84411 269.066 2.84411H264.441ZM269.139 9.73613H265.886V4.20438H269.139C269.716 4.20438 270.222 4.31925 270.656 4.54898C271.09 4.76662 271.427 5.081 271.668 5.4921C271.909 5.90319 272.029 6.39291 272.029 6.9612C272.029 7.52948 271.909 8.02521 271.668 8.44841C271.427 8.85954 271.09 9.17994 270.656 9.40969C270.222 9.62731 269.716 9.73613 269.139 9.73613ZM277.46 2.84411V16.3561H286.132V14.9959H278.905V10.2621H285.77V8.90183H278.905V4.20438H286.132V2.84411H277.46ZM12.2839 29.2565C14.1069 29.4922 16.5835 29.5002 20.4093 29.5002C24.2349 29.5002 26.7115 29.4922 28.5346 29.2565C30.25 29.0347 30.7756 28.6765 31.0607 28.4C31.3458 28.1236 31.7151 27.614 31.9439 25.9505C32.1869 24.1827 32.1952 21.7811 32.1952 18.0714C32.1952 14.3616 32.1869 11.96 31.9439 10.1922C31.7151 8.52878 31.3458 8.01914 31.0607 7.74269C30.7756 7.46623 30.25 7.108 28.5346 6.88622C26.7115 6.65054 24.2349 6.64257 20.4093 6.64257C16.5835 6.64257 14.1069 6.65054 12.2839 6.88622C10.5684 7.108 10.0429 7.46623 9.75777 7.74269C9.47268 8.01914 9.1033 8.52878 8.87457 10.1922C8.63152 11.96 8.6233 14.3616 8.6233 18.0714C8.6233 21.7811 8.63152 24.1827 8.87457 25.9505C9.1033 27.614 9.47268 28.1236 9.75777 28.4C10.0429 28.6765 10.5684 29.0347 12.2839 29.2565ZM6.97751 5.04664C4.69141 7.26347 4.69141 10.8661 4.69141 18.0714C4.69141 25.2767 4.69141 28.8792 6.97751 31.0961C9.2636 33.3129 12.9788 33.3129 20.4093 33.3129C27.8397 33.3129 31.5548 33.3129 33.841 31.0961C36.127 28.8792 36.1271 25.2767 36.1271 18.0714C36.1271 10.8661 36.127 7.26347 33.841 5.04664C31.5548 2.82982 27.8397 2.82982 20.4093 2.82982C12.9788 2.82982 9.2636 2.82982 6.97751 5.04664ZM16.3936 24.5992C14.3518 23.8829 12.9784 22.7882 12.0196 21.7783L14.9123 19.1959C15.5414 19.8584 16.4059 20.5489 17.7313 21.0139C19.0372 21.4719 20.9427 21.5741 22.4294 21.2103C23.8932 20.8521 25.1909 19.9967 25.8889 19.2277L28.8406 21.7465C27.6298 23.0807 25.6439 24.356 23.3914 24.9072C21.1621 25.4527 18.4548 25.3224 16.3936 24.5992ZM59.9017 2.83139C62.0973 2.83139 64.0645 3.30138 65.8037 4.24138C67.5426 5.18137 68.8969 6.49459 69.8664 8.18106C70.8642 9.86753 71.3633 11.8166 71.3633 14.0284C71.3633 16.2401 70.8642 18.203 69.8664 19.9172C68.8969 21.6037 67.5426 22.9169 65.8037 23.8569C64.0645 24.7968 62.0973 25.2669 59.9017 25.2669C58.2768 25.2669 56.7799 24.9628 55.4113 24.3545C54.0712 23.7463 52.9309 22.8616 51.99 21.7005V33.3145H47.8844V2.83139H51.8188V6.52225C52.7315 5.30579 53.8861 4.39344 55.283 3.78521C56.6802 3.14933 58.2197 2.83139 59.9017 2.83139ZM59.5597 21.7834C61.0138 21.7834 62.311 21.4655 63.4513 20.8295C64.6202 20.1661 65.5328 19.2537 66.1886 18.0925C66.8729 16.9036 67.2149 15.549 67.2149 14.0284C67.2149 12.5078 66.8729 11.1669 66.1886 10.0058C65.5328 8.81695 64.6202 7.9046 63.4513 7.26871C62.311 6.63285 61.0138 6.31489 59.5597 6.31489C58.1343 6.31489 56.8371 6.64667 55.6682 7.31018C54.5275 7.94608 53.6152 8.84458 52.9309 10.0058C52.2752 11.1669 51.9474 12.5078 51.9474 14.0284C51.9474 15.549 52.2752 16.9036 52.9309 18.0925C53.5866 19.2537 54.499 20.1661 55.6682 20.8295C56.8371 21.4655 58.1343 21.7834 59.5597 21.7834ZM96.8101 2.83139V25.018H92.8757V21.5345C91.9634 22.751 90.8084 23.6772 89.4116 24.3131C88.0146 24.949 86.4749 25.2669 84.7928 25.2669C82.5976 25.2669 80.6304 24.7968 78.8912 23.8569C77.1519 22.9169 75.7833 21.6037 74.7856 19.9172C73.8161 18.203 73.3315 16.2401 73.3315 14.0284C73.3315 11.8166 73.8161 9.86753 74.7856 8.18106C75.7833 6.49459 77.1519 5.18137 78.8912 4.24138C80.6304 3.30138 82.5976 2.83139 84.7928 2.83139C86.418 2.83139 87.9146 3.1355 89.2833 3.74374C90.6519 4.32432 91.7922 5.1952 92.7045 6.35636V2.83139H96.8101ZM85.1351 21.7834C86.5603 21.7834 87.8578 21.4655 89.0267 20.8295C90.1956 20.1661 91.1079 19.2537 91.7636 18.0925C92.4194 16.9036 92.7474 15.549 92.7474 14.0284C92.7474 12.5078 92.4194 11.1669 91.7636 10.0058C91.1079 8.81695 90.1956 7.9046 89.0267 7.26871C87.8578 6.63285 86.5603 6.31489 85.1351 6.31489C83.6807 6.31489 82.3693 6.63285 81.2004 7.26871C80.0601 7.9046 79.1477 8.81695 78.4634 10.0058C77.8077 11.1669 77.4796 12.5078 77.4796 14.0284C77.4796 15.549 77.8077 16.9036 78.4634 18.0925C79.1477 19.2537 80.0601 20.1661 81.2004 20.8295C82.3693 21.4655 83.6807 21.7834 85.1351 21.7834ZM122.067 22.0322V2.83139H117.962V13.2405C117.962 15.5628 117.335 17.3598 116.08 18.6317C114.825 19.9034 113.115 20.5393 110.948 20.5393C108.981 20.5393 107.47 20.0001 106.415 18.9219C105.36 17.816 104.833 16.2125 104.833 14.1113V2.83139H100.727V14.5675C100.727 17.7193 101.597 20.0969 103.336 21.7005C105.075 23.3039 107.455 24.1058 110.478 24.1058C112.018 24.1058 113.443 23.8293 114.755 23.2763C116.066 22.6957 117.135 21.8802 117.962 20.8295V22.4469C117.962 24.9351 117.377 26.7736 116.209 27.9625C115.039 29.179 113.215 29.7872 110.734 29.7872C109.167 29.7872 107.669 29.5384 106.244 29.0407C104.847 28.543 103.649 27.8519 102.651 26.9672L100.641 30.036C101.81 31.0866 103.307 31.8883 105.132 32.4413C106.985 33.0219 108.924 33.3122 110.948 33.3122C114.655 33.3122 117.434 32.386 119.288 30.5336C121.141 28.7089 122.067 25.8751 122.067 22.0322ZM138.005 2.83139C140.201 2.83139 142.168 3.30138 143.907 4.24138C145.647 5.18137 147.001 6.49459 147.97 8.18106C148.968 9.86753 149.466 11.8166 149.466 14.0284C149.466 16.2401 148.968 18.2031 147.97 19.9173C147.001 21.6037 145.647 22.9169 143.907 23.8569C142.168 24.7969 140.201 25.2669 138.005 25.2669C136.38 25.2669 134.884 24.9628 133.515 24.3545C132.175 23.7463 131.035 22.8616 130.094 21.7004V33.3145H125.988V2.83139H129.923V6.52225C130.835 5.30579 131.989 4.39344 133.387 3.78521C134.784 3.14933 136.324 2.83139 138.005 2.83139ZM137.663 21.7834C139.117 21.7834 140.415 21.4654 141.555 20.8295C142.724 20.166 143.636 19.2536 144.292 18.0925C144.977 16.9037 145.319 15.549 145.319 14.0284C145.319 12.5078 144.977 11.1669 144.292 10.0058C143.636 8.81695 142.724 7.9046 141.555 7.26871C140.415 6.63285 139.117 6.31489 137.663 6.31489C136.238 6.31489 134.94 6.64667 133.772 7.31018C132.631 7.94608 131.719 8.84458 131.035 10.0058C130.379 11.1669 130.051 12.5078 130.051 14.0284C130.051 15.549 130.379 16.9037 131.035 18.0925C131.691 19.2536 132.603 20.166 133.772 20.8295C134.94 21.4654 136.238 21.7834 137.663 21.7834ZM170.338 4.24138C168.6 3.30138 166.633 2.83139 164.437 2.83139C162.755 2.83139 161.215 3.14933 159.818 3.78521C158.421 4.39344 157.266 5.30579 156.354 6.52225V2.83139H152.419V33.3145H156.526V21.7004C157.466 22.8616 158.607 23.7463 159.947 24.3545C161.315 24.9628 162.812 25.2669 164.437 25.2669C166.633 25.2669 168.6 24.7969 170.338 23.8569C172.078 22.9169 173.432 21.6037 174.401 19.9173C175.399 18.2031 175.898 16.2401 175.898 14.0284C175.898 11.8166 175.399 9.86753 174.401 8.18106C173.432 6.49459 172.078 5.18137 170.338 4.24138ZM167.986 20.8295C166.846 21.4654 165.549 21.7834 164.095 21.7834C162.67 21.7834 161.372 21.4654 160.203 20.8295C159.034 20.166 158.122 19.2536 157.466 18.0925C156.81 16.9037 156.482 15.549 156.482 14.0284C156.482 12.5078 156.81 11.1669 157.466 10.0058C158.15 8.84458 159.063 7.94608 160.203 7.31018C161.372 6.64667 162.67 6.31489 164.095 6.31489C165.549 6.31489 166.846 6.63285 167.986 7.26871C169.156 7.9046 170.068 8.81695 170.724 10.0058C171.408 11.1669 171.75 12.5078 171.75 14.0284C171.75 15.549 171.408 16.9037 170.724 18.0925C170.068 19.2536 169.156 20.166 167.986 20.8295ZM200.181 2.83139V22.0322C200.181 25.8751 199.254 28.7089 197.401 30.5336C195.548 32.386 192.768 33.3121 189.061 33.3121C187.037 33.3121 185.099 33.0219 183.245 32.4413C181.42 31.8883 179.924 31.0866 178.755 30.036L180.764 26.9671C181.762 27.8518 182.96 28.543 184.357 29.0407C185.783 29.5384 187.28 29.7872 188.848 29.7872C191.327 29.7872 193.153 29.1789 194.322 27.9625C195.49 26.7736 196.075 24.9352 196.075 22.4469V20.8295C195.248 21.8802 194.179 22.6957 192.868 23.2763C191.557 23.8293 190.131 24.1057 188.591 24.1057C185.569 24.1057 183.188 23.304 181.449 21.7004C179.71 20.0969 178.84 17.7192 178.84 14.5675V2.83139H182.946V14.1114C182.946 16.2125 183.473 17.816 184.529 18.9219C185.583 20.0001 187.094 20.5393 189.061 20.5393C191.229 20.5393 192.939 19.9033 194.194 18.6316C195.448 17.3598 196.075 15.5628 196.075 13.2405V2.83139H200.181ZM209.114 2.85757H210.191L212.062 7.42692H212.131L214.002 2.85757H215.079V8.73572H214.235V4.4821H214.18L212.447 8.72712H211.746L210.013 4.47923H209.958V8.73572H209.114V2.85757ZM203.56 2.85759V3.62106H205.391V8.73572H206.275V3.62106H208.109V2.85759H203.56ZM287.125 29.1864H222.087V33.3145H287.125V29.1864Z" fill="white"/>
</svg>
