<svg width="75" height="16" viewBox="0 0 75 16" fill="none" xmlns="http://www.w3.org/2000/svg">
<g clip-path="url(#clip0_2590_6971)">
<path d="M7.19488 5.4458L5.23483 12.9483H0.446289L1.41727 9.25734L7.19488 5.4458Z" fill="#1B2838"/>
<path d="M17.3867 3.06348C18.5084 3.06951 19.2985 3.31677 19.7447 3.81734C20.191 4.31791 20.2996 5.02955 20.0523 5.96434C19.8895 6.60362 19.5578 7.18862 19.0934 7.653C18.6109 8.13547 18.0199 8.48526 17.3625 8.66619C17.8631 8.78078 18.1707 9.1366 18.2672 9.74572L18.2853 9.8784L18.6471 12.9481H16.4157L16.0418 9.6432C16.0357 9.53464 16.0056 9.42609 15.9513 9.32959C15.897 9.2331 15.8186 9.15469 15.7282 9.09439C15.5412 8.99789 15.3362 8.94964 15.1251 8.94361H14.9984H13.6234L12.574 12.9421H10.4873L13.0806 3.06348H17.3867ZM74.5536 5.65074L71.9 9.47433L68.77 14.0096L68.7459 14.0337L68.0463 15.0469L68.0222 15.0831L67.992 15.1313L67.3889 15.9998H65.3143L67.7387 12.5803L66.6411 5.89197H68.7941L69.3369 10.2523L71.9664 6.51919L72.0026 6.46491L72.0448 6.4046L72.087 6.35032L72.4127 5.65677H74.5536V5.65074ZM56.1714 6.18146C56.5695 6.51919 56.8288 6.98357 56.9193 7.50223C57.0278 8.14753 56.9796 8.81696 56.7926 9.44418C56.6177 10.1377 56.3222 10.7891 55.9121 11.368C55.5382 11.8988 55.0557 12.339 54.4948 12.6526C53.9641 12.9421 53.3791 13.0929 52.776 13.0929C52.3478 13.111 51.9257 13.0024 51.5578 12.7853C51.2743 12.6164 51.0572 12.3571 50.9366 12.0495L50.9004 11.9289L49.8329 15.9998H47.7643L49.8812 7.91836L49.8933 7.88217L49.8993 7.84599L50.4179 5.88594H52.4383L52.0945 7.01975L52.0885 7.068C52.384 6.64584 52.7821 6.30207 53.2404 6.07893C53.6988 5.83769 54.2054 5.71708 54.718 5.71708C55.2306 5.68692 55.7493 5.85579 56.1714 6.18146ZM53.6746 7.30321C53.4334 7.29717 53.1922 7.34542 52.963 7.43589C52.7398 7.52635 52.5348 7.66506 52.3599 7.83393C51.9498 8.25609 51.6663 8.79284 51.5397 9.36578C51.3588 10.0352 51.3708 10.5418 51.5518 10.8916C51.7327 11.2414 52.0764 11.4223 52.5891 11.4223C53.0776 11.4344 53.548 11.2474 53.9038 10.9037C54.3019 10.4875 54.5793 9.96887 54.7059 9.40196C54.8808 8.74459 54.8688 8.2199 54.6878 7.85202C54.5069 7.48413 54.1692 7.30321 53.6746 7.30321ZM62.9622 6.02465C63.2397 6.19955 63.4568 6.45888 63.5774 6.76645L63.6196 6.88104L63.885 5.87991H65.9114L64.0538 12.9361H62.0214L62.2928 11.8927C61.9852 12.2606 61.5993 12.5501 61.165 12.7491C60.7429 12.9421 60.2905 13.0446 59.8322 13.0446C59.3015 13.0688 58.7708 12.918 58.3365 12.5983C57.9385 12.2847 57.6731 11.8264 57.5887 11.3258C57.4801 10.6865 57.5163 10.0352 57.7033 9.41402C57.8842 8.72047 58.1858 8.0631 58.6019 7.4781C58.9818 6.94135 59.4703 6.48903 60.0372 6.16336C60.5559 5.86182 61.1469 5.69898 61.744 5.69898C62.1782 5.68692 62.6004 5.79548 62.9622 6.02465ZM61.9129 7.3213C61.6656 7.3213 61.4183 7.36955 61.1952 7.46604C60.966 7.56253 60.761 7.70125 60.5861 7.87614C60.182 8.30434 59.8925 8.83506 59.7659 9.41402C59.597 10.0654 59.597 10.5599 59.79 10.9157C59.9769 11.2715 60.3267 11.4404 60.8454 11.4404C61.0866 11.4464 61.3279 11.3982 61.557 11.3077C61.7862 11.2173 61.9852 11.0786 62.1601 10.9097C62.5159 10.5297 62.7753 10.0774 62.92 9.57083L62.9683 9.38387C63.1492 8.71444 63.1432 8.20181 62.9502 7.85805C62.7632 7.50223 62.4195 7.3213 61.9129 7.3213ZM49.3746 5.80754L49.5073 5.86182L48.9886 7.78568C48.6931 7.62887 48.3674 7.55047 48.0418 7.55047C47.5472 7.53238 47.0648 7.69521 46.6728 8.00279C46.335 8.29227 46.0878 8.67825 45.9611 9.10042L45.9189 9.26325L44.9539 12.9481H42.8914L44.761 5.89197H46.7934L46.528 6.92929C46.7813 6.5795 47.107 6.29604 47.4749 6.08496C47.885 5.84976 48.3433 5.72914 48.8137 5.72914C49.0007 5.71708 49.1937 5.7412 49.3746 5.80754ZM41.7576 6.14527C42.2159 6.43475 42.5476 6.8931 42.6743 7.42382C42.825 8.0631 42.8009 8.73856 42.6079 9.36578C42.427 10.0774 42.1074 10.7408 41.655 11.3077C41.2268 11.8565 40.6841 12.2908 40.0629 12.5863C39.4296 12.8818 38.7421 13.0326 38.0425 13.0265C37.3068 13.0265 36.7037 12.8818 36.2333 12.5863C35.7689 12.2968 35.4372 11.8384 35.3045 11.3077C35.1598 10.6685 35.1839 9.99299 35.3708 9.36578C35.5518 8.66016 35.8714 7.99676 36.3237 7.42382C36.7519 6.88104 37.3007 6.44079 37.9279 6.14527C38.5672 5.84976 39.2668 5.69295 39.9724 5.70501C40.5936 5.67486 41.2148 5.83166 41.7576 6.14527ZM39.5502 7.29717C39.0617 7.29114 38.5913 7.4781 38.2355 7.81583C37.8676 8.16563 37.5902 8.67825 37.4153 9.36578C37.0535 10.7469 37.4032 11.4344 38.4647 11.4344C38.9472 11.4464 39.4115 11.2595 39.7613 10.9218C40.1232 10.578 40.3885 10.0593 40.5695 9.36578C40.7504 8.68428 40.7564 8.17166 40.5755 7.81583C40.4006 7.46001 40.0568 7.29717 39.5502 7.29717ZM35.3588 5.88594L34.9969 7.28511L30.4436 11.3077H34.0983L33.6641 12.9542H27.6151L27.995 11.5007L32.476 7.53841H29.0685L29.5028 5.89197H35.3588V5.88594ZM25.1484 6.02465C25.4259 6.19955 25.643 6.45888 25.7636 6.76645L25.8058 6.88104L26.0712 5.87991H28.1036L26.2521 12.9361H24.2197L24.4911 11.8927C24.1835 12.2546 23.8036 12.5441 23.3754 12.7431C22.9472 12.9421 22.4828 13.0446 22.0063 13.0446C21.4756 13.0688 20.957 12.912 20.5288 12.5983C20.1307 12.2847 19.8654 11.8264 19.7809 11.3258C19.6724 10.6865 19.7086 10.0352 19.8955 9.41402C20.0704 8.72047 20.378 8.0631 20.7941 7.4781C21.1741 6.94135 21.6626 6.48903 22.2235 6.16336C22.7421 5.86182 23.3331 5.70501 23.9302 5.70501C24.3644 5.69295 24.7866 5.80151 25.1484 6.02465ZM24.1051 7.3213C23.8578 7.3213 23.6166 7.36955 23.3874 7.46604C23.1582 7.56253 22.9532 7.70125 22.7783 7.87614C22.3682 8.30434 22.0847 8.83506 21.9581 9.41402C21.7892 10.0654 21.7953 10.5599 21.9822 10.9157C22.1692 11.2715 22.519 11.4404 23.0376 11.4404C23.2789 11.4464 23.5201 11.3982 23.7493 11.3077C23.9724 11.2173 24.1835 11.0786 24.3524 10.9097C24.7082 10.5358 24.9735 10.0774 25.1123 9.57083L25.1605 9.38387C25.3354 8.71444 25.3173 8.21387 25.1424 7.85805C24.9555 7.50223 24.6057 7.3213 24.1051 7.3213ZM16.6388 4.70991H14.7029L14.0214 7.29114H15.9573C16.5665 7.29114 17.0489 7.18862 17.3746 6.97754C17.7184 6.75439 17.9656 6.4046 18.0561 5.9945C18.1767 5.56027 18.1224 5.22857 17.8933 5.01749C17.6641 4.81847 17.248 4.70991 16.6388 4.70991Z" fill="#1B2838"/>
<path d="M11.5427 0L8.14124 12.9484H5.80728L8.10506 4.17942L4.58301 6.50132L5.21022 4.19148L11.5427 0Z" fill="#4996FA"/>
</g>
<defs>
<clipPath id="clip0_2590_6971">
<rect width="74.1078" height="16" fill="white" transform="translate(0.446289)"/>
</clipPath>
</defs>
</svg>
