<svg width="14" height="16" viewBox="0 0 14 16" fill="none" xmlns="http://www.w3.org/2000/svg">
<mask id="path-1-inside-1_1455_2517" fill="white">
<path d="M0 0L-6.99382e-07 16L14 16L14 6.11959e-07L0 0Z"/>
</mask>
<path d="M0 0L-0.5 -2.18557e-08L-0.5 -0.5L2.18557e-08 -0.5L0 0ZM-6.99382e-07 16L-7.21238e-07 16.5L-0.500001 16.5L-0.500001 16L-6.99382e-07 16ZM14 16L14.5 16L14.5 16.5L14 16.5L14 16ZM14 6.11959e-07L14 -0.499999L14.5 -0.499999L14.5 6.33815e-07L14 6.11959e-07ZM0.5 2.18557e-08L0.499999 16L-0.500001 16L-0.5 -2.18557e-08L0.5 2.18557e-08ZM-6.77526e-07 15.5L14 15.5L14 16.5L-7.21238e-07 16.5L-6.77526e-07 15.5ZM13.5 16L13.5 5.90104e-07L14.5 6.33815e-07L14.5 16L13.5 16ZM14 0.500001L-2.18557e-08 0.5L2.18557e-08 -0.5L14 -0.499999L14 0.500001Z" fill="#3D3E40" mask="url(#path-1-inside-1_1455_2517)"/>
</svg>
