<svg width="17" height="16" viewBox="0 0 17 16" fill="none" xmlns="http://www.w3.org/2000/svg">
<path d="M8.70166 0C6.53066 0 6.25766 0.01 5.40466 0.048C4.55166 0.088 3.97066 0.222 3.46166 0.42C2.92775 0.620819 2.44415 0.935826 2.04466 1.343C1.63774 1.7427 1.32277 2.22624 1.12166 2.76C0.92366 3.268 0.78866 3.85 0.74966 4.7C0.71166 5.555 0.70166 5.827 0.70166 8.001C0.70166 10.173 0.71166 10.445 0.74966 11.298C0.78966 12.15 0.92366 12.731 1.12166 13.24C1.32666 13.766 1.59966 14.212 2.04466 14.657C2.48866 15.102 2.93466 15.376 3.46066 15.58C3.97066 15.778 4.55066 15.913 5.40266 15.952C6.25666 15.99 6.52866 16 8.70166 16C10.8747 16 11.1457 15.99 11.9997 15.952C12.8507 15.912 13.4337 15.778 13.9427 15.58C14.4762 15.3791 14.9595 15.0641 15.3587 14.657C15.8037 14.212 16.0767 13.766 16.2817 13.24C16.4787 12.731 16.6137 12.15 16.6537 11.298C16.6917 10.445 16.7017 10.173 16.7017 8C16.7017 5.827 16.6917 5.555 16.6537 4.701C16.6137 3.85 16.4787 3.268 16.2817 2.76C16.0806 2.22623 15.7656 1.74268 15.3587 1.343C14.9593 0.935676 14.4757 0.620645 13.9417 0.42C13.4317 0.222 12.8497 0.087 11.9987 0.048C11.1447 0.01 10.8737 0 8.69966 0H8.70266H8.70166ZM7.98466 1.442H8.70266C10.8387 1.442 11.0917 1.449 11.9347 1.488C12.7147 1.523 13.1387 1.654 13.4207 1.763C13.7937 1.908 14.0607 2.082 14.3407 2.362C14.6207 2.642 14.7937 2.908 14.9387 3.282C15.0487 3.563 15.1787 3.987 15.2137 4.767C15.2527 5.61 15.2607 5.863 15.2607 7.998C15.2607 10.133 15.2527 10.387 15.2137 11.23C15.1787 12.01 15.0477 12.433 14.9387 12.715C14.8104 13.0624 14.6057 13.3764 14.3397 13.634C14.0597 13.914 13.7937 14.087 13.4197 14.232C13.1397 14.342 12.7157 14.472 11.9347 14.508C11.0917 14.546 10.8387 14.555 8.70266 14.555C6.56666 14.555 6.31266 14.546 5.46966 14.508C4.68966 14.472 4.26666 14.342 3.98466 14.232C3.63716 14.1039 3.32279 13.8996 3.06466 13.634C2.79841 13.376 2.59338 13.0617 2.46466 12.714C2.35566 12.433 2.22466 12.009 2.18966 11.229C2.15166 10.386 2.14366 10.133 2.14366 7.996C2.14366 5.86 2.15166 5.608 2.18966 4.765C2.22566 3.985 2.35566 3.561 2.46566 3.279C2.61066 2.906 2.78466 2.639 3.06466 2.359C3.34466 2.079 3.61066 1.906 3.98466 1.761C4.26666 1.651 4.68966 1.521 5.46966 1.485C6.20766 1.451 6.49366 1.441 7.98466 1.44V1.442ZM12.9727 2.77C12.8466 2.77 12.7218 2.79483 12.6053 2.84308C12.4888 2.89132 12.383 2.96203 12.2938 3.05118C12.2047 3.14032 12.134 3.24615 12.0857 3.36262C12.0375 3.4791 12.0127 3.60393 12.0127 3.73C12.0127 3.85607 12.0375 3.9809 12.0857 4.09738C12.134 4.21385 12.2047 4.31968 12.2938 4.40882C12.383 4.49797 12.4888 4.56868 12.6053 4.61692C12.7218 4.66517 12.8466 4.69 12.9727 4.69C13.2273 4.69 13.4714 4.58886 13.6515 4.40882C13.8315 4.22879 13.9327 3.98461 13.9327 3.73C13.9327 3.47539 13.8315 3.23121 13.6515 3.05118C13.4714 2.87114 13.2273 2.77 12.9727 2.77ZM8.70266 3.892C8.15773 3.8835 7.61655 3.98349 7.11064 4.18614C6.60472 4.3888 6.14418 4.69007 5.75581 5.07242C5.36745 5.45478 5.05902 5.91057 4.8485 6.41326C4.63798 6.91595 4.52956 7.4555 4.52956 8.0005C4.52956 8.5455 4.63798 9.08505 4.8485 9.58774C5.05902 10.0904 5.36745 10.5462 5.75581 10.9286C6.14418 11.3109 6.60472 11.6122 7.11064 11.8149C7.61655 12.0175 8.15773 12.1175 8.70266 12.109C9.7812 12.0922 10.8099 11.6519 11.5666 10.8833C12.3234 10.1146 12.7476 9.07917 12.7476 8.0005C12.7476 6.92183 12.3234 5.88641 11.5666 5.11775C10.8099 4.34909 9.7812 3.90883 8.70266 3.892ZM8.70266 5.333C9.40999 5.333 10.0884 5.61399 10.5885 6.11415C11.0887 6.61431 11.3697 7.29267 11.3697 8C11.3697 8.70733 11.0887 9.38569 10.5885 9.88585C10.0884 10.386 9.40999 10.667 8.70266 10.667C7.99533 10.667 7.31697 10.386 6.81681 9.88585C6.31665 9.38569 6.03566 8.70733 6.03566 8C6.03566 7.29267 6.31665 6.61431 6.81681 6.11415C7.31697 5.61399 7.99533 5.333 8.70266 5.333Z" fill="white"/>
</svg>
