<svg width="342" height="55" viewBox="0 0 342 55" fill="none" xmlns="http://www.w3.org/2000/svg">
<g clip-path="url(#clip0_1978_24614)">
<path fill-rule="evenodd" clip-rule="evenodd" d="M12.3421 45.305C15.3056 45.6811 19.3315 45.6938 25.5505 45.6938C31.7694 45.6938 35.7953 45.6811 38.7589 45.305C41.5474 44.9511 42.4017 44.3796 42.8652 43.9385C43.3287 43.4974 43.9291 42.6842 44.3009 40.0301C44.696 37.2094 44.7094 33.3776 44.7094 27.4585C44.7094 21.5393 44.696 17.7074 44.3009 14.8868C43.9291 12.2327 43.3287 11.4195 42.8652 10.9784C42.4017 10.5373 41.5474 9.96576 38.7589 9.6119C35.7953 9.23582 31.7694 9.22311 25.5505 9.22311C19.3315 9.22311 15.3056 9.23582 12.3421 9.6119C9.55357 9.96576 8.69921 10.5373 8.23575 10.9784C7.77234 11.4195 7.17182 12.2327 6.80004 14.8868C6.40493 17.7074 6.39158 21.5393 6.39158 27.4585C6.39158 33.3776 6.40493 37.2094 6.80004 40.0301C7.17182 42.6842 7.77234 43.4974 8.23575 43.9385C8.69921 44.3796 9.55357 44.9511 12.3421 45.305ZM3.71622 6.67673C0 10.2138 0 15.9621 0 27.4585C0 38.9549 0 44.7031 3.71622 48.2402C7.43247 51.7772 13.4718 51.7772 25.5505 51.7772C37.6292 51.7772 43.6685 51.7772 47.3848 48.2402C51.101 44.7031 51.101 38.9549 51.101 27.4585C51.101 15.9621 51.101 10.2138 47.3848 6.67673C43.6685 3.13965 37.6292 3.13965 25.5505 3.13965C13.4718 3.13965 7.43247 3.13965 3.71622 6.67673ZM19.0227 37.8739C15.7037 36.7311 13.4712 34.9845 11.9126 33.373L16.6148 29.2527C17.6374 30.3098 19.0427 31.4115 21.1973 32.1534C23.3201 32.8843 26.4176 33.0473 28.8344 32.4668C31.2139 31.8953 33.3235 30.5305 34.4581 29.3034L39.2563 33.3223C37.2881 35.4511 34.0599 37.4859 30.3983 38.3653C26.7743 39.2359 22.3735 39.0278 19.0227 37.8739ZM89.7485 3.14213C93.3174 3.14213 96.5155 3.89203 99.3423 5.39186C102.17 6.89167 104.371 8.98701 105.947 11.6778C107.569 14.3687 108.38 17.4786 108.38 21.0077C108.38 24.5366 107.569 27.6685 105.947 30.4035C104.371 33.0945 102.17 35.1898 99.3423 36.6895C96.5155 38.1893 93.3174 38.9394 89.7485 38.9394C87.1068 38.9394 84.6735 38.454 82.4488 37.4836C80.2707 36.5132 78.4168 35.1016 76.8875 33.2488V51.7798H70.2137V3.14213H76.6095V9.03115C78.0927 7.09018 79.9694 5.63448 82.2403 4.66401C84.5117 3.64942 87.0144 3.14213 89.7485 3.14213ZM89.1925 33.3812C91.5562 33.3812 93.6648 32.8739 95.5188 31.8593C97.4189 30.8006 98.902 29.3448 99.9682 27.4921C101.081 25.5952 101.637 23.4338 101.637 21.0077C101.637 18.5815 101.081 16.442 99.9682 14.5893C98.902 12.6925 97.4189 11.2367 95.5188 10.2222C93.6648 9.20756 91.5562 8.70028 89.1925 8.70028C86.8749 8.70028 84.7664 9.22964 82.8663 10.2883C81.0123 11.3029 79.5291 12.7365 78.4168 14.5893C77.3511 16.442 76.818 18.5815 76.818 21.0077C76.818 23.4338 77.3511 25.5952 78.4168 27.4921C79.483 29.3448 80.9661 30.8006 82.8663 31.8593C84.7664 32.8739 86.8749 33.3812 89.1925 33.3812ZM149.746 3.14213V38.5422H143.35V32.9841C141.867 34.925 139.99 36.4028 137.719 37.4174C135.448 38.432 132.945 38.9394 130.211 38.9394C126.642 38.9394 123.444 38.1893 120.617 36.6895C117.79 35.1898 115.565 33.0944 113.943 30.4035C112.368 27.6685 111.579 24.5366 111.579 21.0077C111.579 17.4786 112.368 14.3687 113.943 11.6778C115.565 8.98701 117.79 6.89167 120.617 5.39185C123.444 3.89203 126.642 3.14213 130.211 3.14213C132.852 3.14213 135.286 3.62736 137.51 4.59784C139.735 5.52419 141.589 6.91373 143.072 8.76645V3.14213H149.746ZM130.767 33.3812C133.084 33.3812 135.193 32.8739 137.093 31.8593C138.993 30.8006 140.477 29.3448 141.542 27.4921C142.609 25.5952 143.141 23.4338 143.141 21.0077C143.141 18.5815 142.609 16.442 141.542 14.5893C140.477 12.6925 138.993 11.2367 137.093 10.2222C135.193 9.20756 133.084 8.70028 130.767 8.70028C128.403 8.70028 126.271 9.20756 124.371 10.2222C122.517 11.2367 121.034 12.6925 119.922 14.5893C118.856 16.442 118.323 18.5815 118.323 21.0077C118.323 23.4338 118.856 25.5952 119.922 27.4921C121.034 29.3448 122.517 30.8006 124.371 31.8593C126.271 32.8739 128.403 33.3812 130.767 33.3812ZM190.803 33.7782V3.14213H184.13V19.7505C184.13 23.4559 183.109 26.3231 181.071 28.3524C179.031 30.3815 176.251 31.3961 172.728 31.3961C169.53 31.3961 167.073 30.5359 165.36 28.8155C163.644 27.051 162.787 24.4926 162.787 21.1399V3.14213H156.113V21.8678C156.113 26.8966 157.527 30.6903 160.354 33.2488C163.181 35.8073 167.05 37.0867 171.964 37.0867C174.467 37.0867 176.784 36.6455 178.916 35.7633C181.048 34.8368 182.785 33.5356 184.13 31.8593V34.4399C184.13 38.4099 183.178 41.3434 181.279 43.2403C179.378 45.1812 176.413 46.1517 172.38 46.1517C169.832 46.1517 167.398 45.7547 165.081 44.9606C162.81 44.1666 160.863 43.0638 159.241 41.6522L155.974 46.5486C157.874 48.225 160.307 49.5042 163.273 50.3865C166.286 51.3129 169.438 51.776 172.728 51.776C178.754 51.776 183.272 50.2982 186.285 47.3427C189.297 44.4313 190.803 39.9098 190.803 33.7782ZM216.712 3.14213C220.28 3.14213 223.478 3.89203 226.306 5.39186C229.134 6.89167 231.334 8.98701 232.91 11.6778C234.532 14.3687 235.343 17.4786 235.343 21.0077C235.343 24.5366 234.532 27.6687 232.91 30.4036C231.334 33.0944 229.134 35.1897 226.306 36.6895C223.478 38.1894 220.28 38.9394 216.712 38.9394C214.07 38.9394 211.637 38.454 209.412 37.4836C207.234 36.5131 205.381 35.1015 203.85 33.2488V51.7797H197.177V3.14213H203.573V9.03115C205.056 7.09018 206.932 5.63448 209.204 4.66401C211.475 3.64942 213.978 3.14213 216.712 3.14213ZM216.156 33.3812C218.519 33.3812 220.628 32.8739 222.481 31.8592C224.382 30.8006 225.865 29.3448 226.931 27.4921C228.045 25.5953 228.6 23.4339 228.6 21.0077C228.6 18.5815 228.045 16.442 226.931 14.5893C225.865 12.6925 224.382 11.2367 222.481 10.2222C220.628 9.20756 218.519 8.70028 216.156 8.70028C213.838 8.70028 211.729 9.22964 209.83 10.2883C207.975 11.3029 206.493 12.7365 205.381 14.5893C204.314 16.442 203.782 18.5815 203.782 21.0077C203.782 23.4339 204.314 25.5953 205.381 27.4921C206.447 29.3448 207.93 30.8006 209.83 31.8592C211.729 32.8739 213.838 33.3812 216.156 33.3812ZM269.271 5.39186C266.445 3.89203 263.248 3.14213 259.679 3.14213C256.943 3.14213 254.441 3.64942 252.171 4.66401C249.899 5.63448 248.021 7.09018 246.539 9.03115V3.14213H240.143V51.7797H246.818V33.2488C248.346 35.1015 250.201 36.5131 252.379 37.4836C254.603 38.454 257.037 38.9394 259.679 38.9394C263.248 38.9394 266.445 38.1894 269.271 36.6895C272.098 35.1897 274.3 33.0944 275.876 30.4036C277.497 27.6687 278.31 24.5366 278.31 21.0077C278.31 17.4786 277.497 14.3687 275.876 11.6778C274.3 8.98701 272.098 6.89167 269.271 5.39186ZM265.449 31.8592C263.595 32.8739 261.486 33.3812 259.123 33.3812C256.805 33.3812 254.696 32.8739 252.796 31.8592C250.894 30.8006 249.412 29.3448 248.346 27.4921C247.28 25.5953 246.747 23.4339 246.747 21.0077C246.747 18.5815 247.28 16.442 248.346 14.5893C249.458 12.7365 250.942 11.3029 252.796 10.2883C254.696 9.22964 256.805 8.70028 259.123 8.70028C261.486 8.70028 263.595 9.20756 265.449 10.2222C267.349 11.2367 268.832 12.6925 269.898 14.5893C271.01 16.442 271.566 18.5815 271.566 21.0077C271.566 23.4339 271.01 25.5953 269.898 27.4921C268.832 29.3448 267.349 30.8006 265.449 31.8592ZM317.782 3.14213V33.7781C317.782 39.9098 316.276 44.4313 313.264 47.3427C310.251 50.2982 305.733 51.776 299.707 51.776C296.415 51.776 293.265 51.3128 290.252 50.3864C287.285 49.5041 284.853 48.2249 282.953 46.5486L286.219 41.6522C287.841 43.0638 289.788 44.1665 292.06 44.9606C294.377 45.7547 296.811 46.1517 299.359 46.1517C303.391 46.1517 306.358 45.1812 308.258 43.2403C310.157 41.3434 311.108 38.41 311.108 34.4399V31.8592C309.764 33.5356 308.025 34.8368 305.895 35.7633C303.763 36.6455 301.445 37.0866 298.943 37.0866C294.029 37.0866 290.159 35.8074 287.333 33.2488C284.506 30.6902 283.092 26.8966 283.092 21.8678V3.14213H289.765V21.14C289.765 24.4926 290.623 27.051 292.339 28.8155C294.052 30.5359 296.509 31.3961 299.707 31.3961C303.23 31.3961 306.01 30.3815 308.05 28.3524C310.088 26.3231 311.108 23.4559 311.108 19.7505V3.14213H317.782ZM332.305 3.18399H334.055L337.096 10.4746H337.209L340.25 3.18399H342V12.5629H340.629V5.77602H340.54L337.722 12.5492H336.583L333.765 5.77144H333.676V12.5629H332.305V3.18399ZM323.275 3.18394V4.4021H326.252V12.5629H327.689V4.4021H330.67V3.18394H323.275Z" fill="white"/>
</g>
<defs>
<clipPath id="clip0_1978_24614">
<rect width="342" height="48.7207" fill="white" transform="translate(0 3.13965)"/>
</clipPath>
</defs>
</svg>
